<?xml version="1.0" standalone="no"?>
<!DOCTYPE svg PUBLIC "-//W3C//DTD SVG 1.1//EN" "http://www.w3.org/Graphics/SVG/1.1/DTD/svg11.dtd" >
<svg xmlns="http://www.w3.org/2000/svg" xmlns:xlink="http://www.w3.org/1999/xlink" version="1.1">
<metadata>
Created by FontForge 20170731 at Fri Jul 25 21:05:37 2014
 By Aleksey,,,
2014 Iconian Fonts - www.iconian.com
</metadata>
<defs>
<font id="HollowPoint3D" horiz-adv-x="548" >
  <font-face 
    font-family="Hollow Point 3D"
    font-weight="400"
    font-stretch="normal"
    units-per-em="1000"
    panose-1="0 0 0 0 0 0 0 0 0 0"
    ascent="800"
    descent="-200"
    x-height="483"
    cap-height="508"
    bbox="-238 -232 1226 782"
    underline-thickness="50"
    underline-position="-175"
    unicode-range="U+0020-2122"
  />
<missing-glyph horiz-adv-x="500" 
 />
    <glyph glyph-name=".notdef" horiz-adv-x="500" 
 />
    <glyph glyph-name=".null" horiz-adv-x="0" 
 />
    <glyph glyph-name="nonmarkingreturn" horiz-adv-x="500" 
 />
    <glyph glyph-name="space" unicode=" " horiz-adv-x="346" 
 />
    <glyph glyph-name="space" unicode="&#xa0;" horiz-adv-x="346" 
 />
    <glyph glyph-name="FL0021h" unicode="!" horiz-adv-x="214" 
d="M165 671l27 -27v-413q-2 -6 -10 -17t-19.5 -25t-25.5 -29.5t-29 -29.5q34 -8 50 -37l15 -15q21 -21 21 -50q0 -28 -21 -49t-52 -21q-30 0 -51 21l-16 15q-17 9 -27.5 26.5t-10.5 37.5q0 27 17 47l-9 8q-2 -1 -3 -1t-2 -1v401l21 28q24 32 52 67t73 73v-9zM29 58
q0 -24 18 -42t44 -18t44.5 18t18.5 42q0 25 -18.5 43t-44.5 18t-44 -18t-18 -43zM152 651q-33 -29 -63 -68.5t-57 -74.5v-377q13 6 32.5 24.5t38 39.5t32.5 40t17 27v389z" />
    <glyph glyph-name="FL0022h" unicode="&#x22;" horiz-adv-x="369" 
d="M19 526q0 30 21.5 52t53.5 22q22 0 39.5 -11t26.5 -28l12 -12q8 22 27 36.5t45 14.5q22 0 39.5 -11t27.5 -28l15 -15q21 -21 21 -50v-1q0 -36 -23 -70.5t-66 -69.5l-28 28q-2 -2 -3 -2.5t-2 -1.5v63q-2 2 -2 3l-17 17q-8 4 -12 7q-7 -29 -29 -57t-57 -57l-28 28
q-2 -2 -3 -2.5t-2 -1.5v63q-2 2 -2 3l-16 16q-17 8 -27.5 25.5t-10.5 39.5zM32 526q0 -24 16 -41.5t37 -17.5h3v-61q33 27 51 56t18 63v1q0 25 -18.5 43t-44.5 18t-44 -18t-18 -43zM182 526q0 -24 16 -41.5t37 -17.5h3v-61q33 27 51 56t18 63v1q0 25 -18.5 43t-44.5 18
t-44 -18t-18 -43z" />
    <glyph glyph-name="FL0023h" unicode="#" horiz-adv-x="597" 
d="M267 498l27 -27v-78h26q19 23 43 51t63 63v-9l27 -27v-78h99q-2 -4 -2 -5l28 -28q-6 -17 -22.5 -40.5t-34.5 -44.5t-32.5 -35.5t-15.5 -14.5h-20v-7h99q-2 -4 -2 -5l28 -28q-6 -17 -22.5 -40.5t-34.5 -44.5t-32.5 -35.5t-15.5 -14.5h-47q-10 -14 -24.5 -29.5t-30 -29.5
t-31 -26t-27.5 -18l-28 28q-4 -2 -5 -3v78h-13q-10 -14 -24.5 -29.5t-30 -29.5t-31 -26t-27.5 -18l-28 28q-4 -2 -5 -3v78h-69l-27 27h-6v141h102v7h-69l-27 27h-6v141h142q19 23 43 51t63 63v-9zM293 205h-39v60h39v-60zM254 479q-23 -21 -45 -47t-42 -52h-135v-115h102
v-60h-102v-115h102v-98q9 4 22 15t26.5 25t26.5 29t23 29h61v-98q9 4 22 15t26.5 25t26.5 29t23 29h52q1 0 13.5 12.5t28.5 30.5t30.5 37.5t19.5 34.5h-122v60h30q1 0 13.5 12.5t28.5 30.5t30.5 37.5t19.5 34.5h-122v99q-23 -21 -45 -47t-42 -52h-72v99z" />
    <glyph glyph-name="FL0024h" unicode="$" horiz-adv-x="550" 
d="M334 650l27 -27v-140h144q-2 -4 -2 -5l28 -28q-6 -17 -22.5 -40.5t-34.5 -44.5t-32.5 -35.5t-15.5 -14.5h-65v-9h48q23 0 43.5 -13.5t32.5 -34.5l12 -11q14 -14 22.5 -32.5t8.5 -38.5v-116q0 -18 -6.5 -36t-18.5 -32t-28 -23t-35 -9h-79v-20q-3 -8 -19.5 -29t-38 -44.5
t-44 -44t-38.5 -27.5l-28 28q-4 -2 -5 -3v140h-139l-27 27h-7q6 18 23 42.5t36 46t33.5 37t16.5 15.5h64v10h-48q-17 0 -32 7t-26 18l-13 13q-23 13 -36.5 37t-13.5 51v116q0 18 7 36.5t19 33.5t28.5 24t36.5 9h78v14q29 36 62 76t84 86v-9zM152 355h49v-62h-49v62zM368 115
h-47v63h47v-63zM321 631q-33 -29 -63 -66t-57 -72v-23h-91q-17 0 -31 -8t-24.5 -21t-16.5 -29t-6 -32v-116q0 -16 6 -31.5t16.5 -27.5t24.5 -19.5t31 -7.5h91v-63h-77q-2 0 -14.5 -12.5t-28 -30.5t-30 -37.5t-19.5 -34.5h169v-160q13 6 32.5 24.5t38 39.5t32.5 40t17 27v29
h89q16 0 30.5 8t25 21t16.5 29t6 32v116q0 16 -6.5 31.5t-17 28t-25 20t-30.5 7.5h-88v62h75q1 0 13.5 12.5t28.5 30.5t30.5 37.5t19.5 34.5h-167v161z" />
    <glyph glyph-name="FL0025h" unicode="%" horiz-adv-x="633" 
d="M145 349h27v39h-27v-39zM457 56h27v39h-27v-39zM19 458q0 6 5.5 15t13 18t16 15t15.5 6h151q12 0 25 -11t21 -24l14 -14q8 -8 13.5 -17.5t5.5 -17.5v-70l84 126h170l-3 -5l28 -28l-155 -232h109q12 0 25 -11t21 -24l14 -14q8 -8 13.5 -17.5t5.5 -17.5v-148
q0 -6 -4.5 -15.5t-11 -18.5t-15 -15.5t-17.5 -6.5h-152q-14 0 -25 13l-17 17q-16 7 -27 26t-11 30v63l-81 -120h-164l-27 27h-8l158 237h-110q-14 0 -25 13l-17 16q-16 8 -27 27t-11 30v148zM497 135v-92h-80v92h80zM344 17q0 -5 3 -12.5t8.5 -15t12 -13t13.5 -5.5h152
q7 0 13.5 5.5t12 13t9 15t3.5 12.5v148q0 6 -3.5 13t-9.5 13t-13 10.5t-13 4.5h-151q-5 0 -11.5 -4.5t-12 -11.5t-9.5 -14t-4 -11v-148zM185 428v-92h-80v92h80zM32 310q0 -5 3 -12.5t8.5 -15t12 -13t13.5 -5.5h152q7 0 13.5 5.5t12 13t9 15t3.5 12.5v148q0 6 -3.5 13
t-9.5 13t-13 10.5t-13 4.5h-151q-5 0 -11.5 -4.5t-12 -11.5t-9.5 -14t-4 -11v-148zM215 0l314 471h-140l-314 -471h140z" />
    <glyph glyph-name="FL0026h" unicode="&#x26;" horiz-adv-x="505" 
d="M321 641l27 -27v-131h127q-2 -4 -2 -5l28 -28q-6 -17 -22.5 -40.5t-34.5 -44.5t-32.5 -35.5t-15.5 -14.5h-204v-8h283q-2 -4 -2 -5l28 -28q-6 -17 -22.5 -40.5t-34.5 -44.5t-32.5 -35.5t-15.5 -14.5h-204v-11h283q-2 -4 -2 -5l28 -28q-6 -17 -22.5 -40.5t-34.5 -44.5
t-32.5 -35.5t-15.5 -14.5h-48v-20q-3 -8 -19.5 -29t-38 -44.5t-44 -44t-38.5 -27.5l-28 28q-4 -2 -5 -3v140h-35q-17 0 -31.5 7t-25.5 18l-14 14q-23 14 -36.5 39t-13.5 51v291q0 18 7 36.5t19 33.5t28.5 24t36.5 9h66v23q29 45 62.5 82t82.5 61v-8zM308 628
q-35 -17 -63.5 -50t-55.5 -76v-32h-79q-17 0 -31 -8t-24.5 -21t-16.5 -29t-6 -32v-291q0 -16 6 -32t16.5 -28.5t24.5 -20.5t31 -8h78v-160q13 6 32.5 24.5t38 39.5t32.5 40t17 27v29h58q1 0 13.5 12.5t28.5 30.5t30.5 37.5t19.5 34.5h-306v64h214q1 0 13.5 12.5t28.5 30.5
t30.5 37.5t19.5 34.5h-306v61h214q1 0 13.5 12.5t28.5 30.5t30.5 37.5t19.5 34.5h-150v158z" />
    <glyph glyph-name="FL0027h" unicode="'" horiz-adv-x="219" 
d="M19 526q0 30 21.5 52t53.5 22q22 0 39.5 -11t27.5 -28l15 -15q21 -21 21 -50v-1q0 -36 -23 -70.5t-66 -69.5l-28 28q-2 -2 -3 -2.5t-2 -1.5v63q-2 2 -2 3l-16 16q-17 8 -27.5 25.5t-10.5 39.5zM32 526q0 -24 16 -41.5t37 -17.5h3v-61q33 27 51 56t18 63v1q0 25 -18.5 43
t-44.5 18t-44 -18t-18 -43z" />
    <glyph glyph-name="FL0028h" unicode="(" horiz-adv-x="335" 
d="M192 13h123q-2 -4 -2 -5l28 -28q-6 -17 -22.5 -40.5t-34.5 -44.5t-32.5 -35.5t-15.5 -14.5h-96q-17 0 -31.5 7t-25.5 18l-14 14q-23 14 -36.5 39t-13.5 51v523q0 18 7 36.5t19 33.5t28.5 24t36.5 9h205q-2 -4 -2 -5l28 -28q-6 -17 -22.5 -40.5t-34.5 -44.5t-32.5 -35.5
t-15.5 -14.5h-44v-419zM206 -115q1 0 13.5 12.5t28.5 30.5t30.5 37.5t19.5 34.5h-146v472h54q1 0 13.5 12.5t28.5 30.5t30.5 37.5t19.5 34.5h-188q-17 0 -31 -8t-24.5 -21t-16.5 -29t-6 -32v-523q0 -16 6 -32t16.5 -28.5t24.5 -20.5t31 -8h96z" />
    <glyph glyph-name="FL0029h" unicode=")" horiz-adv-x="335" 
d="M99 -115q-1 0 -13.5 12.5t-28.5 30.5t-30.5 37.5t-19.5 34.5h146v472h-54q-1 0 -13.5 12.5t-28.5 30.5t-30.5 37.5t-19.5 34.5h188q16 0 30.5 -8t25 -21t16.5 -29t6 -32v-523q0 -16 -6 -32t-16.5 -28.5t-25 -20.5t-30.5 -8h-96zM99 -128h2l17 -17q5 -5 8 -7.5l3 -2.5h96
q19 0 35 8.5t28 23t18.5 32t6.5 35.5v523q0 20 -8.5 40t-22.5 35l-14 14q-13 19 -31.5 31.5t-41.5 12.5h-205q6 -18 23.5 -42.5t36 -46t33.5 -37t16 -15.5h2l17 -17q5 -5 8 -7.5l3 -2.5h11v-419h-150q6 -18 23.5 -42.5t36 -46t33.5 -37t16 -15.5z" />
    <glyph glyph-name="FL002Ah" unicode="*" horiz-adv-x="321" 
d="M147 504h23v35h-23v-35zM19 611q0 6 5.5 15t13 18t16 15t15.5 6h151q12 0 25 -11t21 -24l14 -14q8 -8 13.5 -17.5t5.5 -17.5v-148q0 -6 -4.5 -15.5t-11 -18.5t-15 -15.5t-17.5 -6.5h-152q-14 0 -25 13l-17 16q-16 8 -27 27t-11 30v148zM183 579v-88h-76v88h76zM32 463
q0 -5 3 -12.5t8.5 -15t12 -13t13.5 -5.5h152q7 0 13.5 5.5t12 13t9 15t3.5 12.5v148q0 6 -3.5 13t-9.5 13t-13 10.5t-13 4.5h-151q-5 0 -11.5 -4.5t-12 -11.5t-9.5 -14t-4 -11v-148z" />
    <glyph glyph-name="FL002Bh" unicode="+" horiz-adv-x="472" 
d="M19 305h139v138h141v-6l27 -27v-105h116q-2 -4 -2 -5l28 -28q-6 -17 -22.5 -40.5t-34.5 -44.5t-32.5 -35.5t-15.5 -14.5h-37v-143q-13 4 -29.5 15t-33.5 24t-32 26.5t-25 23.5q-20 18 -34 31.5t-14 14.5v8h-106l-27 27h-6v141zM171 292h-139v-115h139v-48
q0 -1 12.5 -13.5t30.5 -28.5t37.5 -30.5t34.5 -19.5v140h47q1 0 13.5 12.5t28.5 30.5t30.5 37.5t19.5 34.5h-139v138h-115v-138z" />
    <glyph glyph-name="FL002Ch" unicode="," horiz-adv-x="219" 
d="M19 58q0 30 21.5 52t53.5 22q22 0 39.5 -11t27.5 -28l15 -15q21 -21 21 -50v-1q0 -36 -23 -70.5t-66 -69.5l-28 28q-4 -2 -5 -4v64l-2 2l-17 17q-17 8 -27 25t-10 39zM32 58q0 -24 16 -41.5t37 -17.5h3v-61q33 27 51 56t18 63v1q0 25 -18.5 43t-44.5 18t-44 -18t-18 -43z
" />
    <glyph glyph-name="FL002Dh" unicode="-" horiz-adv-x="369" 
d="M25 164h-6v141h320q-2 -4 -2 -5l28 -28q-6 -17 -22.5 -40.5t-34.5 -44.5t-32.5 -35.5t-15.5 -14.5h-208zM230 177q1 0 13.5 12.5t28.5 30.5t30.5 37.5t19.5 34.5h-290v-115h198z" />
    <glyph glyph-name="FL002Eh" unicode="." horiz-adv-x="219" 
d="M19 58q0 30 21.5 52t53.5 22q22 0 39.5 -11t27.5 -28l15 -15q21 -21 21 -50q0 -28 -21 -49t-52 -21q-30 0 -51 21l-16 15q-17 9 -27.5 26.5t-10.5 37.5zM32 58q0 -24 18 -42t44 -18t44.5 18t18.5 42q0 25 -18.5 43t-44.5 18t-44 -18t-18 -43z" />
    <glyph glyph-name="FL002Fh" unicode="/" 
d="M16 -13h-8l332 497h170l-3 -5l28 -28l-328 -491h-164zM172 0l314 471h-140l-314 -471h140z" />
    <glyph glyph-name="FL0030h" unicode="0" 
d="M192 130h161v187h-161v-187zM19 401q0 9 7.5 23t19 27.5t24.5 23t24 9.5h328q16 0 33.5 -13.5t28.5 -31.5l12 -11q13 -13 21.5 -28.5t8.5 -28.5v-320q0 -9 -6.5 -24.5t-16.5 -30.5t-23 -25.5t-25 -10.5h-332q-8 0 -16.5 5t-16.5 13l-14 14q-11 6 -21 17.5t-18 24.5
t-13 26t-5 21v320zM152 357h214v-240h-214v240zM32 81q0 -8 5.5 -22t14.5 -27t19.5 -22.5t21.5 -9.5h332q10 0 21 9.5t20 22.5t14.5 27t5.5 22v320q0 10 -6 22t-15.5 22.5t-21 18t-21.5 7.5h-328q-9 0 -20 -8.5t-20 -19.5t-15.5 -23t-6.5 -19v-320z" />
    <glyph glyph-name="FL0031h" unicode="1" horiz-adv-x="214" 
d="M165 500l27 -27v-374q-3 -8 -19.5 -29t-38 -44.5t-44 -44t-38.5 -27.5l-28 28q-4 -2 -5 -3v362l21 28q24 32 52 67t73 73v-9zM152 480q-33 -29 -63 -68.5t-57 -74.5v-338q13 6 32.5 24.5t38 39.5t32.5 40t17 27v350z" />
    <glyph glyph-name="FL0032h" unicode="2" horiz-adv-x="550" 
d="M368 355h-244q-2 0 -14.5 12.5t-28 30.5t-30 37.5t-19.5 34.5h378q16 0 30.5 -8t25 -21t16.5 -29t6 -32v-116q0 -16 -6 -31.5t-16.5 -27.5t-25 -19.5t-30.5 -7.5h-258v-63h244q1 0 13.5 -12.5t28.5 -30.5t30.5 -37.5t19.5 -34.5h-378q-17 0 -31 8t-24.5 21t-16.5 29
t-6 32v116q0 16 6.5 31.5t17 28t25 20t30.5 7.5h257v62zM19 206v-116q0 -26 13.5 -51.5t36.5 -39.5l14 -14q11 -11 25.5 -18t31.5 -7h391q-5 14 -16.5 31.5t-25.5 34.5t-28 32.5t-23 25.5q-17 19 -29 31.5t-13 12.5h-204v10h248q19 0 35 8t28 21.5t18.5 31t6.5 35.5v116
q0 20 -8.5 40t-22.5 35l-4 3l-1 1l-8 8l-17 18q-11 11 -25.5 18t-31.5 7h-391q4 -14 15.5 -31t25 -34.5t27.5 -32.5t24 -25l12 -12q-10 11 -21.5 25t-22 28t-19 27.5t-11.5 24.5h391q11 0 21 -3.5t19 -8.5q8 -13 13 -28t5 -30v-116q0 -18 -6.5 -35.5t-18.5 -31t-28 -21.5
t-35 -8h-238l-10 10l-10 -10l10 -10v-33h-10l40 -40v10h234q10 -11 21.5 -25t22 -28t19 -27.5t12.5 -24.5h-391q-11 0 -21 3t-19 8q-18 27 -18 59v116q0 18 7 35.5t19.5 31t28.5 22t34 8.5h237l10 -10l10 10l-10 10v32h10l-40 40v-10h-235l3 -3h229v-27h3v-12h-247
q-18 0 -34 -8.5t-28.5 -22t-19.5 -31t-7 -35.5v-116q0 -20 8.5 -40t22.5 -35l16 -16q9 -5 19.5 -8.5t21.5 -3.5h395q-7 19 -27 46.5t-40 50.5q-1 0 -1 1l-30 30q-5 5 -8 7.5l-3 2.5h-204v3h-27v37h245q19 0 36 8.5t29 22.5t19 31.5t7 36.5v116q0 18 -7 36.5t-19 33.5t-29 24
t-36 9h-395q6 -18 23 -42.5t36 -46t33.5 -37t16.5 -15.5h2l15 -15q12 -12 13 -12h201v-9h-244q-19 0 -35.5 -8.5t-29 -23t-20 -32.5t-7.5 -36zM493 428q0 1 -1 1z" />
    <glyph glyph-name="FL0033h" unicode="3" horiz-adv-x="505" 
d="M365 483q23 0 42.5 -13t31.5 -33l13 -12q14 -14 22.5 -34t8.5 -40v-291q0 -18 -6.5 -36t-18.5 -32t-28 -23t-35 -9h-361l-27 27h-7q6 18 23 42.5t36 46t33.5 37t16.5 15.5h201v8h-276l-27 27h-7q6 18 23 42.5t36 46t33.5 37t16.5 15.5h201v11h-276l-27 27h-7
q6 18 23 42.5t36 46t33.5 37t16.5 15.5h256zM109 470q-2 0 -14.5 -12.5t-28 -30.5t-30 -37.5t-19.5 -34.5h306v-64h-214q-2 0 -14.5 -12.5t-28 -30.5t-30 -37.5t-19.5 -34.5h306v-61h-214q-2 0 -14.5 -12.5t-28 -30.5t-30 -37.5t-19.5 -34.5h348q16 0 30.5 8t25 21t16.5 29
t6 32v291q0 16 -6 32t-16.5 28.5t-25 20.5t-30.5 8h-256z" />
    <glyph glyph-name="FL0034h" unicode="4" 
d="M499 490l27 -27v-364q-3 -8 -19.5 -29t-38 -44.5t-44 -44t-38.5 -27.5l-28 28q-4 -2 -5 -3v158h-230q-8 0 -16.5 5t-16.5 13l-14 13q-11 6 -21 17.5t-18 25t-13 26.5t-5 21v226h146v-6l27 -27v-144h161v43q3 9 19.5 31.5t38.5 47t46 44.5t42 24v-7zM486 480
q-14 -3 -33.5 -21t-37.5 -39.5t-32 -42t-17 -28.5v-55h-214v177h-120v-213q0 -8 5.5 -22t14.5 -27t19.5 -22.5t21.5 -9.5h273v-178q13 6 32.5 24.5t38 39.5t32.5 40t17 27v350z" />
    <glyph glyph-name="FL0035h" unicode="5" horiz-adv-x="550" 
d="M69 176q-23 13 -36.5 37t-13.5 51v156q0 28 15.5 45.5t48.5 17.5h362q-2 -4 -2 -5l28 -28q-6 -17 -22.5 -40.5t-34.5 -44.5t-32.5 -35.5t-15.5 -14.5h-174v-9h217q23 0 43.5 -13.5t32.5 -34.5l12 -11q14 -14 22.5 -32.5t8.5 -38.5v-116q0 -18 -6.5 -36t-18.5 -32t-28 -23
t-35 -9h-391l-27 27h-7q6 18 23 42.5t36 46t33.5 37t16.5 15.5h231v10h-215q-17 0 -32 7t-26 18zM152 355h184q1 0 13.5 12.5t28.5 30.5t30.5 37.5t19.5 34.5h-345q-26 0 -38.5 -14t-12.5 -36v-156q0 -16 6 -31.5t16.5 -27.5t24.5 -19.5t31 -7.5h258v-63h-244
q-2 0 -14.5 -12.5t-28 -30.5t-30 -37.5t-19.5 -34.5h378q16 0 30.5 8t25 21t16.5 29t6 32v116q0 16 -6.5 31.5t-17 28t-25 20t-30.5 7.5h-257v62z" />
    <glyph glyph-name="FL0036h" unicode="6" horiz-adv-x="533" 
d="M53 15l4 -4zM268 138l-27 27h-4l-45 45v-82h149q-1 1 -1 4v6h-72zM70 -1q-20 12 -35.5 33t-15.5 38v330q0 12 8 26t20.5 27t27 21.5t26.5 8.5h291l14.5 -14t35.5 -39q16 -16 40.5 -45t52.5 -70h-343v-9h220q13 0 28.5 -12t26.5 -29l14 -13q13 -13 22 -30t9 -32v-150
q0 -14 -7 -28t-18 -25.5t-25.5 -19t-29.5 -7.5h-300q-11 0 -25.5 8t-26.5 21zM353 138q0 -6 -1.5 -14.5t-9.5 -8.5h-190v155l90 -92h100q7 0 9 -8t2 -15v-17zM152 355h334q-37 55 -65 85t-29 30h-291q-11 0 -23 -7.5t-22 -18t-17 -22.5t-7 -22v-330q0 -11 7.5 -23t18 -22.5
t22.5 -17.5t22 -7h300q13 0 25.5 6.5t22.5 16.5t16 22.5t6 24.5v150q0 11 -6 24t-15 24t-19.5 18t-19.5 7h-260v62z" />
    <glyph glyph-name="FL0037h" unicode="7" horiz-adv-x="520" 
d="M109 355q-2 0 -14.5 12.5t-28 30.5t-30 37.5t-19.5 34.5h382q16 0 29.5 -8t23.5 -21t15.5 -29t5.5 -32l-220 -380h-162l207 355h-189zM126 327q12 -12 13 -12h119l-191 -328h9l27 -27h186l224 387q0 22 -8.5 43.5t-23.5 36.5l-15 15q-12 18 -29 29.5t-38 11.5h-399
q6 -18 23 -42.5t36 -46t33.5 -37t16.5 -15.5h2z" />
    <glyph glyph-name="FL0038h" unicode="8" 
d="M192 136v-6h161v38q-14 -14 -24 -23t-12 -9h-125zM192 304h161v13h-161v-13zM19 401q0 9 7.5 23t19 27.5t24.5 23t24 9.5h328q16 0 33.5 -13.5t28.5 -31.5l12 -11q13 -13 21.5 -28.5t8.5 -28.5v-320q0 -9 -6.5 -24.5t-16.5 -30.5t-23 -25.5t-25 -10.5h-332q-8 0 -16.5 5
t-16.5 13l-14 14q-11 6 -21 17.5t-18 24.5t-13 26t-5 21v320zM366 357v-66h-214v66h214zM152 176h135q1 0 10 8.5t21 21.5t25 28.5t23 30.5v-148h-214v59zM32 81q0 -8 5.5 -22t14.5 -27t19.5 -22.5t21.5 -9.5h332q10 0 21 9.5t20 22.5t14.5 27t5.5 22v320q0 10 -6 22
t-15.5 22.5t-21 18t-21.5 7.5h-328q-9 0 -20 -8.5t-20 -19.5t-15.5 -23t-6.5 -19v-320z" />
    <glyph glyph-name="FL0039h" unicode="9" horiz-adv-x="533" 
d="M191 315q-1 0 -1 -4v-6h76l72 -74v84h-147zM111 -13l-10 9.5t-26.5 27.5t-37.5 44t-44 60h345v9h-217q-18 0 -39 21l-15 14q-18 12 -33.5 35t-15.5 43v150q0 14 7 29t18.5 27t26.5 19.5t31 7.5h300q17 0 38 -16t34 -36l10 -10l-4 3q2 -2 4 -3q12 -12 20 -25.5t8 -25.5
v-330q0 -11 -8 -25t-19.5 -26t-25.5 -20.5t-26 -8.5h-291l-3.5 3t-9.5 9l-15 15h-2zM150 332q0 6 1.5 14.5t9.5 8.5h190v-155l-90 92h-100q-7 0 -9 8t-2 15v17zM351 115h-334q37 -55 65 -85t29 -30h291q10 0 22.5 7.5t22.5 18t17 22.5t7 22v330q0 10 -7.5 22.5t-18 23
t-22.5 17.5t-22 7h-300q-13 0 -25.5 -6.5t-22.5 -16.5t-16 -22.5t-6 -24.5v-150q0 -11 6 -24t15 -24t19.5 -18t19.5 -7h260v-62z" />
    <glyph glyph-name="FL003Ah" unicode=":" horiz-adv-x="219" 
d="M19 58q0 30 21.5 52t53.5 22q22 0 39.5 -11t27.5 -28l15 -15q21 -21 21 -50q0 -28 -21 -49t-52 -21q-30 0 -51 21l-16 15q-17 9 -27.5 26.5t-10.5 37.5zM19 294q0 30 21.5 52t53.5 22q22 0 39.5 -11t27.5 -28l15 -15q21 -21 21 -50q0 -28 -21 -49t-52 -21q-30 0 -51 21
l-16 15q-17 9 -27.5 26.5t-10.5 37.5zM32 294q0 -24 18 -42t44 -18t44.5 18t18.5 42q0 25 -18.5 43t-44.5 18t-44 -18t-18 -43zM32 58q0 -24 18 -42t44 -18t44.5 18t18.5 42q0 25 -18.5 43t-44.5 18t-44 -18t-18 -43z" />
    <glyph glyph-name="FL003Bh" unicode=";" horiz-adv-x="219" 
d="M19 294q0 30 21.5 52t53.5 22q22 0 39.5 -11t27.5 -28l15 -15q21 -21 21 -50q0 -28 -21 -49t-52 -21q-30 0 -51 21l-16 15q-17 9 -27.5 26.5t-10.5 37.5zM19 58q0 30 21.5 52t53.5 22q22 0 39.5 -11t27.5 -28l15 -15q21 -21 21 -50v-1q0 -36 -23 -70.5t-66 -69.5l-28 28
q-4 -2 -5 -4v64l-2 2l-17 17q-17 8 -27 25t-10 39zM32 58q0 -24 16 -41.5t37 -17.5h3v-61q33 27 51 56t18 63v1q0 25 -18.5 43t-44.5 18t-44 -18t-18 -43zM32 294q0 -24 18 -42t44 -18t44.5 18t18.5 42q0 25 -18.5 43t-44.5 18t-44 -18t-18 -43z" />
    <glyph glyph-name="FL003Ch" unicode="&#x3c;" horiz-adv-x="361" 
d="M2 235l166 249h170l-3 -5l28 -28l-164 -246l164 -245h-164l-27 27h-4zM174 0h140l-157 235l157 236h-140l-157 -236z" />
    <glyph glyph-name="FL003Dh" unicode="=" horiz-adv-x="453" 
d="M25 252h-6v141h389q-2 -4 -2 -5l28 -28q-6 -17 -22.5 -40.5t-34.5 -44.5t-32.5 -35.5t-15.5 -14.5h-277zM25 77h-6v141h389q-2 -4 -2 -5l28 -28q-6 -17 -22.5 -40.5t-34.5 -44.5t-32.5 -35.5t-15.5 -14.5h-277zM299 90q1 0 13.5 12.5t28.5 30.5t30.5 37.5t19.5 34.5h-359
v-115h267zM299 265q1 0 13.5 12.5t28.5 30.5t30.5 37.5t19.5 34.5h-359v-115h267z" />
    <glyph glyph-name="FL003Eh" unicode="&#x3e;" horiz-adv-x="361" 
d="M157 0h-140l157 235l-157 236h140l157 -236zM28 -40h164l164 245l-164 246l-21 21l-8 12h-170l165 -250l-165 -247h8z" />
    <glyph glyph-name="FL003Fh" unicode="?" horiz-adv-x="550" 
d="M492 610q1 0 1 -1zM398 496h-10v-36l10 -10l-10 -10l-10 10h-237q-18 0 -34 -8.5t-28.5 -22t-19.5 -31t-7 -35.5v-217q17 14 35 32.5t34 37t27 33.5t14 22v75l-10 10l10 10l10 -10h238q19 0 35 8t28 21.5t18.5 31t6.5 35.5v119q0 15 -5 30t-13 28q-9 5 -19 8.5t-21 3.5
h-391q3 -11 11.5 -24.5t19 -27.5t22 -28t21.5 -25l-12 12q-10 10 -24 25t-27.5 32.5t-25 34.5t-15.5 31h391q17 0 31.5 -7t25.5 -18l17 -18l8 -8l1 -1l4 -3q14 -15 22.5 -35t8.5 -40v-119q0 -18 -6.5 -35.5t-18.5 -31t-28 -21.5t-35 -8h-248v-85q-2 -6 -10 -17t-19.5 -25
t-25.5 -29.5t-29 -29.5q34 -8 50 -37l15 -15q21 -21 21 -50q0 -28 -21 -49t-52 -21q-30 0 -51 21l-16 15q-17 9 -27.5 26.5t-10.5 37.5q0 27 17 47l-9 8q-2 -1 -3 -1t-2 -1v272q0 18 7.5 36t20 32.5t29 23t35.5 8.5h244v13h-201q-1 0 -13 12l-15 15h-2q-2 0 -16.5 15.5
t-33.5 37t-36 46t-23 42.5h395q19 0 36 -9t29 -24t19 -33.5t7 -36.5v-119q0 -19 -7 -36.5t-19 -31.5t-29 -22.5t-36 -8.5h-245v-83q-3 -8 -19 -28t-37.5 -43.5t-44.5 -44.5t-40 -31l-2 3v267q0 18 7 35.5t19.5 31t28.5 22t34 8.5h247v16h-3v27h-229l-3 3h235v10zM29 58
q0 -24 18 -42t44 -18t44.5 18t18.5 42q0 25 -18.5 43t-44.5 18t-44 -18t-18 -43zM111 470q-16 0 -30.5 -7.5t-25 -20t-17 -28t-6.5 -31.5v-252q13 6 32.5 24.5t38 39.5t32.5 40t17 27v94h258q16 0 30.5 7.5t25 19.5t16.5 27.5t6 31.5v119q0 16 -6 32t-16.5 29t-25 21
t-30.5 8h-378q5 -15 19.5 -34.5t30 -37.5t28 -30.5t14.5 -12.5h244v-66h-257z" />
    <glyph glyph-name="FL0040h" unicode="@" horiz-adv-x="667" 
d="M455 266q0 1 -1 1zM330 157h3v15h-3v-15zM192 273q7 14 20.5 27t24.5 13h161q12 0 25.5 -11.5t20.5 -24.5l10 -10l1 -1l3 -2q7 -8 14 -19v70h-280v-42zM225 44q-11 5 -19.5 16.5t-13.5 22.5v-70h351q-2 -4 -2 -5l28 -28q-6 -17 -22.5 -40.5t-34.5 -44.5t-32.5 -35.5
t-15.5 -14.5h-324q-17 0 -31.5 7t-25.5 18l-14 14q-23 14 -36.5 39t-13.5 51v406q0 18 7 36.5t19 33.5t28.5 24t36.5 9h417q23 0 41.5 -12.5t31.5 -31.5l14 -14q14 -15 22.5 -35t8.5 -40v-235q0 -18 -6.5 -36t-18.5 -32t-28 -23t-35 -9h-290q-14 0 -25 13zM346 212v-68h-56
v68h56zM434 -115q1 0 13.5 12.5t28.5 30.5t30.5 37.5t19.5 34.5h-374v355h333v-210h-48v114q0 6 -3.5 13t-9.5 13t-13 10.5t-13 4.5h-161q-5 0 -11.5 -4.5t-12 -11.5t-9.5 -14t-4 -11v-158q0 -5 3 -12.5t8.5 -15t12 -13t13.5 -5.5h290q16 0 30.5 8t25 21t16.5 29t6 32v235
q0 16 -6 32t-16.5 29t-25 21t-30.5 8h-417q-17 0 -31 -8t-24.5 -21t-16.5 -29t-6 -32v-406q0 -16 6 -32t16.5 -28.5t24.5 -20.5t31 -8h324z" />
    <glyph glyph-name="FL0041h" unicode="A" horiz-adv-x="533" 
d="M150 138q0 -6 1.5 -14.5t9.5 -8.5h190v155l-90 -92h-100q-7 0 -9 -8t-2 -15v-17zM351 355h-334q37 55 65 85t29 30h291q10 0 22.5 -7.5t22.5 -18t17 -22.5t7 -22v-330q0 -11 -7.5 -23t-18 -22.5t-22.5 -17.5t-22 -7h-300q-13 0 -25.5 6.5t-22.5 16.5t-16 22.5t-6 24.5
v150q0 11 6 24t15 24t19.5 18t19.5 7h260v62zM18 220v-150q0 -20 13 -40.5t33 -31.5l13 -13q11 -11 25 -18t29 -7h300q11 0 25 8t26 20t20.5 26t8.5 26v330q0 12 -8 26t-21 27l-4 3l-6 5q-12 20 -32.5 36t-37.5 16h-291l-10 -9.5t-26.5 -27.5t-37.5 -44t-44 -60h8l27 -27
h310v-9h-247q-11 0 -23.5 -8.5t-23.5 -21.5t-18.5 -28t-7.5 -28zM191 138h104l43 44v-54h-148v6q0 4 1 4zM478 426q0 1 -1 1z" />
    <glyph glyph-name="FL0042h" unicode="B" 
d="M32 650q38 -33 70.5 -75.5t49.5 -88.5q2 -4 5.5 -9.5t4.5 -5.5h263q10 0 21 -9.5t20 -22.5t14.5 -27t5.5 -22v-320q0 -10 -6 -22t-15.5 -22.5t-21 -18t-21.5 -7.5h-328q-9 0 -20 8.5t-20 19.5t-15.5 23t-6.5 19v580zM240 354q-29 24 -50 48t-38 48v-336h214v240h-126z
M19 652v-582q0 -7 5 -18t13.5 -22t18.5 -21t20 -16l11 -11q9 -9 19 -15.5t18 -6.5h328q12 0 25 8.5t24 20.5t18 26t7 25v320q0 13 -11 35t-27 38l-12 11q-11 17 -24.5 28.5t-26.5 11.5h-245q-14 31 -35 60t-46 55q-14 17 -29 33t-31 30zM264 316l6 -2h83v-187h-161v253
q9 -9 19 -18.5t22 -18.5v-1q8 -6 15 -13t16 -13zM216 359l16 -15q-5 4 -8.5 7.5z" />
    <glyph glyph-name="FL0043h" unicode="C" horiz-adv-x="505" 
d="M192 128h283q-2 -4 -2 -5l28 -28q-6 -17 -22.5 -40.5t-34.5 -44.5t-32.5 -35.5t-15.5 -14.5h-256q-17 0 -31.5 7t-25.5 18l-14 14q-23 14 -36.5 39t-13.5 51v291q0 18 7 36.5t19 33.5t28.5 24t36.5 9h365q-2 -4 -2 -5l28 -28q-6 -17 -22.5 -40.5t-34.5 -44.5t-32.5 -35.5
t-15.5 -14.5h-204v-187zM366 0q1 0 13.5 12.5t28.5 30.5t30.5 37.5t19.5 34.5h-306v240h214q1 0 13.5 12.5t28.5 30.5t30.5 37.5t19.5 34.5h-348q-17 0 -31 -8t-24.5 -21t-16.5 -29t-6 -32v-291q0 -16 6 -32t16.5 -28.5t24.5 -20.5t31 -8h256z" />
    <glyph glyph-name="FL0044h" unicode="D" 
d="M192 127h161v225q-19 -19 -41 -38h-120v-187zM499 670l27 -27v-603q0 -8 -7.5 -21.5t-18 -26.5t-23.5 -22.5t-23 -9.5h-328q-21 0 -44 23l-14 14q-19 12 -34 34t-15 39v320q0 10 7 26t17.5 31t23.5 26t26 11h258q0 2 1 3.5t2 3.5q18 48 56.5 97t88.5 91v-9zM486 650
q-38 -33 -70.5 -75.5t-49.5 -88.5q-2 -4 -5.5 -9.5t-4.5 -5.5h-263q-11 0 -21.5 -9.5t-19.5 -22.5t-14.5 -27t-5.5 -22v-320q0 -10 6 -22t15.5 -22.5t20.5 -18t22 -7.5h328q9 0 20 8.5t20 19.5t15.5 23t6.5 19v580zM278 354q29 24 50 48t38 48v-336h-214v240h126z" />
    <glyph glyph-name="FL0045h" unicode="E" horiz-adv-x="533" 
d="M353 332q0 6 -1.5 14.5t-9.5 8.5h-190v-155l90 92h100q7 0 9 8t2 15v17zM152 115h334q-37 -55 -65 -85t-29 -30h-291q-11 0 -23 7.5t-22 18t-17 22.5t-7 22v330q0 10 7.5 22.5t18 23t22.5 17.5t22 7h300q13 0 25.5 -6.5t22.5 -16.5t16 -22.5t6 -24.5v-150q0 -11 -6 -24
t-15 -24t-19.5 -18t-19.5 -7h-260v-62zM81 -13q11 -11 25 -19t25 -8h291l9.5 9t25.5 26t36 42.5t42 57.5l-29 28q1 2 2 2.5t2 2.5h-318v9h250q10 0 22.5 8t23 20.5t17.5 27t7 27.5v150q0 14 -7.5 29t-18.5 26l-14 13q-11 19 -30.5 32t-39.5 13h-300q-12 0 -26 -8.5t-27 -21
t-21.5 -27t-8.5 -26.5v-330q0 -17 15 -38t35 -33zM192 315h148v-6t1 -4h-104l-45 -47v57z" />
    <glyph glyph-name="FL0046h" unicode="F" horiz-adv-x="446" 
d="M416 483q-2 -4 -2 -5l28 -28q-6 -17 -22.5 -40.5t-34.5 -44.5t-32.5 -35.5t-15.5 -14.5h-145v-70h198q-2 -4 -2 -5l28 -28q-6 -17 -22.5 -40.5t-34.5 -44.5t-32.5 -35.5t-15.5 -14.5h-119v-156q-3 -8 -19.5 -29t-38 -44.5t-44 -44t-38.5 -27.5l-28 28q-4 -2 -5 -3v579
q0 18 7 36.5t19 33.5t28.5 24t36.5 9h306zM110 470q-17 0 -31 -8t-24.5 -21t-16.5 -29t-6 -32v-559q13 6 32.5 24.5t38 39.5t32.5 40t17 27v165h129q1 0 13.5 12.5t28.5 30.5t30.5 37.5t19.5 34.5h-221v123h155q1 0 13.5 12.5t28.5 30.5t30.5 37.5t19.5 34.5h-289z" />
    <glyph glyph-name="FL0047h" unicode="G" 
d="M192 130h161v186h-161v-186zM353 -52v53l-40 -41h-190q-17 0 -33 18l-13 13q-11 6 -21.5 17.5t-18.5 25t-13 26.5t-5 21v319q0 12 7.5 26t18.5 27t25 21.5t26 8.5h328q14 0 31.5 -14t29.5 -32l10 -10q13 -13 22 -28.5t9 -28.5v-499q0 -15 -5 -30.5t-14.5 -29t-22.5 -22
t-28 -8.5h-368l-27 27h-9q28 46 50.5 79.5t48.5 60.5h202zM152 356h214v-239h-214v239zM156 -65q-20 -20 -38.5 -48t-41.5 -66h350q13 0 24 7.5t19 19.5t12.5 26t4.5 27v499q0 10 -6.5 22t-15.5 22.5t-20 18t-20 7.5h-328q-11 0 -22 -7.5t-20.5 -18t-15.5 -22.5t-6 -22v-319
q0 -8 5.5 -22t14 -27t19.5 -22.5t22 -9.5h186l87 90v-155h-210z" />
    <glyph glyph-name="FL0048h" unicode="H" 
d="M483 436q1 0 1 -2zM165 667l27 -27v-157h233q14 0 28 -12.5t25 -29.5l5 -5l1 -2l4 -2q16 -16 27 -38t11 -35v-399h-140l-27 27h-6v326h-161v-222q-3 -8 -19.5 -29t-38 -44.5t-44 -44t-38.5 -27.5l-28 28q-4 -2 -5 -3v541q24 39 57 82t89 81v-8zM152 651
q-38 -26 -67 -65.5t-53 -77.5v-517q13 6 32.5 24.5t38 39.5t32.5 40t17 27v231h214v-353h120v389q0 8 -5.5 22t-14.5 27t-20 22.5t-21 9.5h-273v181z" />
    <glyph glyph-name="FL0049h" unicode="I" horiz-adv-x="214" 
d="M165 499l27 -27v-380q-3 -8 -19.5 -29t-38 -44.5t-44 -44t-38.5 -27.5l-28 28q-4 -2 -5 -3v368l21 28q24 32 52 67t73 73v-9zM152 479q-33 -29 -63 -68.5t-57 -74.5v-344q13 6 32.5 24.5t38 39.5t32.5 40t17 27v356z" />
    <glyph glyph-name="FL004Ah" unicode="J" horiz-adv-x="214" 
d="M165 671l27 -27v-176h-18l18 -18v-579q0 -15 -5 -30.5t-14 -29t-22 -22t-28 -8.5h-325l-27 27h-9q28 46 50.5 79.5t48.5 60.5h158v535h8l-12 12h-9l34 45q24 32 52 67t73 73v-9zM152 651q-33 -29 -63 -68.5t-57 -74.5h120v143zM-134 -65q-20 -20 -38.5 -48t-41.5 -66h307
q13 0 24 7.5t18.5 19.5t12 26t4.5 27v569h-120v-535h-166z" />
    <glyph glyph-name="FL004Bh" unicode="K" horiz-adv-x="533" 
d="M238 137h-46v-46q-3 -8 -19.5 -29t-38 -44.5t-44 -44t-38.5 -27.5l-28 28q-4 -2 -5 -3v541l21 28q24 32 52 67t73 73v-9l27 -27v-339h28l120 179h170l-3 -5l28 -28l-164 -246l164 -245h-164l-27 27h-4zM227 177l119 -177h140l-157 235l157 236h-140l-119 -179h-75v359
q-33 -29 -63 -68.5t-57 -74.5v-517q13 6 32.5 24.5t38 39.5t32.5 40t17 27v55h75z" />
    <glyph glyph-name="FL004Ch" unicode="L" horiz-adv-x="214" 
d="M165 671l27 -27v-545q-3 -8 -19.5 -29t-38 -44.5t-44 -44t-38.5 -27.5l-28 28q-4 -2 -5 -3v533l21 28q24 32 52 67t73 73v-9zM152 651q-33 -29 -63 -68.5t-57 -74.5v-509q13 6 32.5 24.5t38 39.5t32.5 40t17 27v521z" />
    <glyph glyph-name="FL004Dh" unicode="M" horiz-adv-x="693" 
d="M259 314h-67v-223q-3 -8 -19.5 -29t-38 -44.5t-44 -44t-38.5 -27.5l-28 28q-4 -2 -5 -3v419q0 10 7 26t17.5 31t23.5 26t26 11h477q13 0 26.5 -11.5t24.5 -28.5l12 -11q16 -16 27 -38t11 -35v-400h-140l-27 27h-6v327h-66v-225q-25 -41 -60.5 -77t-79.5 -72l-28 28
q-4 -2 -5 -4v350zM272 -9q35 29 65.5 60.5t54.5 70.5v232h119v-354h120v390q0 8 -5.5 22t-14.5 27t-20 22.5t-21 9.5h-477q-11 0 -21.5 -9.5t-19.5 -22.5t-14.5 -27t-5.5 -22v-399q13 6 32.5 24.5t38 39.5t32.5 40t17 27v232h120v-363z" />
    <glyph glyph-name="FL004Eh" unicode="N" 
d="M483 436q1 0 1 -2zM24 -26q-4 -2 -5 -3v418q0 10 7 26t17.5 31t23.5 26t26 11h332q14 0 28 -12.5t25 -29.5l5 -5l2 -2h-1l4 -2q16 -16 27 -38t11 -35v-399h-140l-27 27h-6v326h-161v-222q-3 -8 -19.5 -29t-38 -44.5t-44 -44t-38.5 -27.5zM366 353v-353h120v389
q0 8 -5.5 22t-14.5 27t-20 22.5t-21 9.5h-332q-11 0 -21.5 -9.5t-19.5 -22.5t-14.5 -27t-5.5 -22v-398q13 6 32.5 24.5t38 39.5t32.5 40t17 27v231h214z" />
    <glyph glyph-name="FL004Fh" unicode="O" 
d="M192 130h161v187h-161v-187zM19 401q0 9 7.5 23t19 27.5t24.5 23t24 9.5h328q16 0 33.5 -13.5t28.5 -31.5l12 -11q13 -13 21.5 -28.5t8.5 -28.5v-320q0 -9 -6.5 -24.5t-16.5 -30.5t-23 -25.5t-25 -10.5h-332q-8 0 -16.5 5t-16.5 13l-14 14q-11 6 -21 17.5t-18 24.5
t-13 26t-5 21v320zM152 357h214v-240h-214v240zM32 81q0 -8 5.5 -22t14.5 -27t19.5 -22.5t21.5 -9.5h332q10 0 21 9.5t20 22.5t14.5 27t5.5 22v320q0 10 -6 22t-15.5 22.5t-21 18t-21.5 7.5h-328q-9 0 -20 -8.5t-20 -19.5t-15.5 -23t-6.5 -19v-320z" />
    <glyph glyph-name="FL0050h" unicode="P" 
d="M366 357h-214v-336q22 29 44 53t45 43h125v240zM32 401q0 7 6.5 19t15.5 23t20 19.5t20 8.5h328q10 0 21.5 -7.5t21 -18t15.5 -22.5t6 -22v-320q0 -8 -5.5 -22t-14.5 -27t-20 -22.5t-21 -9.5h-263q-1 0 -4.5 -5.5t-5.5 -9.5q-17 -46 -49.5 -88.5t-70.5 -75.5v580z
M19 -208q1 2 5 4l28 -28q47 40 83.5 87.5t54.5 95.5l1 -1q2 2 3.5 4.5t-0.5 4.5l-1 1h262q12 0 25 10.5t23 25.5t16.5 30.5t6.5 24.5v320q0 13 -8.5 28.5t-21.5 28.5l-12 11q-11 18 -28.5 31.5t-33.5 13.5h-328q-11 0 -24 -9.5t-24.5 -23t-19 -27.5t-7.5 -23v-609zM192 317
h161v-187h-117q-23 -18 -44 -41v228z" />
    <glyph glyph-name="FL0051h" unicode="Q" 
d="M282 130q36 -30 71 -71v258h-161v-187h90zM76 -8q-11 6 -21 17.5t-18 24.5t-13 26t-5 21v320q0 12 7.5 26t18.5 27t25 21.5t26 8.5h328q14 0 31 -15.5t29 -32.5l7 -7q14 -14 24.5 -31t10.5 -27v-603l-14 12t-13 12q-45 38 -81 81.5t-56 86.5h-239q-8 0 -16.5 5t-16.5 13z
M152 357h214v-336q-22 29 -44 53t-45 43h-125v240zM486 401q0 7 -6.5 19t-15.5 23t-20 19.5t-20 8.5h-328q-11 0 -22 -7.5t-20.5 -18t-15.5 -22.5t-6 -22v-320q0 -8 5.5 -22t14.5 -27t19.5 -22.5t21.5 -9.5h263q1 0 4.5 -5.5t5.5 -9.5q17 -46 49.5 -88.5t70.5 -75.5v580z
" />
    <glyph glyph-name="FL0052h" unicode="R" horiz-adv-x="446" 
d="M399 470q-5 -15 -19.5 -34.5t-30.5 -37.5t-28.5 -30.5t-13.5 -12.5h-155v-225q-3 -8 -17 -27t-32.5 -40t-38 -39.5t-32.5 -24.5v381q0 16 6 32t16.5 29t24.5 21t31 8h289zM400 483h-290q-20 0 -36.5 -9t-28.5 -24t-19 -33.5t-7 -36.5v-401q1 1 5 3l28 -28q16 7 38.5 27.5
t44 44t38 44.5t19.5 29v216h145q1 0 15 13.5t31 32.5t33.5 40t21.5 36l-9 13l-20 20z" />
    <glyph glyph-name="FL0053h" unicode="S" horiz-adv-x="550" 
d="M69 176q-23 13 -36.5 37t-13.5 51v116q0 18 7 36.5t19 33.5t28.5 24t36.5 9h395q-2 -4 -2 -5l28 -28q-6 -17 -22.5 -40.5t-34.5 -44.5t-32.5 -35.5t-15.5 -14.5h-234v-9h217q23 0 43.5 -13.5t32.5 -34.5l12 -11q14 -14 22.5 -32.5t8.5 -38.5v-116q0 -18 -6.5 -36
t-18.5 -32t-28 -23t-35 -9h-391l-27 27h-7q6 18 23 42.5t36 46t33.5 37t16.5 15.5h231v10h-215q-17 0 -32 7t-26 18zM152 355h244q1 0 13.5 12.5t28.5 30.5t30.5 37.5t19.5 34.5h-378q-17 0 -31 -8t-24.5 -21t-16.5 -29t-6 -32v-116q0 -16 6 -31.5t16.5 -27.5t24.5 -19.5
t31 -7.5h258v-63h-244q-2 0 -14.5 -12.5t-28 -30.5t-30 -37.5t-19.5 -34.5h378q16 0 30.5 8t25 21t16.5 29t6 32v116q0 16 -6.5 31.5t-17 28t-25 20t-30.5 7.5h-257v62z" />
    <glyph glyph-name="FL0054h" unicode="T" horiz-adv-x="447" 
d="M165 671l27 -27v-161h225q-2 -4 -2 -5l28 -28q-6 -17 -22.5 -40.5t-34.5 -44.5t-32.5 -35.5t-15.5 -14.5h-146v-187h225q-2 -4 -2 -5l28 -28q-6 -17 -22.5 -40.5t-34.5 -44.5t-32.5 -35.5t-15.5 -14.5h-198q-17 0 -31.5 7t-25.5 18l-16 15q-22 14 -35 38.5t-13 50.5v423
l21 28q24 32 52 67t73 73v-9zM152 651q-33 -29 -63 -68.5t-57 -74.5v-419q0 -16 6 -32t16.5 -28.5t24.5 -20.5t31 -8h198q1 0 13.5 12.5t28.5 30.5t30.5 37.5t19.5 34.5h-248v240h156q1 0 13.5 12.5t28.5 30.5t30.5 37.5t19.5 34.5h-248v181z" />
    <glyph glyph-name="FL0055h" unicode="U" 
d="M165 478l27 -27v-321h161v222q3 7 19.5 28.5t38.5 45.5t46 45t42 29v-8l27 -27v-414q0 -9 -6.5 -24.5t-16.5 -30.5t-23 -25.5t-25 -10.5h-332q-8 0 -16.5 5t-16.5 13l-14 14q-11 6 -21 17.5t-18 24.5t-13 26t-5 21v403h146v-6zM152 117v354h-120v-390q0 -8 5.5 -22
t14.5 -27t19.5 -22.5t21.5 -9.5h332q10 0 21 9.5t20 22.5t14.5 27t5.5 22v399q-14 -6 -33.5 -24.5t-37.5 -40t-32 -40.5t-17 -26v-232h-214z" />
    <glyph glyph-name="FL0056h" unicode="V" horiz-adv-x="518" 
d="M153 484l2 -8l26 -25l71 -213l83 246h153l-2 -6l28 -27l-142 -430q-30 -43 -72 -61h-51q-26 13 -45 32l-6 6q-30 19 -48 50l-150 436h153zM17 471l143 -414q11 -20 27.5 -34.5t33.5 -22.5h47q19 8 35 21.5t31 35.5l137 414h-127l-100 -296l-100 296h-127z" />
    <glyph glyph-name="FL0057h" unicode="W" horiz-adv-x="693" 
d="M404 498l27 -27v-341h67v222q3 7 19.5 28.5t38.5 45.5t46 45t42 29v-8l27 -27v-414q0 -9 -6.5 -24.5t-16.5 -30.5t-23 -25.5t-25 -10.5h-477q-8 0 -16.5 5t-16.5 13l-14 14q-11 6 -21 17.5t-18 24.5t-13 26t-5 21v403h146v-6l27 -27v-321h66v224q25 41 63 79.5t83 73.5
v-9zM391 480q-34 -27 -65 -59.5t-55 -71.5v-232h-119v354h-120v-390q0 -8 5.5 -22t14.5 -27t19.5 -22.5t21.5 -9.5h477q10 0 21 9.5t20 22.5t14.5 27t5.5 22v399q-14 -6 -33.5 -24.5t-37.5 -40t-32 -40.5t-17 -26v-232h-120v363z" />
    <glyph glyph-name="FL0058h" unicode="X" horiz-adv-x="518" 
d="M163 484l8 -12l21 -21l55 -84l78 117h170l-3 -5l28 -28l-164 -246l164 -245h-164l-27 27h-4l-58 85l-75 -112h-164l-27 27h-8l165 247l-165 250h170zM17 471l157 -236l-157 -235h140l87 130l87 -130h140l-157 235l157 236h-140l-87 -131l-87 131h-140z" />
    <glyph glyph-name="FL0059h" unicode="Y" 
d="M353 -52v12h-230q-8 0 -16.5 5t-16.5 13l-14 14q-11 6 -21 17.5t-18 24.5t-13 26t-5 21v403h146v-6l27 -27v-321h161v222q3 7 19.5 28.5t38.5 45.5t46 45t42 29v-8l27 -27v-594q0 -15 -5 -30.5t-14.5 -29t-22.5 -22t-28 -8.5h-368l-27 27h-9q28 46 50.5 79.5t48.5 60.5
h202zM156 -65q-20 -20 -38.5 -48t-41.5 -66h350q13 0 24 7.5t19 19.5t12.5 26t4.5 27v579q-14 -6 -33.5 -24.5t-37.5 -40t-32 -40.5t-17 -26v-232h-214v354h-120v-390q0 -8 5.5 -22t14.5 -27t19.5 -22.5t21.5 -9.5h273v-65h-210z" />
    <glyph glyph-name="FL005Ah" unicode="Z" horiz-adv-x="550" 
d="M124 355q-2 0 -14.5 12.5t-28 30.5t-30 37.5t-19.5 34.5h382q16 0 29.5 -8t23.5 -21t15.5 -29t5.5 -32l-265 -265h173q1 0 13.5 -12.5t28.5 -30.5t30.5 -37.5t19.5 -34.5h-382q-16 0 -29.5 8t-23.5 21t-15.5 29t-5.5 32l263 265h-171zM528 346q0 23 -9 44.5t-24 36.5
l-12 12q-12 19 -29.5 31.5t-39.5 12.5h-399q6 -18 23 -42.5t36 -46t33.5 -37t16.5 -15.5h1l16 -15q12 -12 13 -12h83l-218 -220q0 -30 14.5 -57.5t38.5 -41.5l13 -13q23 -23 51 -23h395q-5 14 -16.5 31.5t-25.5 34.5t-28 32.5t-23 25.5q-17 19 -29 31.5t-13 12.5h-86z" />
    <glyph glyph-name="FL005Bh" unicode="[" horiz-adv-x="335" 
d="M192 13h123q-2 -4 -2 -5l28 -28q-6 -17 -22.5 -40.5t-34.5 -44.5t-32.5 -35.5t-15.5 -14.5h-184l-27 27h-6v728h296q-2 -4 -2 -5l28 -28q-6 -17 -22.5 -40.5t-34.5 -44.5t-32.5 -35.5t-15.5 -14.5h-44v-419zM206 -115q1 0 13.5 12.5t28.5 30.5t30.5 37.5t19.5 34.5h-146
v472h54q1 0 13.5 12.5t28.5 30.5t30.5 37.5t19.5 34.5h-266v-702h174z" />
    <glyph glyph-name="FL005Ch" unicode="\" 
d="M346 0l-314 471h140l314 -471h-140zM371 -40h164l-328 491l-21 21l-8 12h-170l332 -497h4z" />
    <glyph glyph-name="FL005Dh" unicode="]" horiz-adv-x="335" 
d="M99 -115q-1 0 -13.5 12.5t-28.5 30.5t-30.5 37.5t-19.5 34.5h146v472h-54q-1 0 -13.5 12.5t-28.5 30.5t-30.5 37.5t-19.5 34.5h266v-702h-174zM99 -128h2l17 -17q5 -5 8 -7.5l3 -2.5h184v722l-27 27v6h-296q6 -18 23.5 -42.5t36 -46t33.5 -37t16 -15.5h2l17 -17
q5 -5 8 -7.5l3 -2.5h11v-419h-150q6 -18 23.5 -42.5t36 -46t33.5 -37t16 -15.5z" />
    <glyph glyph-name="FL0061h" unicode="^" horiz-adv-x="518" 
d="M17 0l143 414q11 20 27.5 34.5t33.5 22.5h47q19 -8 35 -21.5t31 -35.5l137 -414h-127l-100 296l-100 -296h-127zM34 -40h147l81 242l73 -215h5l27 -27h147l-142 430q-11 15 -24 28l-5 4q-16 23 -34 38t-38 24h-53q-20 -10 -38 -25.5t-30 -35.5l-150 -436h7z" />
    <glyph glyph-name="FL005Fh" unicode="_" horiz-adv-x="486" 
d="M25 -13h-6v141h422q-2 -4 -2 -5l28 -28q-6 -17 -22.5 -40.5t-34.5 -44.5t-32.5 -35.5t-15.5 -14.5h-310zM332 0q1 0 13.5 12.5t28.5 30.5t30.5 37.5t19.5 34.5h-392v-115h300z" />
    <glyph glyph-name="FL0060h" unicode="`" horiz-adv-x="272" 
d="M225 522h-116l-92 121h116zM139 656h-148l112 -147h4l27 -27h141l-107 141l-16 16z" />
    <glyph glyph-name="a" unicode="a" horiz-adv-x="533" 
d="M150 138q0 -6 1.5 -14.5t9.5 -8.5h190v155l-90 -92h-100q-7 0 -9 -8t-2 -15v-17zM351 355h-334q37 55 65 85t29 30h291q10 0 22.5 -7.5t22.5 -18t17 -22.5t7 -22v-330q0 -11 -7.5 -23t-18 -22.5t-22.5 -17.5t-22 -7h-300q-13 0 -25.5 6.5t-22.5 16.5t-16 22.5t-6 24.5
v150q0 11 6 24t15 24t19.5 18t19.5 7h260v62zM18 220v-150q0 -20 13 -40.5t33 -31.5l13 -13q11 -11 25 -18t29 -7h300q11 0 25 8t26 20t20.5 26t8.5 26v330q0 12 -8 26t-21 27l-4 3l-6 5q-12 20 -32.5 36t-37.5 16h-291l-10 -9.5t-26.5 -27.5t-37.5 -44t-44 -60h8l27 -27
h310v-9h-247q-11 0 -23.5 -8.5t-23.5 -21.5t-18.5 -28t-7.5 -28zM191 138h104l43 44v-54h-148v6q0 4 1 4zM478 426q0 1 -1 1z" />
    <glyph glyph-name="FL0062h" unicode="b" 
d="M32 650q38 -33 70.5 -75.5t49.5 -88.5q2 -4 5.5 -9.5t4.5 -5.5h263q10 0 21 -9.5t20 -22.5t14.5 -27t5.5 -22v-320q0 -10 -6 -22t-15.5 -22.5t-21 -18t-21.5 -7.5h-328q-9 0 -20 8.5t-20 19.5t-15.5 23t-6.5 19v580zM240 354q-29 24 -50 48t-38 48v-336h214v240h-126z
M19 652v-582q0 -7 5 -18t13.5 -22t18.5 -21t20 -16l11 -11q9 -9 19 -15.5t18 -6.5h328q12 0 25 8.5t24 20.5t18 26t7 25v320q0 13 -11 35t-27 38l-12 11q-11 17 -24.5 28.5t-26.5 11.5h-245q-14 31 -35 60t-46 55q-14 17 -29 33t-31 30zM264 316l6 -2h83v-187h-161v253
q9 -9 19 -18.5t22 -18.5v-1q8 -6 15 -13t16 -13zM216 359l16 -15q-5 4 -8.5 7.5z" />
    <glyph glyph-name="FL0063h" unicode="c" horiz-adv-x="505" 
d="M192 128h283q-2 -4 -2 -5l28 -28q-6 -17 -22.5 -40.5t-34.5 -44.5t-32.5 -35.5t-15.5 -14.5h-256q-17 0 -31.5 7t-25.5 18l-14 14q-23 14 -36.5 39t-13.5 51v291q0 18 7 36.5t19 33.5t28.5 24t36.5 9h365q-2 -4 -2 -5l28 -28q-6 -17 -22.5 -40.5t-34.5 -44.5t-32.5 -35.5
t-15.5 -14.5h-204v-187zM366 0q1 0 13.5 12.5t28.5 30.5t30.5 37.5t19.5 34.5h-306v240h214q1 0 13.5 12.5t28.5 30.5t30.5 37.5t19.5 34.5h-348q-17 0 -31 -8t-24.5 -21t-16.5 -29t-6 -32v-291q0 -16 6 -32t16.5 -28.5t24.5 -20.5t31 -8h256z" />
    <glyph glyph-name="d" unicode="d" 
d="M192 127h161v225q-19 -19 -41 -38h-120v-187zM499 670l27 -27v-603q0 -8 -7.5 -21.5t-18 -26.5t-23.5 -22.5t-23 -9.5h-328q-21 0 -44 23l-14 14q-19 12 -34 34t-15 39v320q0 10 7 26t17.5 31t23.5 26t26 11h258q0 2 1 3.5t2 3.5q18 48 56.5 97t88.5 91v-9zM486 650
q-38 -33 -70.5 -75.5t-49.5 -88.5q-2 -4 -5.5 -9.5t-4.5 -5.5h-263q-11 0 -21.5 -9.5t-19.5 -22.5t-14.5 -27t-5.5 -22v-320q0 -10 6 -22t15.5 -22.5t20.5 -18t22 -7.5h328q9 0 20 8.5t20 19.5t15.5 23t6.5 19v580zM278 354q29 24 50 48t38 48v-336h-214v240h126z" />
    <glyph glyph-name="FL0065h" unicode="e" horiz-adv-x="533" 
d="M353 332q0 6 -1.5 14.5t-9.5 8.5h-190v-155l90 92h100q7 0 9 8t2 15v17zM152 115h334q-37 -55 -65 -85t-29 -30h-291q-11 0 -23 7.5t-22 18t-17 22.5t-7 22v330q0 10 7.5 22.5t18 23t22.5 17.5t22 7h300q13 0 25.5 -6.5t22.5 -16.5t16 -22.5t6 -24.5v-150q0 -11 -6 -24
t-15 -24t-19.5 -18t-19.5 -7h-260v-62zM81 -13q11 -11 25 -19t25 -8h291l9.5 9t25.5 26t36 42.5t42 57.5l-29 28q1 2 2 2.5t2 2.5h-318v9h250q10 0 22.5 8t23 20.5t17.5 27t7 27.5v150q0 14 -7.5 29t-18.5 26l-14 13q-11 19 -30.5 32t-39.5 13h-300q-12 0 -26 -8.5t-27 -21
t-21.5 -27t-8.5 -26.5v-330q0 -17 15 -38t35 -33zM192 315h148v-6t1 -4h-104l-45 -47v57z" />
    <glyph glyph-name="FL0066h" unicode="f" horiz-adv-x="446" 
d="M416 483q-2 -4 -2 -5l28 -28q-6 -17 -22.5 -40.5t-34.5 -44.5t-32.5 -35.5t-15.5 -14.5h-145v-70h198q-2 -4 -2 -5l28 -28q-6 -17 -22.5 -40.5t-34.5 -44.5t-32.5 -35.5t-15.5 -14.5h-119v-156q-3 -8 -19.5 -29t-38 -44.5t-44 -44t-38.5 -27.5l-28 28q-4 -2 -5 -3v579
q0 18 7 36.5t19 33.5t28.5 24t36.5 9h306zM110 470q-17 0 -31 -8t-24.5 -21t-16.5 -29t-6 -32v-559q13 6 32.5 24.5t38 39.5t32.5 40t17 27v165h129q1 0 13.5 12.5t28.5 30.5t30.5 37.5t19.5 34.5h-221v123h155q1 0 13.5 12.5t28.5 30.5t30.5 37.5t19.5 34.5h-289z" />
    <glyph glyph-name="FL0067h" unicode="g" 
d="M192 130h161v186h-161v-186zM353 -52v53l-40 -41h-190q-17 0 -33 18l-13 13q-11 6 -21.5 17.5t-18.5 25t-13 26.5t-5 21v319q0 12 7.5 26t18.5 27t25 21.5t26 8.5h328q14 0 31.5 -14t29.5 -32l10 -10q13 -13 22 -28.5t9 -28.5v-499q0 -15 -5 -30.5t-14.5 -29t-22.5 -22
t-28 -8.5h-368l-27 27h-9q28 46 50.5 79.5t48.5 60.5h202zM152 356h214v-239h-214v239zM156 -65q-20 -20 -38.5 -48t-41.5 -66h350q13 0 24 7.5t19 19.5t12.5 26t4.5 27v499q0 10 -6.5 22t-15.5 22.5t-20 18t-20 7.5h-328q-11 0 -22 -7.5t-20.5 -18t-15.5 -22.5t-6 -22v-319
q0 -8 5.5 -22t14 -27t19.5 -22.5t22 -9.5h186l87 90v-155h-210z" />
    <glyph glyph-name="FL0068h" unicode="h" 
d="M483 436q1 0 1 -2zM165 671l27 -27v-161h233q14 0 28 -12.5t25 -29.5l5 -5l1 -2l4 -2q16 -16 27 -38t11 -35v-399h-140l-27 27h-6v326h-161v-222q-3 -8 -19.5 -29t-38 -44.5t-44 -44t-38.5 -27.5l-28 28q-4 -2 -5 -3v541l21 28q24 32 52 67t73 73v-9zM152 651
q-33 -29 -63 -68.5t-57 -74.5v-517q13 6 32.5 24.5t38 39.5t32.5 40t17 27v231h214v-353h120v389q0 8 -5.5 22t-14.5 27t-20 22.5t-21 9.5h-273v181z" />
    <glyph glyph-name="i" unicode="i" horiz-adv-x="214" 
d="M152 130q-3 -8 -17 -27t-32.5 -40t-38 -39.5t-32.5 -24.5v471h120v-340zM32 508q27 35 57 74.5t63 68.5v-143h-120zM52 -46q16 7 38.5 27.5t44 44t38 44.5t19.5 29v351l-18 18h18v176l-27 27v9q-45 -38 -73 -73t-52 -67l-34 -45h9l12 -12h-8v-504q1 1 5 3z" />
    <glyph glyph-name="FL006Bh" unicode="j" horiz-adv-x="214" 
d="M165 671l27 -27v-176h-18l18 -18v-579q0 -15 -5 -30.5t-14 -29t-22 -22t-28 -8.5h-325l-27 27h-9q28 46 50.5 79.5t48.5 60.5h158v535h8l-12 12h-9l34 45q24 32 52 67t73 73v-9zM152 651q-33 -29 -63 -68.5t-57 -74.5h120v143zM-134 -65q-20 -20 -38.5 -48t-41.5 -66h307
q13 0 24 7.5t18.5 19.5t12 26t4.5 27v569h-120v-535h-166z" />
    <glyph glyph-name="FL0072h" unicode="k" horiz-adv-x="533" 
d="M238 137h-46v-46q-3 -8 -19.5 -29t-38 -44.5t-44 -44t-38.5 -27.5l-28 28q-4 -2 -5 -3v541l21 28q24 32 52 67t73 73v-9l27 -27v-339h28l120 179h170l-3 -5l28 -28l-164 -246l164 -245h-164l-27 27h-4zM227 177l119 -177h140l-157 235l157 236h-140l-119 -179h-75v359
q-33 -29 -63 -68.5t-57 -74.5v-517q13 6 32.5 24.5t38 39.5t32.5 40t17 27v55h75z" />
    <glyph glyph-name="FL006Ch" unicode="l" horiz-adv-x="214" 
d="M165 671l27 -27v-552q-3 -8 -19.5 -29t-38 -44.5t-44 -44t-38.5 -27.5l-28 28q-4 -2 -5 -3v540l21 28q24 32 52 67t73 73v-9zM152 651q-33 -29 -63 -68.5t-57 -74.5v-516q13 6 32.5 24.5t38 39.5t32.5 40t17 27v528z" />
    <glyph glyph-name="FL006Dh" unicode="m" horiz-adv-x="693" 
d="M259 314h-67v-223q-3 -8 -19.5 -29t-38 -44.5t-44 -44t-38.5 -27.5l-28 28q-4 -2 -5 -3v419q0 10 7 26t17.5 31t23.5 26t26 11h477q13 0 26.5 -11.5t24.5 -28.5l12 -11q16 -16 27 -38t11 -35v-400h-140l-27 27h-6v327h-66v-225q-25 -41 -60.5 -77t-79.5 -72l-28 28
q-4 -2 -5 -4v350zM272 -9q35 29 65.5 60.5t54.5 70.5v232h119v-354h120v390q0 8 -5.5 22t-14.5 27t-20 22.5t-21 9.5h-477q-11 0 -21.5 -9.5t-19.5 -22.5t-14.5 -27t-5.5 -22v-399q13 6 32.5 24.5t38 39.5t32.5 40t17 27v232h120v-363z" />
    <glyph glyph-name="FL006Eh" unicode="n" 
d="M483 436q1 0 1 -2zM24 -26q-4 -2 -5 -3v418q0 10 7 26t17.5 31t23.5 26t26 11h332q14 0 28 -12.5t25 -29.5l5 -5l2 -2h-1l4 -2q16 -16 27 -38t11 -35v-399h-140l-27 27h-6v326h-161v-222q-3 -8 -19.5 -29t-38 -44.5t-44 -44t-38.5 -27.5zM366 353v-353h120v389
q0 8 -5.5 22t-14.5 27t-20 22.5t-21 9.5h-332q-11 0 -21.5 -9.5t-19.5 -22.5t-14.5 -27t-5.5 -22v-398q13 6 32.5 24.5t38 39.5t32.5 40t17 27v231h214z" />
    <glyph glyph-name="FL006Fh" unicode="o" 
d="M192 130h161v187h-161v-187zM19 401q0 9 7.5 23t19 27.5t24.5 23t24 9.5h328q16 0 33.5 -13.5t28.5 -31.5l12 -11q13 -13 21.5 -28.5t8.5 -28.5v-320q0 -9 -6.5 -24.5t-16.5 -30.5t-23 -25.5t-25 -10.5h-332q-8 0 -16.5 5t-16.5 13l-14 14q-11 6 -21 17.5t-18 24.5
t-13 26t-5 21v320zM152 357h214v-240h-214v240zM32 81q0 -8 5.5 -22t14.5 -27t19.5 -22.5t21.5 -9.5h332q10 0 21 9.5t20 22.5t14.5 27t5.5 22v320q0 10 -6 22t-15.5 22.5t-21 18t-21.5 7.5h-328q-9 0 -20 -8.5t-20 -19.5t-15.5 -23t-6.5 -19v-320z" />
    <glyph glyph-name="FL0070h" unicode="p" 
d="M366 357h-214v-336q22 29 44 53t45 43h125v240zM32 401q0 7 6.5 19t15.5 23t20 19.5t20 8.5h328q10 0 21.5 -7.5t21 -18t15.5 -22.5t6 -22v-320q0 -8 -5.5 -22t-14.5 -27t-20 -22.5t-21 -9.5h-263q-1 0 -4.5 -5.5t-5.5 -9.5q-17 -46 -49.5 -88.5t-70.5 -75.5v580z
M19 -208q1 2 5 4l28 -28q47 40 83.5 87.5t54.5 95.5l1 -1q2 2 3.5 4.5t-0.5 4.5l-1 1h262q12 0 25 10.5t23 25.5t16.5 30.5t6.5 24.5v320q0 13 -8.5 28.5t-21.5 28.5l-12 11q-11 18 -28.5 31.5t-33.5 13.5h-328q-11 0 -24 -9.5t-24.5 -23t-19 -27.5t-7.5 -23v-609zM192 317
h161v-187h-117q-23 -18 -44 -41v228z" />
    <glyph glyph-name="FL0071h" unicode="q" 
d="M282 130q36 -30 71 -71v258h-161v-187h90zM76 -8q-11 6 -21 17.5t-18 24.5t-13 26t-5 21v320q0 12 7.5 26t18.5 27t25 21.5t26 8.5h328q14 0 31 -15.5t29 -32.5l7 -7q14 -14 24.5 -31t10.5 -27v-603l-14 12t-13 12q-45 38 -81 81.5t-56 86.5h-239q-8 0 -16.5 5t-16.5 13z
M152 357h214v-336q-22 29 -44 53t-45 43h-125v240zM486 401q0 7 -6.5 19t-15.5 23t-20 19.5t-20 8.5h-328q-11 0 -22 -7.5t-20.5 -18t-15.5 -22.5t-6 -22v-320q0 -8 5.5 -22t14.5 -27t19.5 -22.5t21.5 -9.5h263q1 0 4.5 -5.5t5.5 -9.5q17 -46 49.5 -88.5t70.5 -75.5v580z
" />
    <glyph glyph-name="r" unicode="r" horiz-adv-x="446" 
d="M399 470q-5 -15 -19.5 -34.5t-30.5 -37.5t-28.5 -30.5t-13.5 -12.5h-155v-225q-3 -8 -17 -27t-32.5 -40t-38 -39.5t-32.5 -24.5v381q0 16 6 32t16.5 29t24.5 21t31 8h289zM400 483h-290q-20 0 -36.5 -9t-28.5 -24t-19 -33.5t-7 -36.5v-401q1 1 5 3l28 -28q16 7 38.5 27.5
t44 44t38 44.5t19.5 29v216h145q1 0 15 13.5t31 32.5t33.5 40t21.5 36l-9 13l-20 20z" />
    <glyph glyph-name="FL0073h" unicode="s" horiz-adv-x="550" 
d="M69 176q-23 13 -36.5 37t-13.5 51v116q0 18 7 36.5t19 33.5t28.5 24t36.5 9h395q-2 -4 -2 -5l28 -28q-6 -17 -22.5 -40.5t-34.5 -44.5t-32.5 -35.5t-15.5 -14.5h-234v-9h217q23 0 43.5 -13.5t32.5 -34.5l12 -11q14 -14 22.5 -32.5t8.5 -38.5v-116q0 -18 -6.5 -36
t-18.5 -32t-28 -23t-35 -9h-391l-27 27h-7q6 18 23 42.5t36 46t33.5 37t16.5 15.5h231v10h-215q-17 0 -32 7t-26 18zM152 355h244q1 0 13.5 12.5t28.5 30.5t30.5 37.5t19.5 34.5h-378q-17 0 -31 -8t-24.5 -21t-16.5 -29t-6 -32v-116q0 -16 6 -31.5t16.5 -27.5t24.5 -19.5
t31 -7.5h258v-63h-244q-2 0 -14.5 -12.5t-28 -30.5t-30 -37.5t-19.5 -34.5h378q16 0 30.5 8t25 21t16.5 29t6 32v116q0 16 -6.5 31.5t-17 28t-25 20t-30.5 7.5h-257v62z" />
    <glyph glyph-name="FL0074h" unicode="t" horiz-adv-x="447" 
d="M165 671l27 -27v-161h225q-2 -4 -2 -5l28 -28q-6 -17 -22.5 -40.5t-34.5 -44.5t-32.5 -35.5t-15.5 -14.5h-146v-187h225q-2 -4 -2 -5l28 -28q-6 -17 -22.5 -40.5t-34.5 -44.5t-32.5 -35.5t-15.5 -14.5h-198q-17 0 -31.5 7t-25.5 18l-16 15q-22 14 -35 38.5t-13 50.5v423
l21 28q24 32 52 67t73 73v-9zM152 651q-33 -29 -63 -68.5t-57 -74.5v-419q0 -16 6 -32t16.5 -28.5t24.5 -20.5t31 -8h198q1 0 13.5 12.5t28.5 30.5t30.5 37.5t19.5 34.5h-248v240h156q1 0 13.5 12.5t28.5 30.5t30.5 37.5t19.5 34.5h-248v181z" />
    <glyph glyph-name="FL0075h" unicode="u" 
d="M165 478l27 -27v-321h161v222q3 7 19.5 28.5t38.5 45.5t46 45t42 29v-8l27 -27v-414q0 -9 -6.5 -24.5t-16.5 -30.5t-23 -25.5t-25 -10.5h-332q-8 0 -16.5 5t-16.5 13l-14 14q-11 6 -21 17.5t-18 24.5t-13 26t-5 21v403h146v-6zM152 117v354h-120v-390q0 -8 5.5 -22
t14.5 -27t19.5 -22.5t21.5 -9.5h332q10 0 21 9.5t20 22.5t14.5 27t5.5 22v399q-14 -6 -33.5 -24.5t-37.5 -40t-32 -40.5t-17 -26v-232h-214z" />
    <glyph glyph-name="FL0076h" unicode="v" horiz-adv-x="518" 
d="M153 484l2 -8l26 -25l71 -213l83 246h153l-2 -6l28 -27l-142 -430q-30 -43 -72 -61h-51q-26 13 -45 32l-6 6q-30 19 -48 50l-150 436h153zM17 471l143 -414q11 -20 27.5 -34.5t33.5 -22.5h47q19 8 35 21.5t31 35.5l137 414h-127l-100 -296l-100 296h-127z" />
    <glyph glyph-name="FL0077h" unicode="w" horiz-adv-x="693" 
d="M404 498l27 -27v-341h67v222q3 7 19.5 28.5t38.5 45.5t46 45t42 29v-8l27 -27v-414q0 -9 -6.5 -24.5t-16.5 -30.5t-23 -25.5t-25 -10.5h-477q-8 0 -16.5 5t-16.5 13l-14 14q-11 6 -21 17.5t-18 24.5t-13 26t-5 21v403h146v-6l27 -27v-321h66v224q25 41 63 79.5t83 73.5
v-9zM391 480q-34 -27 -65 -59.5t-55 -71.5v-232h-119v354h-120v-390q0 -8 5.5 -22t14.5 -27t19.5 -22.5t21.5 -9.5h477q10 0 21 9.5t20 22.5t14.5 27t5.5 22v399q-14 -6 -33.5 -24.5t-37.5 -40t-32 -40.5t-17 -26v-232h-120v363z" />
    <glyph glyph-name="FL0078h" unicode="x" horiz-adv-x="518" 
d="M163 484l8 -12l21 -21l55 -84l78 117h170l-3 -5l28 -28l-164 -246l164 -245h-164l-27 27h-4l-58 85l-75 -112h-164l-27 27h-8l165 247l-165 250h170zM17 471l157 -236l-157 -235h140l87 130l87 -130h140l-157 235l157 236h-140l-87 -131l-87 131h-140z" />
    <glyph glyph-name="FL0079h" unicode="y" 
d="M353 -52v12h-230q-8 0 -16.5 5t-16.5 13l-14 14q-11 6 -21 17.5t-18 24.5t-13 26t-5 21v403h146v-6l27 -27v-321h161v222q3 7 19.5 28.5t38.5 45.5t46 45t42 29v-8l27 -27v-594q0 -15 -5 -30.5t-14.5 -29t-22.5 -22t-28 -8.5h-368l-27 27h-9q28 46 50.5 79.5t48.5 60.5
h202zM156 -65q-20 -20 -38.5 -48t-41.5 -66h350q13 0 24 7.5t19 19.5t12.5 26t4.5 27v579q-14 -6 -33.5 -24.5t-37.5 -40t-32 -40.5t-17 -26v-232h-214v354h-120v-390q0 -8 5.5 -22t14.5 -27t19.5 -22.5t21.5 -9.5h273v-65h-210z" />
    <glyph glyph-name="FL007Ah" unicode="z" horiz-adv-x="550" 
d="M124 355q-2 0 -14.5 12.5t-28 30.5t-30 37.5t-19.5 34.5h382q16 0 29.5 -8t23.5 -21t15.5 -29t5.5 -32l-265 -265h173q1 0 13.5 -12.5t28.5 -30.5t30.5 -37.5t19.5 -34.5h-382q-16 0 -29.5 8t-23.5 21t-15.5 29t-5.5 32l263 265h-171zM528 346q0 23 -9 44.5t-24 36.5
l-12 12q-12 19 -29.5 31.5t-39.5 12.5h-399q6 -18 23 -42.5t36 -46t33.5 -37t16.5 -15.5h1l16 -15q12 -12 13 -12h83l-218 -220q0 -30 14.5 -57.5t38.5 -41.5l13 -13q23 -23 51 -23h395q-5 14 -16.5 31.5t-25.5 34.5t-28 32.5t-23 25.5q-17 19 -29 31.5t-13 12.5h-86z" />
    <glyph glyph-name="FL007Bh" unicode="{" horiz-adv-x="444" 
d="M219 -115q-17 0 -31 8t-24.5 20.5t-16.5 28.5t-6 32v203h-32q-1 0 -13.5 12.5t-28.5 30.5t-30.5 37.5t-19.5 34.5h124v205q0 16 6 32t16.5 29t24.5 21t31 8h188q-5 -15 -19.5 -34.5t-30.5 -37.5t-28.5 -30.5t-13.5 -12.5h-54v-472h146q-5 -15 -19.5 -34.5t-30.5 -37.5
t-28.5 -30.5t-13.5 -12.5h-96zM301 432h44q1 0 15.5 14.5t32.5 35.5t34.5 44.5t22.5 40.5l-28 28q0 1 2 5h-205q-20 0 -36.5 -9t-28.5 -24t-19 -33.5t-7 -36.5v-192h-128q6 -18 23.5 -42.5t36 -46t33.5 -37t16 -15.5h2l17 -17v-173q0 -26 13.5 -51t36.5 -39l14 -14
q11 -11 25.5 -18t31.5 -7h96q1 0 15.5 14.5t32.5 35.5t34.5 44.5t22.5 40.5l-28 28q0 1 2 5h-123v419z" />
    <glyph glyph-name="FL007Ch" unicode="|" horiz-adv-x="214" 
d="M165 773l27 -27v-806q-3 -8 -19.5 -29t-38 -44.5t-44 -44t-38.5 -27.5l-28 28q-4 -2 -5 -3v794l21 28q24 32 52 67t73 73v-9zM152 753q-33 -29 -63 -68.5t-57 -74.5v-770q13 6 32.5 24.5t38 39.5t32.5 40t17 27v782z" />
    <glyph glyph-name="FL007Dh" unicode="}" horiz-adv-x="444" 
d="M313 305h101q-2 -4 -2 -5l28 -28q-6 -17 -22.5 -40.5t-34.5 -44.5t-32.5 -35.5t-15.5 -14.5h-22v-193q0 -18 -6.5 -35.5t-18.5 -32t-28 -23t-35 -8.5h-96l-3 2.5t-8 7.5l-17 17h-2q-1 0 -16 15.5t-33.5 37t-36 46t-23.5 42.5h150v419h-11l-3 2.5t-8 7.5l-17 17h-2
q-1 0 -16 15.5t-33.5 37t-36 46t-23.5 42.5h205q23 0 41.5 -12.5t31.5 -31.5l14 -14q14 -15 22.5 -35t8.5 -40v-162zM195 -115q16 0 30.5 8t25 20.5t16.5 28.5t6 32v203h32q1 0 13.5 12.5t28.5 30.5t30.5 37.5t19.5 34.5h-124v205q0 16 -6 32t-16.5 29t-25 21t-30.5 8h-188
q5 -15 19.5 -34.5t30.5 -37.5t28.5 -30.5t13.5 -12.5h54v-472h-146q5 -15 19.5 -34.5t30.5 -37.5t28.5 -30.5t13.5 -12.5h96z" />
    <glyph glyph-name="FL007Eh" unicode="~" horiz-adv-x="444" 
d="M203 305l15 -19l14 -14l10 -13l37 46h144l-4 -5l28 -28l-104 -136h-101l-27 27h-4l-13 16l-34 -43h-137l-27 27h-9l109 142h103zM106 292l-89 -116h112l44 56l44 -56h91l89 116h-112l-43 -56l-45 56h-91z" />
    <glyph glyph-name="FL007Fh" horiz-adv-x="187" 
 />
    <glyph glyph-name="FL00A1h" unicode="&#xa1;" horiz-adv-x="219" 
d="M21 388q2 5 10 16t20 25.5t26.5 30t29.5 30.5q-20 5 -34 20l-16 16q-17 10 -27.5 27t-10.5 37q0 29 22 51t54 22q23 0 40.5 -11.5t26.5 -28.5l14 -14q21 -21 21 -49q0 -26 -16 -45l13 -13v-395l-20 -27q-24 -32 -52 -66.5t-68 -69.5l-28 28q-4 -2 -5 -4v420zM157 590
q0 24 -18 42t-44 18t-44.5 -18t-18.5 -42q0 -25 18.5 -43t44.5 -18t44 18t18 43zM34 -3q33 29 63 68.5t57 74.5v377q-13 -6 -32.5 -24.5t-38 -39.5t-32.5 -40t-17 -27v-389z" />
    <glyph glyph-name="FL00A2h" unicode="&#xa2;" horiz-adv-x="520" 
d="M192 178h2v87h-2v-87zM340 590l27 -27v-130h108q-2 -4 -2 -5l28 -28q-6 -17 -22.5 -40.5t-34.5 -44.5t-32.5 -35.5t-15.5 -14.5h-29v-87h108q-2 -4 -2 -5l28 -28q-6 -17 -22.5 -40.5t-34.5 -44.5t-32.5 -35.5t-15.5 -14.5h-29v-10q-3 -8 -19.5 -29t-38 -44.5t-44 -44
t-38.5 -27.5l-28 28q-4 -2 -5 -3v130h-54q-17 0 -31.5 7t-25.5 18l-14 14q-23 14 -36.5 39t-13.5 51v191q0 18 7 36.5t19 33.5t28.5 24t36.5 9h84v4q29 36 62 76t84 86v-9zM207 305v-140h-55v140h55zM327 571q-33 -29 -63 -66t-57 -72v-13h-97q-17 0 -31 -8t-24.5 -21
t-16.5 -29t-6 -32v-191q0 -16 6 -32t16.5 -28.5t24.5 -20.5t31 -8h97v-150q13 6 32.5 24.5t38 39.5t32.5 40t17 27v19h39q1 0 13.5 12.5t28.5 30.5t30.5 37.5t19.5 34.5h-131v140h39q1 0 13.5 12.5t28.5 30.5t30.5 37.5t19.5 34.5h-131v151z" />
    <glyph glyph-name="FL00A5h" unicode="&#xa3;" horiz-adv-x="567" 
d="M19 128h89v12h-56l-27 27h-6v140h89v73q0 18 7 36.5t19 33.5t28.5 24t36.5 9h178q-2 -4 -2 -5l28 -28q-6 -17 -22.5 -40.5t-34.5 -44.5t-32.5 -35.5t-15.5 -14.5h-17v-8h156q-2 -4 -2 -5l28 -28q-6 -17 -22.5 -40.5t-34.5 -44.5t-32.5 -35.5t-15.5 -14.5h-77v-11h241
q-2 -4 -2 -5l28 -28q-6 -17 -22.5 -40.5t-34.5 -44.5t-32.5 -35.5t-15.5 -14.5h-391l-27 27h-6v141zM121 180v-65h-89v-115h381q1 0 13.5 12.5t28.5 30.5t30.5 37.5t19.5 34.5h-264v64h87q1 0 13.5 12.5t28.5 30.5t30.5 37.5t19.5 34.5h-179v61h27q1 0 13.5 12.5t28.5 30.5
t30.5 37.5t19.5 34.5h-161q-17 0 -31 -8t-24.5 -21t-16.5 -29t-6 -32v-86h-89v-114h89z" />
    <glyph glyph-name="FL00A4h" unicode="&#xa4;" horiz-adv-x="518" 
d="M196 152h123v138h-123v-138zM45 365q0 9 9 26l-61 93h170l8 -13l21 -20l11 -17h88l34 50h170l-3 -5l28 -28l-60 -89q10 -17 10 -27v-255q0 -7 -3 -15t-7 -16l60 -89h-164l-27 27h-4l-13 19h-89l-31 -46h-163l-27 27h-9l61 92q-9 19 -9 31v255zM156 330h176v-191h-176v191
zM58 110q0 -11 11 -31l-52 -79h140l31 46h112l31 -46h140l-53 79q5 9 8.5 17.5t3.5 13.5v255q0 11 -11 28l52 78h-140l-33 -50h-108l-33 50h-140l53 -80q-12 -17 -12 -26v-255z" />
    <glyph glyph-name="FL00A9h" unicode="&#xa5;" horiz-adv-x="698" 
d="M353 -52v12h-230q-8 0 -16.5 5t-16.5 13l-14 14q-11 6 -21 17.5t-18 24.5t-13 26t-5 21v403h146v-6l27 -27v-321h161v222q3 7 19.5 28.5t38.5 45.5t46 45t42 29v-8l27 -27v-72h127q-2 -4 -2 -5l28 -28q-6 -17 -22.5 -40.5t-34.5 -44.5t-32.5 -35.5t-15.5 -14.5h-48v-7
h127q-2 -4 -2 -5l28 -28q-6 -17 -22.5 -40.5t-34.5 -44.5t-32.5 -35.5t-15.5 -14.5h-48v-179q0 -15 -5 -30.5t-14.5 -29t-22.5 -22t-28 -8.5h-368l-27 27h-9q28 46 50.5 79.5t48.5 60.5h202zM156 -65q-20 -20 -38.5 -48t-41.5 -66h350q13 0 24 7.5t19 19.5t12.5 26t4.5 27
v189h58q1 0 13.5 12.5t28.5 30.5t30.5 37.5t19.5 34.5h-150v60h58q1 0 13.5 12.5t28.5 30.5t30.5 37.5t19.5 34.5h-150v100q-14 -6 -33.5 -24.5t-37.5 -40t-32 -40.5t-17 -26v-232h-214v354h-120v-390q0 -8 5.5 -22t14.5 -27t19.5 -22.5t21.5 -9.5h273v-65h-210z" />
    <glyph glyph-name="FL00A6h" unicode="&#xa6;" horiz-adv-x="214" 
d="M165 773l27 -27v-806q-3 -8 -19.5 -29t-38 -44.5t-44 -44t-38.5 -27.5l-28 28q-4 -2 -5 -3v794l21 28q24 32 52 67t73 73v-9zM152 753q-33 -29 -63 -68.5t-57 -74.5v-770q13 6 32.5 24.5t38 39.5t32.5 40t17 27v782z" />
    <glyph glyph-name="FL00A7h" unicode="&#xa7;" horiz-adv-x="518" 
d="M196 152h123v138h-123v-138zM45 365q0 7 6.5 19t16 23t21 19t20.5 8h182l34 50h170l-3 -5l28 -28l-60 -89q10 -17 10 -27v-255q0 -8 -5.5 -20.5t-14 -24.5t-19.5 -20.5t-21 -8.5h-187l-31 -46h-163l-27 27h-9l61 92q-9 19 -9 31v255zM156 330h176v-191h-176v191zM58 110
q0 -11 11 -31l-52 -79h140l31 46h192q9 0 17.5 7.5t16 18t12 21.5t4.5 17v255q0 11 -11 28l52 78h-140l-33 -50h-189q-8 0 -16.5 -6.5t-16.5 -15.5t-13 -18.5t-5 -15.5v-255z" />
    <glyph glyph-name="FL00A8h" unicode="&#xa8;" horiz-adv-x="379" 
d="M180 568l-10 11l10 -12v1zM19 582q0 30 21.5 52t53.5 22q22 0 39.5 -11t27.5 -28l15 -15q1 -2 4 -5q5 25 25 42t49 17q22 0 39.5 -11t27.5 -28l15 -15q21 -21 21 -50q0 -28 -21 -49t-52 -21q-30 0 -51 21l-16 15q-12 6 -22 18q-6 -23 -25.5 -38.5t-45.5 -15.5
q-30 0 -51 21l-16 15q-17 9 -27.5 26.5t-10.5 37.5zM192 582q0 -24 18 -42t44 -18t44.5 18t18.5 42q0 25 -18.5 43t-44.5 18t-44 -18t-18 -43zM32 582q0 -24 18 -42t44 -18t44.5 18t18.5 42q0 25 -18.5 43t-44.5 18t-44 -18t-18 -43z" />
    <glyph glyph-name="copyright" unicode="&#xa9;" horiz-adv-x="288" 
d="M177 534q-9 -36 -48 -36q-23 0 -37 13.5t-14 42.5t14.5 41.5t38.5 12.5q35 0 43 -30l-15 -4q-9 20 -29 20q-15 0 -24.5 -10t-9.5 -31q0 -20 9.5 -30t23.5 -10q26 0 32 24zM125 635q-15 0 -29 -7t-24.5 -18t-16.5 -26t-6 -30q0 -35 22.5 -58t57.5 -23q48 0 70 40
q10 19 10 41q0 24 -10 40q-15 21 -30 31q-11 6 -20 8t-20 2h-4zM129 652q25 0 48 -14q24 -11 36 -36q13 -22 13 -48q0 -27 -13 -49q-13 -25 -35 -36q-22 -13 -49 -13q-26 0 -48 13q-11 8 -19 15.5t-16 20.5q-6 11 -10 23t-4 26q0 24 15 48q8 11 15 21t20 15q23 14 47 14z
M129 665q-30 0 -64 -21q-8 -5 -12.5 -12t-9.5 -14l-7 -9q-17 -28 -17 -55q0 -17 2.5 -28t7.5 -19q11 -17 21.5 -28.5t26.5 -22.5l11 -11q5 -5 10 -8.5t10 -7.5q22 -13 51 -13q32 0 54 14q23 12 39 40q14 22 14 54q0 31 -14 53h-1q-3 8 -6.5 13t-8.5 10l-14 14q-1 1 -3 5
q-12 17 -25 25q-35 21 -65 21zM151 552q-6 -19 -15 -25q1 20 15 25zM186 590q2 -4 5 -7q0 -1 0.5 -2t0.5 -2l-11 13q1 -1 2 -1t3 -1zM160 554h2l3 -4l-13 3q2 1 8 1z" />
    <glyph glyph-name="FL005Eh" unicode="&#xaa;" horiz-adv-x="518" 
d="M262 189l-21 -62h42zM7 -13h-7l143 433q17 24 35 39.5t39 24.5h53q19 -10 36 -24t29 -33l9 -8q12 -12 21 -27l149 -432h-480zM471 0l-143 414q-11 20 -27.5 34.5t-33.5 22.5h-47q-19 -8 -35 -21.5t-31 -35.5l-137 -414h133l94 289l57 -175h-55q-20 -20 -38.5 -48
t-41.5 -66h305z" />
    <glyph glyph-name="FL00ABh" unicode="&#xab;" horiz-adv-x="377" 
d="M166 194l15 -15v59l-34 -26l19 -14v-4zM19 313l147 112v-9l27 -27v-67l135 103v-9l27 -27v-141l-46 -36l19 -14v-4l27 -27v-141l-141 107l-17 17l-4 3v-127l-141 107l-16 16l-17 13v151zM32 168l121 -92v116l-59 45l59 46v116l-121 -92v-139zM194 168l121 -92v116l-59 45
l59 46v116l-121 -92v-139z" />
    <glyph glyph-name="FL00ACh" unicode="&#xac;" horiz-adv-x="487" 
d="M437 298l27 -27v-273h-135l-27 27h-6v111h-248l-27 27h-7q6 18 23.5 42.5t36 46t33.5 37t16 15.5h314v-6zM424 291h-301q-1 0 -13.5 -12.5t-28.5 -30.5t-30.5 -37.5t-19.5 -34.5h278v-138h115v253z" />
    <glyph glyph-name="FL00ADh" unicode="&#xad;" horiz-adv-x="341" 
d="M25 164h-6v141h277q-2 -4 -2 -5l28 -28q-6 -17 -22.5 -40.5t-34.5 -44.5t-32.5 -35.5t-15.5 -14.5h-165zM187 177q1 0 13.5 12.5t28.5 30.5t30.5 37.5t19.5 34.5h-247v-115h155z" />
    <glyph glyph-name="registered" unicode="&#xae;" horiz-adv-x="288" 
d="M124 559q17 0 21 4t4 12q0 9 -9 14q-1 1 -9 1h-28v-31h21zM87 605h36q20 0 27 -3t13 -11q5 -8 5 -15q0 -26 -30 -30q8 -2 11.5 -5.5t9.5 -14.5l16 -26h-21l-9 17q-11 19 -18 24q-3 3 -14 3h-10v-44h-16v105zM125 635q-15 0 -29 -7t-24.5 -18t-16.5 -26t-6 -30
q0 -23 10.5 -40.5t29.5 -29.5q20 -11 40 -11l41 11q17 8 29 29q10 19 10 41q0 24 -10 40q-11 21 -30 31q-11 6 -20 8t-20 2h-4zM129 652q26 0 48 -13q23 -12 36 -37q13 -22 13 -48q0 -27 -13 -49q-11 -23 -35 -36q-23 -12 -49 -12t-48 12q-11 8 -19 15.5t-16 20.5
q-6 11 -10 23t-4 26t4 25t10 23q8 13 15.5 22t20.5 14q26 14 47 14zM129 665q-12 0 -25.5 -4t-27.5 -12q-15 -7 -23.5 -17t-17.5 -23q-7 -14 -11.5 -26t-4.5 -29q0 -16 2.5 -25.5t6.5 -17.5q16 -24 26.5 -35.5t22.5 -20.5q2 -2 4 -2l10 -10l7.5 -7.5t8.5 -6.5q22 -12 52 -12
q31 0 54 13q13 8 22.5 17t15.5 23h1q14 22 14 54q0 31 -14 53q-8 13 -19 25l-11 10q-8 13 -18 22.5t-21 16.5h1q-22 14 -55 14zM185 590q1 -1 1 -2l1 -1q2 -2 2.5 -5t2.5 -5l-14 13q0 1 -1 1v1q2 0 8 -2zM144 490h-1v2z" />
    <glyph glyph-name="FL00AFh" unicode="&#xaf;" horiz-adv-x="486" 
d="M25 524h-6v141h422q-2 -4 -2 -5l28 -28q-6 -17 -22.5 -40.5t-34.5 -44.5t-32.5 -35.5t-15.5 -14.5h-310zM332 537q1 0 13.5 12.5t28.5 30.5t30.5 37.5t19.5 34.5h-392v-115h300z" />
    <glyph glyph-name="FL00B0h" unicode="&#xb0;" horiz-adv-x="219" 
d="M72 582q0 -9 6 -16t16 -7q9 0 15.5 7t6.5 16t-6.5 15.5t-15.5 6.5q-10 0 -16 -6.5t-6 -15.5zM32 582q0 25 18 43t44 18t44.5 -18t18.5 -43q0 -24 -18.5 -42t-44.5 -18t-44 18t-18 42zM19 582q0 -20 10.5 -37.5t27.5 -26.5l16 -15q21 -21 51 -21q31 0 52 21t21 49
q0 29 -21 50l-15 15q-10 17 -27.5 28t-39.5 11q-32 0 -53.5 -22t-21.5 -52zM116 542q-1 0 -1.5 0.5l-0.5 0.5z" />
    <glyph glyph-name="FL00B1h" unicode="&#xb1;" horiz-adv-x="488" 
d="M20 128h199q-23 20 -39.5 38t-20.5 23h-107l-27 27h-6v141h139v128h141v-6l27 -27v-95h116q-2 -4 -2 -5l28 -28q-6 -17 -22.5 -40.5t-34.5 -44.5t-32.5 -35.5t-15.5 -14.5h-37v-61h117q-2 -4 -2 -5l28 -28q-6 -17 -22.5 -40.5t-34.5 -44.5t-32.5 -35.5t-15.5 -14.5h-311
l-27 27h-6v141zM33 0h301q1 0 13.5 12.5t28.5 30.5t30.5 37.5t19.5 34.5h-140v114h47q1 0 13.5 12.5t28.5 30.5t30.5 37.5t19.5 34.5h-139v128h-115v-128h-139v-115h139v-38l8 -8.5t20 -20t27 -24.5t30 -23h-223v-115z" />
    <glyph glyph-name="FL00B2h" unicode="&#xb2;" horiz-adv-x="329" 
d="M190 580h-103q-1 0 -8.5 7.5t-17 19t-18 24t-11.5 21.5h187q19 0 32 -16.5t13 -34.5v-53q0 -19 -13 -34t-32 -15h-110v-11h103l7.5 -7.5t17 -19t18.5 -23.5t12 -21h-186q-20 0 -32.5 16t-12.5 35v53q0 18 13.5 33.5t31.5 15.5h109v10zM23 521v-53q0 -18 9 -34.5t26 -24.5
l17 -17q15 -15 36 -15h200q-3 9 -11 19.5t-18 20.5l-30 30q-4 3 -7 6l-6 6h10q23 0 39 18t16 41v53q0 26 -19 45l-3 2l1 -1q1 0 2 -1l-17 16q-8 14 -20.5 23.5t-28.5 9.5h-205q3 -9 9.5 -20t14.5 -22.5t17 -22t16 -18.5q-20 -5 -34 -23t-14 -38z" />
    <glyph glyph-name="FL00B4h" unicode="&#xb3;" horiz-adv-x="311" 
d="M204 665q17 0 29.5 -9t20.5 -23l16 -16q19 -19 19 -46v-133q0 -23 -15 -42t-40 -19h-185l-27 27h-7q3 11 12.5 26t20.5 29l-26 26h-7q3 11 12.5 26t20.5 29l-27 27h-7q4 13 15.5 30t23.5 32t22 25.5t12 10.5h117zM87 652q-2 0 -9.5 -7.5t-16.5 -19t-17.5 -24t-11.5 -21.5
h144v-11h-89q-2 0 -9.5 -7.5t-16.5 -19t-17.5 -23.5t-11.5 -21h144v-10h-89q-2 0 -9.5 -7.5t-16.5 -19t-17.5 -23.5t-11.5 -21h172q20 0 32.5 16t12.5 35v133q0 19 -12.5 35t-32.5 16h-117z" />
    <glyph glyph-name="FL00B5h" unicode="&#xb4;" horiz-adv-x="272" 
d="M103 656h148l-4 -5l28 -28l-107 -141h-141l-27 27h-9zM17 522h116l92 121h-116z" />
    <glyph glyph-name="FL00B6h" unicode="&#xb5;" horiz-adv-x="547" 
d="M362 -65q20 -20 38.5 -48t41.5 -66h-350q-13 0 -24 7.5t-19 19.5t-12.5 26t-4.5 27v579q14 -6 33.5 -24.5t37.5 -40t32 -40.5t17 -26v-232h214v354h120v-390q0 -8 -5.5 -22t-14.5 -27t-20 -22.5t-21 -9.5h-273v-65h210zM81 -200q8 -8 18.5 -13.5t22.5 -5.5h368
q-27 45 -48 77t-45 56q-12 16 -30 34h-175v12h263q12 0 25 10.5t23 25.5t16.5 30.5t6.5 24.5v400l-27 27v6h-146v-354h-161v191q-4 8 -22 31.5t-41 48.5q-25 29 -56 58.5t-54 40.5v-599q0 -23 12.5 -48.5t34.5 -37.5z" />
    <glyph glyph-name="FL0193h" unicode="&#xb6;" horiz-adv-x="1248" 
d="M479 243q0 10 -5 15q-8 15 -26 15q-22 0 -39 -38v-8q0 -29 22 -29q5 0 14 2t21 7q13 19 13 36zM774 281l-28 -40h44zM252 182l-29 -9l13 125l23 6zM370 276q-5 1 -7 1.5t0 0.5h-7q-17 0 -36 -16q-21 -26 -21 -49q0 -25 30 -25q8 0 14 0.5t11 1.5l2 -19q-10 -2 -16 -4
t-11 -2q-40 0 -54 53q-1 1 -1 9v7q0 57 100 72zM503 262q-14 -86 -52 -86q-12 -3 -22 -3q-37 0 -46 22q0 76 52 107q3 0 3.5 0.5l0.5 0.5h7q46 0 57 -41zM625 176q-31 0 -82 59v-58l-21 -4l-4 123l79 -78l3 86l25 -8v-120zM683 188l-33 -9l13 125l26 3zM797 187
q-10 28 -31 28q-18 0 -33 -28h-28q7 57 55 120q4 3 19 3q24 0 36 -39l2 -91zM942 180q-30 0 -82 61v-61l-21 -1l-2 122l77 -78l7 84l21 -5v-122zM978 154l-15 15l17 11l21 -7zM996 212l-20 3l4 92l32 -6zM1155 267l-125 54l78 21h9l-9 15l-177 34l63 40h-206l14 49l-198 -27
l-7 41l-16 7l-138 -62l-60 41l-83 -80q-12 -2 -16.5 -3.5t-1.5 -1.5q-27 0 -76 30l-14 -96l-98 6l6 -28l53 -62l-97 -6l129 -62l-85 -35l184 -36l-61 -40l214 -8l-25 -46l192 33l25 -27l-9 -29l153 69l69 -40l76 83l99 -29l7 98l101 -16q0 6 0.5 7.5l0.5 1.5q0 18 -61 82
l97 8zM1186 263q0 -1 -0.5 -2l-0.5 -1l-15 -29h-70l47 -54q2 -2 2 -7v-5q0 -25 -24 -31l-77 14l-8 -82q-8 -15 -29 -15q-17 0 -35.5 6.5t-44.5 20.5l-73 -75l-39 -8l-46 43l-144 -69l-25 6v43l-192 -29l-22 14l8 35l-199 15v25l24 23l-123 21q-23 0 -23 26l48 34l-84 36
l-9 35l83 14l-45 48l7 42l90 -9q0 98 35 98h4l86 -28q28 35 49.5 55t41.5 28l68 -41l137 61l32 -20l-7 -21l7 -7l153 28l53 -7l-7 -41h182l16 -14q0 -36 -31 -39l154 -37v-4v-4q0 -35 -56 -40q102 -33 102 -52zM1180 325v16l-27 27v6l-98 22q2 10 2 18l-27 27v4l-23 21h-141
l2 7l-27 27l1 6l-71 8l-127 -23l-11 11l2 5l-46 29l-137 -61l-67 41q-24 -10 -47 -29.5t-51 -53.5l-77 26h-8q-44 0 -48 -97l-88 9l-10 -60l33 -35l-74 -12l14 -55l8 -4l25 -24l24 -11l-22 -16q0 -36 22 -43l21 -21q6 -8 21 -8l58 -11v-30l6 -1l27 -26l157 -13l-1 -4l15 -9
l19 -19l32 -20l150 23v-8l8 -2l25 -25l36 -9l139 68l16 -15l2 1l29 -28l47 10l69 71q25 -13 43 -18.5t36 -5.5q27 0 39 23l7 72l68 -12q34 7 34 41v5q0 4 -1.5 8t-3.5 6h1l-32 37h53l18 34q2 4 2 8q0 7 -8 15l-20 19q-3 13 -29 28q11 11 11 30zM730 288l-28 27l1 6l-52 -5
l-3 -26l-10 11v5l-51 16l-2 -74l-81 80l1 -38q-18 26 -59 26h-20v-4q-6 -4 -10.5 -7.5t-9.5 -7.5l-18 18l1 7q-62 -11 -93 -30l-24 23l1 7l-40 -11l10 67q40 -23 69 -23v17l10 -10q3 -3 12 -2l80 77l58 -39l119 52l2 -11h5l28 -27l148 19l-4 -13h7l27 -27h101l-9 -6l12 -3
l27 -26l98 -20l-44 -11l15 -7l2 -2l-38 7l-1 -28l-12 12v5l-46 12l-6 -72l-79 81v-43l-4 3q-7 15 -18 22.5t-23 7.5q-18 0 -28 -7q-6 -8 -11.5 -16t-10.5 -16zM456 65l3 5l-130 4l10 7l-27 27l6 4l-109 22l18 7l14 -13l51 16l1 19q2 -2 3.5 -2.5t3.5 -2.5l18 -17
q16 -16 41 -16q7 0 18 4l5.5 1t14.5 3l-4 34l20 -19q15 -15 46 -15q12 0 24 3q19 0 34 20l25 -25l41 8v39l1 -1q43 -41 71 -41l6 6l7 -7l53 14l3 -2h45q13 26 26 28l25 -25l37 -14v5l2 -2l41 1v44l2 -2l4 -3q39 -39 66 -39l1 1l4 -4l2 2l27 -28l-1 -22l-91 27l-75 -82
l-65 39l-127 -58l-4 3l1 2l-36 39l-124 -22zM204 206l-48 55l-17 20l-3 13l86 -6l-12 -109l-51 24zM1110 170l-75 11l12 62q52 -57 63 -73zM1046 286l58 -26l-55 -4l5 23zM356 224l1 1q10 8 17 11q-4 -17 -4 -43l-4 4v8q-7 -2 -13 -2.5t-11 -1.5q4 10 14 23zM461 224
q-1 -2 -2 -3.5t-2 -3.5q-2 -2 -2 -1q4 6 6 8zM312 203l2 -3q-2 2 -2 3z" />
    <glyph glyph-name="FL00B7h" unicode="&#xb7;" horiz-adv-x="219" 
d="M19 235q0 30 21.5 52t53.5 22q22 0 39.5 -11t27.5 -28l15 -15q21 -21 21 -50q0 -28 -21 -49t-52 -21q-30 0 -51 21l-16 15q-17 9 -27.5 26.5t-10.5 37.5zM32 235q0 -24 18 -42t44 -18t44.5 18t18.5 42q0 25 -18.5 43t-44.5 18t-44 -18t-18 -43z" />
    <glyph glyph-name="FL00B8h" unicode="&#xb8;" horiz-adv-x="195" 
d="M-18 -114q-20 17 -38.5 38t-25.5 41h105v48h123v-6l27 -27v-155h-116l-6.5 4t-16.5 11.5t-22 17.5t-23 21zM36 -48h-101q5 -15 19.5 -30t30.5 -28t28.5 -21t13.5 -8h106v135h-97v-48z" />
    <glyph glyph-name="FL00B9h" unicode="&#xb9;" horiz-adv-x="166" 
d="M117 671l27 -27v-206q-2 -6 -13.5 -19t-25.5 -28t-29 -28t-24 -18l-28 28q-4 -2 -5 -3v200q12 23 37 49.5t61 61.5v-10zM104 651q-25 -24 -43 -43.5t-29 -41.5v-173q7 4 18.5 14.5t22.5 22.5t20 23t11 16v182z" />
    <glyph glyph-name="FL00BDh" unicode="&#xba;" horiz-adv-x="321" 
d="M145 502h27v39h-27v-39zM19 611q0 6 5.5 15t13 18t16 15t15.5 6h151q12 0 25 -11t21 -24l14 -14q8 -8 13.5 -17.5t5.5 -17.5v-148q0 -6 -4.5 -15.5t-11 -18.5t-15 -15.5t-17.5 -6.5h-152q-14 0 -25 13l-17 16q-16 8 -27 27t-11 30v148zM185 581v-92h-80v92h80zM32 463
q0 -5 3 -12.5t8.5 -15t12 -13t13.5 -5.5h152q7 0 13.5 5.5t12 13t9 15t3.5 12.5v148q0 6 -3.5 13t-9.5 13t-13 10.5t-13 4.5h-151q-5 0 -11.5 -4.5t-12 -11.5t-9.5 -14t-4 -11v-148z" />
    <glyph glyph-name="FL00BBh" unicode="&#xbb;" horiz-adv-x="377" 
d="M314 168l-121 -92v116l59 45l-59 46v116l121 -92v-139zM152 168l-121 -92v116l59 45l-59 46v116l121 -92v-139zM327 313l-147 112v-131l-15 15v4l-147 112v-148l18 -15l15 -14l16 -13l-49 -37v-148l5 4l28 -28l129 97v-73l5 4l28 -28l141 107v149l-27 27v4zM213 248
l16 -13l-37 -28v60l7 -5z" />
    <glyph glyph-name="FL00BCh" unicode="&#xbc;" horiz-adv-x="566" 
d="M167 521l27 -27v-162l88 152h158l-4 -6l28 -27l-136 -232h35v-6l27 -27v-48h27v6q3 5 13.5 18t25 27t31 26.5t30.5 15.5v-7l27 -27v-189q-2 -5 -13 -17.5t-25.5 -26.5t-29.5 -26.5t-26 -18.5l-28 28q-4 -2 -5 -3v68h-73q-12 0 -24 12l-18 17q-8 4 -15 11.5t-12 16
t-8 16.5t-3 14v7l-85 -146h-150l-27 27h-9l133 229q-9 -8 -16.5 -13.5t-12.5 -8.5l-28 27q-4 -2 -5 -3v200q11 21 27 38t36 36l17 17q5 5 13 12.5t10 9.5v-10zM504 214q-9 -2 -21 -12t-23 -22t-19.5 -23.5t-10.5 -15.5v-16h-80v81h-73v-107q0 -5 3 -13t8.5 -15.5t12 -13
t13.5 -5.5h116v-87q8 4 20 14.5t23.5 22.5t20 22.5t10.5 15.5v174zM154 500q-25 -24 -45.5 -43.5t-31.5 -41.5v-173q7 4 19 14.5t24.5 22.5t22 23t11.5 16v182zM143 0l273 471h-126l-273 -471h126z" />
    <glyph glyph-name="FL00BEh" unicode="&#xbd;" horiz-adv-x="566" 
d="M430 134h-103q-1 0 -8.5 7.5t-17 19t-18 24t-11.5 21.5h187q19 0 32 -16.5t13 -34.5v-53q0 -19 -13 -34t-32 -15h-110v-11h103l7.5 -7.5t17 -19t18.5 -23.5t12 -21h-186q-20 0 -32.5 16t-12.5 35v53q0 18 13.5 33.5t31.5 15.5h109v10zM416 471l-273 -471h-126l273 471
h126zM154 318q-2 -5 -12 -16t-22.5 -23t-25 -22.5t-19.5 -14.5v173q11 22 32.5 41.5t46.5 43.5v-182zM282 484l-88 -152v162l-27 27v10l-26 -26q-6 -6 -11.5 -11t-7.5 -7q-20 -17 -35 -33t-25 -36v-200q1 1 5 3l28 -27q5 3 14 9.5t19 15.5l-135 -232h9l27 -27h150l114 196
q10 -13 18 -20q-20 -5 -34 -23t-14 -38v-53q0 -17 9 -34t26 -25l17 -17q15 -15 36 -15h200q-3 9 -11 19.5t-18 20.5l-30 30q-4 3 -7 6l-6 6h10q23 0 39 18t16 41v53q0 26 -19 45l-17 16q-8 14 -20.5 23.5t-28.5 9.5h-130l135 232l-28 27l4 6h-158z" />
    <glyph glyph-name="FL0939h" unicode="&#xbe;" horiz-adv-x="649" 
d="M385 41q-8 4 -15 11.5t-12 16t-8 16.5t-3 14v7l-85 -146h-150l-27 27h-9l138 238h-165l-27 27h-7q3 11 12.5 26t20.5 29l-26 26h-7q3 11 12.5 26t20.5 29l-27 27h-7q4 13 15.5 30t23.5 32t22 25.5t12 10.5h117q17 0 30 -9.5t20 -23.5l14 -14q0 1 -1 1v1l3 -3
q19 -19 19 -46v-66l76 131h158l-4 -6l28 -27l-136 -232h35v-6l27 -27v-48h27v6q3 5 13.5 18t25 27t31 26.5t30.5 15.5v-7l27 -27v-189q-2 -5 -13 -17.5t-25.5 -26.5t-29.5 -26.5t-26 -18.5l-28 28q-4 -2 -5 -3v68h-73q-12 0 -24 12zM87 500q-2 0 -9.5 -7.5t-16.5 -19
t-17.5 -24t-11.5 -21.5h144v-11h-89q-2 0 -9.5 -7.5t-16.5 -19t-17.5 -23.5t-11.5 -21h144v-10h-89q-2 0 -9.5 -7.5t-16.5 -19t-17.5 -23.5t-11.5 -21h172q20 0 32.5 16t12.5 35v133q0 19 -12.5 35t-32.5 16h-117zM587 214q-9 -2 -21 -12t-23 -22t-19.5 -23.5t-10.5 -15.5
v-16h-80v81h-73v-107q0 -5 3 -13t8.5 -15.5t12 -13t13.5 -5.5h116v-87q8 4 20 14.5t23.5 22.5t20 22.5t10.5 15.5v174zM226 0l273 471h-126l-273 -471h126z" />
    <glyph glyph-name="FL00BFh" unicode="&#xbf;" horiz-adv-x="553" 
d="M391 528q-17 10 -27.5 27t-10.5 37q0 29 22 51t54 22q23 0 40.5 -11.5t26.5 -28.5l14 -14q21 -21 21 -49q0 -26 -16 -45l13 -13v-267q0 -18 -7 -35.5t-19.5 -31t-28.5 -22t-34 -8.5h-247v-13h204q1 0 14.5 -14t31.5 -34q10 -11 23.5 -26t26.5 -31.5t23.5 -33t15.5 -29.5
h-391q-17 0 -31.5 7t-25.5 18l-14 14q-23 14 -36.5 39.5t-13.5 51.5v119q0 18 7 36t19 32t28.5 22.5t36.5 8.5h245v83q2 5 10 16t20 25.5t26.5 30t29.5 30.5q-20 5 -34 20zM491 592q0 24 -18 42t-44 18t-44.5 -18t-18.5 -42q0 -25 18.5 -43t44.5 -18t44 18t18 43zM409 180
q16 0 30.5 7.5t25 20t17 28t6.5 31.5v252q-13 -6 -32.5 -24.5t-38 -39.5t-32.5 -40t-17 -27v-94h-258q-17 0 -31 -7.5t-24.5 -19.5t-16.5 -27.5t-6 -31.5v-119q0 -16 6 -32t16.5 -29t24.5 -21t31 -8h378q-5 15 -19.5 34.5t-30.5 37.5t-28.5 30.5t-13.5 12.5h-244v66h257z
" />
    <glyph glyph-name="FL00C0h" unicode="&#xc0;" horiz-adv-x="534" 
d="M478 427q1 0 1 -1zM192 138q-1 0 -1 -4v-6h148v54l-43 -44h-104zM120 656h148l13 -17l16 -16l106 -140q17 0 37 -16t33 -35l6 -6l4 -3q13 -13 21 -27t8 -26v-330q0 -12 -8.5 -26t-20.5 -26t-26 -20t-25 -8h-300q-15 0 -29 7t-25 18l-13 13q-20 11 -33 31.5t-13 40.5v150
q0 13 7.5 28t18.5 28t23.5 21.5t23.5 8.5h247v9h-310l-27 27h-8q23 34 44 60t37.5 44t26.5 27.5l10 9.5h150l-26 26h-4zM238 522h116l-92 121h-116zM92 293q-9 0 -19.5 -7t-19.5 -18t-15 -24t-6 -24v-150q0 -12 6 -24.5t16 -22.5t22.5 -16.5t25.5 -6.5h300q10 0 22 7
t22.5 17.5t18 22.5t7.5 23v330q0 10 -7 22t-17 22.5t-22.5 18t-22.5 7.5h-291q-1 0 -29 -30t-65 -85h334v-62h-260zM151 155q0 7 2 15t9 8h100l90 92v-155h-190q-8 0 -9.5 8.5t-1.5 14.5v17z" />
    <glyph glyph-name="FL00C1h" unicode="&#xc1;" horiz-adv-x="534" 
d="M478 427q1 0 1 -1zM192 138q-1 0 -1 -4v-6h148v54l-43 -44h-104zM250 656h148l-4 -5l28 -28l-106 -140h87q17 0 37 -16t33 -35l6 -6l4 -3q13 -13 21 -27t8 -26v-330q0 -12 -8.5 -26t-20.5 -26t-26 -20t-25 -8h-300q-15 0 -29 7t-25 18l-13 13q-20 11 -33 31.5t-13 40.5
v150q0 13 7.5 28t18.5 28t23.5 21.5t23.5 8.5h247v9h-310l-27 27h-8q23 34 44 60t37.5 44t26.5 27.5l10 9.5h61l-26 26h-9zM164 522h116l92 121h-116zM92 293q-9 0 -19.5 -7t-19.5 -18t-15 -24t-6 -24v-150q0 -12 6 -24.5t16 -22.5t22.5 -16.5t25.5 -6.5h300q10 0 22 7
t22.5 17.5t18 22.5t7.5 23v330q0 10 -7 22t-17 22.5t-22.5 18t-22.5 7.5h-291q-1 0 -29 -30t-65 -85h334v-62h-260zM151 155q0 7 2 15t9 8h100l90 92v-155h-190q-8 0 -9.5 8.5t-1.5 14.5v17z" />
    <glyph glyph-name="FL00C2h" unicode="&#xc2;" horiz-adv-x="534" 
d="M478 427q1 0 1 -1zM283 527l-34 -44h78l-25 25h-4zM192 138q-1 0 -1 -4v-6h148v54l-43 -44h-104zM334 655l13 -17l16 -16l107 -141h-55q16 -5 31.5 -19t26.5 -30l6 -6l4 -3q13 -13 21 -27t8 -26v-330q0 -12 -8.5 -26t-20.5 -26t-26 -20t-25 -8h-300q-15 0 -29 7t-25 18
l-13 13q-20 11 -33 31.5t-13 40.5v150q0 13 7.5 28t18.5 28t23.5 21.5t23.5 8.5h247v9h-310l-27 27h-8q41 60 74 95.5t41 43.5h-2l-27 27h-9l112 147h151zM189 642l-92 -121h116l45 59l46 -59h116l-92 121h-139zM92 293q-9 0 -19.5 -7t-19.5 -18t-15 -24t-6 -24v-150
q0 -12 6 -24.5t16 -22.5t22.5 -16.5t25.5 -6.5h300q10 0 22 7t22.5 17.5t18 22.5t7.5 23v330q0 10 -7 22t-17 22.5t-22.5 18t-22.5 7.5h-291q-1 0 -29 -30t-65 -85h334v-62h-260zM151 155q0 7 2 15t9 8h100l90 92v-155h-190q-8 0 -9.5 8.5t-1.5 14.5v17z" />
    <glyph glyph-name="FL00C3h" unicode="&#xc3;" horiz-adv-x="534" 
d="M478 427q1 0 1 -1zM248 526l-34 -43h78l-25 25h-4zM192 138q-1 0 -1 -4v-6h148v54l-43 -44h-104zM254 655l14 -19l15 -14l12 -17l38 50h148l-4 -5l28 -28l-106 -139h4q17 0 37.5 -16t32.5 -36l6 -5l4 -3q13 -13 21 -27t8 -26v-330q0 -12 -8.5 -26t-20.5 -26t-26 -20
t-25 -8h-300q-15 0 -29 7t-25 18l-13 13q-20 11 -33 31.5t-13 40.5v150q0 13 7.5 28t18.5 28t23.5 21.5t23.5 8.5h247v9h-310l-27 27h-8q41 60 74 95.5t41 43.5h-37l-27 27h-9l112 147h106zM154 642l-92 -121h116l45 58l46 -58h94l92 121h-116l-45 -59l-46 59h-94zM92 293
q-9 0 -19.5 -7t-19.5 -18t-15 -24t-6 -24v-150q0 -12 6 -24.5t16 -22.5t22.5 -16.5t25.5 -6.5h300q10 0 22 7t22.5 17.5t18 22.5t7.5 23v330q0 10 -7 22t-17 22.5t-22.5 18t-22.5 7.5h-291q-1 0 -29 -30t-65 -85h334v-62h-260zM151 155q0 7 2 15t9 8h100l90 92v-155h-190
q-8 0 -9.5 8.5t-1.5 14.5v17z" />
    <glyph glyph-name="FL00C4h" unicode="&#xc4;" horiz-adv-x="534" 
d="M478 427q1 0 1 -1zM264 568l-10 11l10 -12v1zM192 138q-1 0 -1 -4v-6h148v54l-43 -44h-104zM279 536q-5 -20 -20.5 -34.5t-37.5 -18.5h134q-11 2 -20.5 7t-17.5 13l-16 15q-12 6 -22 18zM103 582q0 30 21.5 52t53.5 22q22 0 39.5 -11t27.5 -28l15 -15q1 -2 4 -5
q5 25 25 42t49 17q22 0 39.5 -11t27.5 -28l15 -15q21 -21 21 -50q0 -26 -17.5 -45.5t-43.5 -23.5h23q17 0 37 -16t33 -35l6 -6l4 -3q13 -13 21 -27t8 -26v-330q0 -12 -8.5 -26t-20.5 -26t-26 -20t-25 -8h-300q-15 0 -29 7t-25 18l-13 13q-20 11 -33 31.5t-13 40.5v150
q0 13 7.5 28t18.5 28t23.5 21.5t23.5 8.5h247v9h-310l-27 27h-8q23 34 44 60t37.5 44t26.5 27.5l10 9.5h83q-11 2 -20.5 7t-17.5 13l-16 15q-17 9 -27.5 26.5t-10.5 37.5zM276 582q0 -24 18 -42t44 -18t44.5 18t18.5 42q0 25 -18.5 43t-44.5 18t-44 -18t-18 -43zM116 582
q0 -24 18 -42t44 -18t44.5 18t18.5 42q0 25 -18.5 43t-44.5 18t-44 -18t-18 -43zM92 293q-9 0 -19.5 -7t-19.5 -18t-15 -24t-6 -24v-150q0 -12 6 -24.5t16 -22.5t22.5 -16.5t25.5 -6.5h300q10 0 22 7t22.5 17.5t18 22.5t7.5 23v330q0 10 -7 22t-17 22.5t-22.5 18t-22.5 7.5
h-291q-1 0 -29 -30t-65 -85h334v-62h-260zM151 155q0 7 2 15t9 8h100l90 92v-155h-190q-8 0 -9.5 8.5t-1.5 14.5v17z" />
    <glyph glyph-name="FL00C5h" unicode="&#xc5;" horiz-adv-x="534" 
d="M237 582q0 -9 6 -16t16 -7q9 0 15.5 7t6.5 16t-6.5 15.5t-15.5 6.5q-10 0 -16 -6.5t-6 -15.5zM151 138q0 -6 1.5 -14.5t9.5 -8.5h190v155l-90 -92h-100q-7 0 -9 -8t-2 -15v-17zM352 355h-334q37 55 65 85t29 30h291q10 0 22.5 -7.5t22.5 -18t17 -22.5t7 -22v-330
q0 -11 -7.5 -23t-18 -22.5t-22.5 -17.5t-22 -7h-300q-13 0 -25.5 6.5t-22.5 16.5t-16 22.5t-6 24.5v150q0 11 6 24t15 24t19.5 18t19.5 7h260v62zM197 582q0 25 18 43t44 18t44.5 -18t18.5 -43q0 -24 -18.5 -42t-44.5 -18t-44 18t-18 42zM184 582q0 -20 10.5 -37.5
t27.5 -26.5l16 -15q8 -8 17.5 -13t20.5 -7h-164l-10 -9.5t-26.5 -27.5t-37.5 -44t-44 -60h8l27 -27h310v-9h-247q-11 0 -23.5 -8.5t-23.5 -21.5t-18.5 -28t-7.5 -28v-150q0 -20 13 -40.5t33 -31.5l13 -13q11 -11 25 -18t29 -7h300q11 0 25 8t26 20t20.5 26t8.5 26v330
q0 12 -8 26t-21 27l-2 1h1l-11 10q-13 19 -32 34t-36 15h-102q26 4 43.5 23.5t17.5 45.5q0 29 -21 50l-15 15q-10 17 -27.5 28t-39.5 11q-32 0 -53.5 -22t-21.5 -52zM192 138h104l43 44v-54h-148v6q0 4 1 4zM281 542q-1 0 -1.5 0.5l-0.5 0.5z" />
    <glyph glyph-name="FL00C6h" unicode="&#xc6;" horiz-adv-x="854" 
d="M802 429q1 0 1 -1zM192 138q-1 0 -1 -4v-6h148v54l-43 -44h-104zM513 315v-57l45 47h104q-1 1 -1 4v6h-148zM339 306v9h-310l-27 27h-8q23 34 44 60t37.5 44t26.5 27.5l10 9.5h611q21 0 40.5 -13.5t30.5 -32.5l8 -8l1 -1l4 -3q11 -11 18.5 -26t7.5 -29v-150
q0 -13 -7 -27.5t-17.5 -27t-23 -20.5t-22.5 -8h-250v-9h318q-1 -2 -2 -2.5t-2 -2.5l29 -28q-22 -32 -42 -57.5t-36 -42.5t-25.5 -26l-9.5 -9h-611q-15 0 -29 7t-25 18l-13 13q-20 11 -33 31.5t-13 40.5v150q0 13 7.5 28t18.5 28t23.5 21.5t23.5 8.5h247zM151 155q0 7 2 15
t9 8h100l90 92v-155h-190q-8 0 -9.5 8.5t-1.5 14.5v17zM674 315q0 -7 -2 -15t-9 -8h-100l-90 -92v155h190q8 0 9.5 -8.5t1.5 -14.5v-17zM92 293q-9 0 -19.5 -7t-19.5 -18t-15 -24t-6 -24v-150q0 -12 6 -24.5t16 -22.5t22.5 -16.5t25.5 -6.5h611q1 0 29 30t65 85h-334v62h260
q9 0 19.5 7t19.5 18t15 24t6 24v150q0 12 -6 24.5t-16 22.5t-22.5 16.5t-25.5 6.5h-611q-1 0 -29 -30t-65 -85h334v-62h-260z" />
    <glyph glyph-name="FL00C7h" unicode="&#xc7;" horiz-adv-x="520" 
d="M192 128h283q-2 -4 -2 -5l28 -28q-6 -17 -22.5 -40.5t-34.5 -44.5t-32.5 -35.5t-15.5 -14.5h-40v-135h-116l-6.5 4t-16.5 11.5t-22 17.5t-23 21l-7 7q-20 17 -38.5 38t-25.5 41h11q-17 7 -29 20l-14 14q-23 14 -36.5 39t-13.5 51v291q0 18 7 36.5t19 33.5t28.5 24t36.5 9
h365q-2 -4 -2 -5l28 -28q-6 -17 -22.5 -40.5t-34.5 -44.5t-32.5 -35.5t-15.5 -14.5h-204v-187zM219 0v-48h-101q5 -15 19.5 -30t30.5 -28t28.5 -21t13.5 -8h106v135h50q1 0 13.5 12.5t28.5 30.5t30.5 37.5t19.5 34.5h-306v240h214q1 0 13.5 12.5t28.5 30.5t30.5 37.5
t19.5 34.5h-348q-17 0 -31 -8t-24.5 -21t-16.5 -29t-6 -32v-291q0 -16 6 -32t16.5 -28.5t24.5 -20.5t31 -8h109z" />
    <glyph glyph-name="FL00C8h" unicode="&#xc8;" horiz-adv-x="533" 
d="M354 522h-116l-92 121h116zM353 332q0 6 -1.5 14.5t-9.5 8.5h-190v-155l90 92h100q7 0 9 8t2 15v17zM152 115h334q-37 -55 -65 -85t-29 -30h-291q-11 0 -23 7.5t-22 18t-17 22.5t-7 22v330q0 10 7.5 22.5t18 23t22.5 17.5t22 7h300q13 0 25.5 -6.5t22.5 -16.5t16 -22.5
t6 -24.5v-150q0 -11 -6 -24t-15 -24t-19.5 -18t-19.5 -7h-260v-62zM268 656h-148l112 -147h4l26 -26h-160q-12 0 -26 -8.5t-27 -21t-21.5 -27t-8.5 -26.5v-330q0 -17 15 -38t35 -33l12 -12q11 -11 25 -19t25 -8h291l9.5 9t25.5 26t36 42.5t42 57.5l-29 28q1 2 2 2.5t2 2.5
h-318v9h250q10 0 22.5 8t23 20.5t17.5 27t7 27.5v150q0 14 -7.5 29t-18.5 26l-14 13q-11 18 -30 31t-39 14l-106 140l-16 16zM192 315h148v-6t1 -4h-104l-45 -47v57z" />
    <glyph glyph-name="FL00C9h" unicode="&#xc9;" horiz-adv-x="533" 
d="M481 429q1 0 1 -1zM192 315v-57l45 47h104q-1 1 -1 4v6h-148zM250 656h148l-4 -5l28 -28l-106 -140h86q21 0 40.5 -13.5t30.5 -32.5l8 -8l1 -1l4 -3q11 -11 18.5 -26t7.5 -29v-150q0 -13 -7 -27.5t-17.5 -27t-23 -20.5t-22.5 -8h-250v-9h318q-1 -2 -2 -2.5t-2 -2.5
l29 -28q-22 -32 -42 -57.5t-36 -42.5t-25.5 -26l-9.5 -9h-291q-11 0 -25 8t-25 19l-12 12q-20 12 -35 33t-15 38v330q0 12 8.5 26.5t21.5 27t27 21t26 8.5h71l-26 26h-9zM164 522h116l92 121h-116zM412 177q9 0 19.5 7t19.5 18t15 24t6 24v150q0 12 -6 24.5t-16 22.5
t-22.5 16.5t-25.5 6.5h-300q-10 0 -22 -7t-22.5 -17.5t-18 -23t-7.5 -22.5v-330q0 -10 7 -22t17 -22.5t22 -18t23 -7.5h291q1 0 29 30t65 85h-334v62h260zM353 315q0 -7 -2 -15t-9 -8h-100l-90 -92v155h190q8 0 9.5 -8.5t1.5 -14.5v-17z" />
    <glyph glyph-name="FL00CAh" unicode="&#xca;" horiz-adv-x="533" 
d="M481 429q1 0 1 -1zM283 527l-34 -44h78l-25 25h-4zM192 315v-57l45 47h104q-1 1 -1 4v6h-148zM334 655l13 -17l16 -16l107 -141h-53q17 -5 32 -17t24 -27l8 -8l1 -1l4 -3q11 -11 18.5 -26t7.5 -29v-150q0 -13 -7 -27.5t-17.5 -27t-23 -20.5t-22.5 -8h-250v-9h318
q-1 -2 -2 -2.5t-2 -2.5l29 -28q-22 -32 -42 -57.5t-36 -42.5t-25.5 -26l-9.5 -9h-291q-11 0 -25 8t-25 19l-12 12q-20 12 -35 33t-15 38v330q0 12 8.5 26.5t21.5 27t27 21t26 8.5h3l-25 25h-9l112 147h151zM189 642l-92 -121h116l45 59l46 -59h116l-92 121h-139zM412 177
q9 0 19.5 7t19.5 18t15 24t6 24v150q0 12 -6 24.5t-16 22.5t-22.5 16.5t-25.5 6.5h-300q-10 0 -22 -7t-22.5 -17.5t-18 -23t-7.5 -22.5v-330q0 -10 7 -22t17 -22.5t22 -18t23 -7.5h291q1 0 29 30t65 85h-334v62h260zM353 315q0 -7 -2 -15t-9 -8h-100l-90 -92v155h190
q8 0 9.5 -8.5t1.5 -14.5v-17z" />
    <glyph glyph-name="FL00CBh" unicode="&#xcb;" horiz-adv-x="533" 
d="M481 429q1 0 1 -1zM264 568l-10 11l10 -12v1zM192 315v-57l45 47h104q-1 1 -1 4v6h-148zM279 536q-5 -20 -20.5 -34.5t-37.5 -18.5h134q-11 2 -20.5 7t-17.5 13l-16 15q-12 6 -22 18zM103 582q0 30 21.5 52t53.5 22q22 0 39.5 -11t27.5 -28l15 -15q1 -2 4 -5q5 25 25 42
t49 17q22 0 39.5 -11t27.5 -28l15 -15q21 -21 21 -50q0 -26 -17.5 -45.5t-43.5 -23.5h22q21 0 40.5 -13.5t30.5 -32.5l8 -8l1 -1l4 -3q11 -11 18.5 -26t7.5 -29v-150q0 -13 -7 -27.5t-17.5 -27t-23 -20.5t-22.5 -8h-250v-9h318q-1 -2 -2 -2.5t-2 -2.5l29 -28
q-22 -32 -42 -57.5t-36 -42.5t-25.5 -26l-9.5 -9h-291q-11 0 -25 8t-25 19l-12 12q-20 12 -35 33t-15 38v330q0 12 8.5 26.5t21.5 27t27 21t26 8.5h93q-11 2 -20.5 7t-17.5 13l-16 15q-17 9 -27.5 26.5t-10.5 37.5zM276 582q0 -24 18 -42t44 -18t44.5 18t18.5 42
q0 25 -18.5 43t-44.5 18t-44 -18t-18 -43zM116 582q0 -24 18 -42t44 -18t44.5 18t18.5 42q0 25 -18.5 43t-44.5 18t-44 -18t-18 -43zM412 177q9 0 19.5 7t19.5 18t15 24t6 24v150q0 12 -6 24.5t-16 22.5t-22.5 16.5t-25.5 6.5h-300q-10 0 -22 -7t-22.5 -17.5t-18 -23
t-7.5 -22.5v-330q0 -10 7 -22t17 -22.5t22 -18t23 -7.5h291q1 0 29 30t65 85h-334v62h260zM353 315q0 -7 -2 -15t-9 -8h-100l-90 -92v155h190q8 0 9.5 -8.5t1.5 -14.5v-17z" />
    <glyph glyph-name="FL00CCh" unicode="&#xcc;" horiz-adv-x="214" 
d="M-41 656h148l13 -17l16 -16l107 -141h-61l10 -10v-380q-3 -8 -19.5 -29t-38 -44.5t-44 -44t-38.5 -27.5l-28 28q-4 -2 -5 -3v368l21 28q20 26 42 54.5t54 59.5h-34l-27 27h-4zM77 522h116l-92 121h-116zM152 479q-33 -29 -63 -68.5t-57 -74.5v-344q13 6 32.5 24.5
t38 39.5t32.5 40t17 27v356z" />
    <glyph glyph-name="FL00CDh" unicode="&#xcd;" horiz-adv-x="214" 
d="M165 499l27 -27v-380q-3 -8 -19.5 -29t-38 -44.5t-44 -44t-38.5 -27.5l-28 28q-4 -2 -5 -3v368l21 28q20 26 42 54.5t54 59.5h-133l-27 27h-9l112 147h148l-4 -5l28 -28l-90 -119q1 1 1.5 2t2.5 2v-9zM-7 522h116l92 121h-116zM152 479q-33 -29 -63 -68.5t-57 -74.5v-344
q13 6 32.5 24.5t38 39.5t32.5 40t17 27v356z" />
    <glyph glyph-name="FL00CEh" unicode="&#xce;" horiz-adv-x="214" 
d="M168 656l13 -17l16 -16l107 -141h-122l10 -10v-380q-3 -8 -19.5 -29t-38 -44.5t-44 -44t-38.5 -27.5l-28 28q-4 -2 -5 -3v368l21 28q22 29 47 60.5t63 66.5l-14 14h-4l-15 19l-35 -46h-141l-27 27h-9l112 147h151zM23 643l-92 -121h116l45 59l46 -59h116l-92 121h-139z
M152 479q-33 -29 -63 -68.5t-57 -74.5v-344q13 6 32.5 24.5t38 39.5t32.5 40t17 27v356z" />
    <glyph glyph-name="FL00CFh" unicode="&#xcf;" horiz-adv-x="214" 
d="M-62 582q0 30 21.5 52t53.5 22q22 0 39.5 -11t27.5 -28l15 -15q1 -2 4 -5q5 25 25 42t49 17q22 0 39.5 -11t27.5 -28l15 -15q21 -21 21 -50q0 -28 -21 -49t-52 -21q-15 0 -26 4l15 -14v-380q-3 -8 -19.5 -29t-38 -44.5t-44 -44t-38.5 -27.5l-28 28q-4 -2 -5 -3v368l21 28
q23 30 49 63t66 68q-1 1 -1.5 2t-1.5 2l-16 15q-12 6 -22 18q-6 -23 -25.5 -38.5t-45.5 -15.5q-30 0 -51 21l-15 15q-18 9 -28.5 26.5t-10.5 37.5zM111 582q0 -24 18 -42t44 -18t44.5 18t18.5 42q0 25 -18.5 43t-44.5 18t-44 -18t-18 -43zM-49 582q0 -24 18 -42t44 -18
t44.5 18t18.5 42q0 25 -18.5 43t-44.5 18t-44 -18t-18 -43zM152 479q-33 -29 -63 -68.5t-57 -74.5v-344q13 6 32.5 24.5t38 39.5t32.5 40t17 27v356z" />
    <glyph glyph-name="FL00D0h" unicode="&#xd0;" horiz-adv-x="633" 
d="M277 305h148q-2 -4 -2 -6l15 -14v73l-41 -44h-120v-9zM277 137v-10h161v118q-11 -17 -26 -36t-29.5 -35t-25 -26.5t-12.5 -10.5h-68zM25 164h-6v141h85v85q0 10 7 26t17.5 31t23.5 26t26 11h258q0 2 1.5 4.5t2.5 4.5q18 47 56 95.5t88 90.5v-9l27 -27v-603
q0 -8 -7.5 -21.5t-18 -26.5t-23.5 -22.5t-23 -9.5h-328q-21 0 -44 23l-14 14q-19 12 -34 34t-15 39v67h-52zM451 450v-336h-214v63h78q2 0 15 13t29 31t30 37.5t18 33.5h-170v62h126zM117 177v-107q0 -10 6 -22t15.5 -22.5t20.5 -18t22 -7.5h328q9 0 20 8.5t20 19.5t15.5 23
t6.5 19v580q-38 -33 -70.5 -75.5t-49.5 -88.5q-2 -4 -5.5 -9.5t-4.5 -5.5h-263q-11 0 -21.5 -9.5t-19.5 -22.5t-14.5 -27t-5.5 -22v-98h-85v-115h85z" />
    <glyph glyph-name="FL00D1h" unicode="&#xd1;" 
d="M483 436q1 0 1 -2zM248 526l-34 -43h78l-25 25h-4zM254 655l14 -19l15 -14l12 -17l38 50h148l-4 -5l28 -28l-106 -139h26q14 0 28 -12.5t25 -29.5l5 -5l2 -2h-1l4 -2q16 -16 27 -38t11 -35v-399h-140l-27 27h-6v326h-161v-222q-3 -8 -19.5 -29t-38 -44.5t-44 -44
t-38.5 -27.5l-28 28q-4 -2 -5 -3v418q0 9 5.5 22.5t14.5 27.5t20 25.5t23 16.5h-10l-27 27h-9l112 147h106zM154 642l-92 -121h116l45 58l46 -58h94l92 121h-116l-45 -59l-46 59h-94zM366 353v-353h120v389q0 8 -5.5 22t-14.5 27t-20 22.5t-21 9.5h-332q-11 0 -21.5 -9.5
t-19.5 -22.5t-14.5 -27t-5.5 -22v-398q13 6 32.5 24.5t38 39.5t32.5 40t17 27v231h214z" />
    <glyph glyph-name="FL00D2h" unicode="&#xd2;" 
d="M354 522h-116l-92 121h116zM32 401q0 7 6.5 19t15.5 23t20 19.5t20 8.5h328q10 0 21.5 -7.5t21 -18t15.5 -22.5t6 -22v-320q0 -8 -5.5 -22t-14.5 -27t-20 -22.5t-21 -9.5h-332q-11 0 -21.5 9.5t-19.5 22.5t-14.5 27t-5.5 22v320zM366 357h-214v-240h214v240zM268 656
h-148l112 -147h4l25 -25h-167q-11 0 -24 -9.5t-24.5 -23t-19 -27.5t-7.5 -23v-320q0 -8 5 -21t13 -26t18 -24.5t21 -17.5l14 -14q8 -8 16.5 -13t16.5 -5h332q12 0 25 10.5t23 25.5t16.5 30.5t6.5 24.5v320q0 13 -8.5 28.5t-21.5 28.5l-12 11q-11 18 -28.5 31.5t-33.5 13.5
h-20l-105 139l-16 16zM192 317h161v-187h-161v187z" />
    <glyph glyph-name="FL00D3h" unicode="&#xd3;" 
d="M192 130h161v187h-161v-187zM250 656h148l-4 -5l28 -28l-106 -139h106q16 0 33.5 -13.5t28.5 -31.5l12 -11q13 -13 21.5 -28.5t8.5 -28.5v-320q0 -9 -6.5 -24.5t-16.5 -30.5t-23 -25.5t-25 -10.5h-332q-8 0 -16.5 5t-16.5 13l-14 14q-11 6 -21 17.5t-18 24.5t-13 26
t-5 21v320q0 9 7.5 23t19 27.5t24.5 23t24 9.5h78l-25 25h-9zM164 522h116l92 121h-116zM152 357h214v-240h-214v240zM32 81q0 -8 5.5 -22t14.5 -27t19.5 -22.5t21.5 -9.5h332q10 0 21 9.5t20 22.5t14.5 27t5.5 22v320q0 10 -6 22t-15.5 22.5t-21 18t-21.5 7.5h-328
q-9 0 -20 -8.5t-20 -19.5t-15.5 -23t-6.5 -19v-320z" />
    <glyph glyph-name="FL00D4h" unicode="&#xd4;" 
d="M283 527l-33 -43h76l-24 24h-4zM192 130h161v187h-161v-187zM334 655l13 -17l16 -16l107 -141h-34q14 -5 26.5 -16.5t21.5 -25.5l12 -11q13 -13 21.5 -28.5t8.5 -28.5v-320q0 -9 -6.5 -24.5t-16.5 -30.5t-23 -25.5t-25 -10.5h-332q-8 0 -16.5 5t-16.5 13l-14 14
q-11 6 -21 17.5t-18 24.5t-13 26t-5 21v320q0 9 7.5 23t19 27.5t24.5 23t24 9.5h10l-24 24h-9l112 147h151zM189 642l-92 -121h116l45 59l46 -59h116l-92 121h-139zM152 357h214v-240h-214v240zM32 81q0 -8 5.5 -22t14.5 -27t19.5 -22.5t21.5 -9.5h332q10 0 21 9.5t20 22.5
t14.5 27t5.5 22v320q0 10 -6 22t-15.5 22.5t-21 18t-21.5 7.5h-328q-9 0 -20 -8.5t-20 -19.5t-15.5 -23t-6.5 -19v-320z" />
    <glyph glyph-name="FL00D5h" unicode="&#xd5;" 
d="M248 526l-33 -42h76l-24 24h-4zM192 130h161v187h-161v-187zM254 655l14 -19l15 -14l12 -17l38 50h148l-4 -5l28 -28l-105 -138h22q16 0 33.5 -13.5t28.5 -31.5l12 -11q13 -13 21.5 -28.5t8.5 -28.5v-320q0 -9 -6.5 -24.5t-16.5 -30.5t-23 -25.5t-25 -10.5h-332
q-8 0 -16.5 5t-16.5 13l-14 14q-11 6 -21 17.5t-18 24.5t-13 26t-5 21v320q0 7 5.5 19t14.5 24t20 22t22 15h-9l-27 27h-9l112 147h106zM154 642l-92 -121h116l45 58l46 -58h94l92 121h-116l-45 -59l-46 59h-94zM152 357h214v-240h-214v240zM32 81q0 -8 5.5 -22t14.5 -27
t19.5 -22.5t21.5 -9.5h332q10 0 21 9.5t20 22.5t14.5 27t5.5 22v320q0 10 -6 22t-15.5 22.5t-21 18t-21.5 7.5h-328q-9 0 -20 -8.5t-20 -19.5t-15.5 -23t-6.5 -19v-320z" />
    <glyph glyph-name="FL00D6h" unicode="&#xd6;" 
d="M264 568l-10 11l10 -12v1zM279 536q-5 -19 -19 -33t-34 -19h124q-18 4 -33 19l-16 15q-12 6 -22 18zM192 130h161v187h-161v-187zM103 582q0 30 21.5 52t53.5 22q22 0 39.5 -11t27.5 -28l15 -15q1 -2 4 -5q5 25 25 42t49 17q22 0 39.5 -11t27.5 -28l15 -15q21 -21 21 -50
q0 -24 -15.5 -43t-39.5 -25h36q16 0 33.5 -13.5t28.5 -31.5l12 -11q13 -13 21.5 -28.5t8.5 -28.5v-320q0 -9 -6.5 -24.5t-16.5 -30.5t-23 -25.5t-25 -10.5h-332q-8 0 -16.5 5t-16.5 13l-14 14q-11 6 -21 17.5t-18 24.5t-13 26t-5 21v320q0 9 7.5 23t19 27.5t24.5 23t24 9.5
h96q-18 4 -33 19l-16 15q-17 9 -27.5 26.5t-10.5 37.5zM276 582q0 -24 18 -42t44 -18t44.5 18t18.5 42q0 25 -18.5 43t-44.5 18t-44 -18t-18 -43zM116 582q0 -24 18 -42t44 -18t44.5 18t18.5 42q0 25 -18.5 43t-44.5 18t-44 -18t-18 -43zM152 357h214v-240h-214v240zM32 81
q0 -8 5.5 -22t14.5 -27t19.5 -22.5t21.5 -9.5h332q10 0 21 9.5t20 22.5t14.5 27t5.5 22v320q0 10 -6 22t-15.5 22.5t-21 18t-21.5 7.5h-328q-9 0 -20 -8.5t-20 -19.5t-15.5 -23t-6.5 -19v-320z" />
    <glyph glyph-name="FL00D7h" unicode="&#xd7;" horiz-adv-x="423" 
d="M98 431l98 -98l98 98l99 -100l-2 -2l28 -28l-95 -95l74 -75q-1 -1 -3 -1l28 -28q-16 -8 -36.5 -12.5t-41 -6.5t-39.5 -3t-31 -1h-19l-28 27h-3h-1l-100 -100l-28 28l-3 -3q-8 18 -13 39t-7.5 42t-3.5 40t-1 32v21l29 29l-98 98zM196 315l-98 98l-81 -81l98 -98l-34 -34
v-16q0 -12 0.5 -30t2 -36.5t5 -36t8.5 -28.5l99 99l34 -33h15q12 0 29.5 0.5t36.5 2t36.5 5t28.5 8.5l-98 99l97 97l-81 82z" />
    <glyph glyph-name="FL00D8h" unicode="&#xd8;" 
d="M353 130v42l-30 -42h30zM192 259l37 58h-37v-58zM19 401q0 9 7.5 23t19 27.5t24.5 23t24 9.5h328q16 0 33.5 -13.5t28.5 -31.5l12 -11q13 -13 21.5 -28.5t8.5 -28.5v-320q0 -9 -6.5 -24.5t-16.5 -30.5t-23 -25.5t-25 -10.5h-332q-8 0 -16.5 5t-16.5 13l-14 14
q-11 6 -21 17.5t-18 24.5t-13 26t-5 21v320zM366 283v-166h-114zM271 357l-119 -183v183h119zM32 81q0 -8 5.5 -22t14.5 -27t19.5 -22.5t21.5 -9.5h332q10 0 21 9.5t20 22.5t14.5 27t5.5 22v320q0 10 -6 22t-15.5 22.5t-21 18t-21.5 7.5h-328q-9 0 -20 -8.5t-20 -19.5
t-15.5 -23t-6.5 -19v-320z" />
    <glyph glyph-name="FL00D9h" unicode="&#xd9;" 
d="M354 522h-116l-92 121h116zM366 349q3 7 17 26t32 40.5t37.5 40t33.5 24.5v-399q0 -8 -5.5 -22t-14.5 -27t-20 -22.5t-21 -9.5h-332q-11 0 -21.5 9.5t-19.5 22.5t-14.5 27t-5.5 22v390h120v-354h214v232zM353 350v-220h-161v321l-27 27v6h-146v-403q0 -8 5 -21t13 -26
t18 -24.5t21 -17.5l14 -14q8 -8 16.5 -13t16.5 -5h332q12 0 25 10.5t23 25.5t16.5 30.5t6.5 24.5v414l-27 27v8q-18 -8 -41.5 -29t-45.5 -44.5t-38.5 -44.5t-19.5 -28zM268 656h-148l112 -147h4l27 -27h141l-107 141l-16 16z" />
    <glyph glyph-name="FL00DAh" unicode="&#xda;" 
d="M250 656h148l-4 -5l28 -28l-107 -141h-141l-27 27h-9zM165 478l27 -27v-321h161v222q3 7 19.5 28.5t38.5 45.5t46 45t42 29v-8l27 -27v-414q0 -9 -6.5 -24.5t-16.5 -30.5t-23 -25.5t-25 -10.5h-332q-8 0 -16.5 5t-16.5 13l-14 14q-11 6 -21 17.5t-18 24.5t-13 26t-5 21
v403h146v-6zM164 522h116l92 121h-116zM152 117v354h-120v-390q0 -8 5.5 -22t14.5 -27t19.5 -22.5t21.5 -9.5h332q10 0 21 9.5t20 22.5t14.5 27t5.5 22v399q-14 -6 -33.5 -24.5t-37.5 -40t-32 -40.5t-17 -26v-232h-214z" />
    <glyph glyph-name="FL00DBh" unicode="&#xdb;" 
d="M192 130h161v222q2 6 13.5 21.5t28 34.5t36.5 39t38 34h-140l-27 27h-4l-15 19l-35 -46h-83v-3l27 -27v-321zM334 655l13 -17l16 -16l106 -141q15 12 30 19v-8l27 -27v-414q0 -9 -6.5 -24.5t-16.5 -30.5t-23 -25.5t-25 -10.5h-332q-8 0 -16.5 5t-16.5 13l-14 14
q-11 6 -21 17.5t-18 24.5t-13 26t-5 21v403h85l-24 24h-9l112 147h151zM189 642l-92 -121h116l45 59l46 -59h116l-92 121h-139zM152 117v354h-120v-390q0 -8 5.5 -22t14.5 -27t19.5 -22.5t21.5 -9.5h332q10 0 21 9.5t20 22.5t14.5 27t5.5 22v399q-14 -6 -33.5 -24.5
t-37.5 -40t-32 -40.5t-17 -26v-232h-214z" />
    <glyph glyph-name="FL00DCh" unicode="&#xdc;" 
d="M264 568l-10 11l10 -12v1zM103 582q0 30 21.5 52t53.5 22q22 0 39.5 -11t27.5 -28l15 -15q1 -2 4 -5q5 25 25 42t49 17q22 0 39.5 -11t27.5 -28l15 -15q21 -21 21 -50q0 -28 -21 -49t-52 -21q-30 0 -51 21l-16 15q-12 6 -22 18q-6 -23 -25.5 -38.5t-45.5 -15.5
q-30 0 -51 21l-16 15q-17 9 -27.5 26.5t-10.5 37.5zM165 478l27 -27v-321h161v222q3 7 19.5 28.5t38.5 45.5t46 45t42 29v-8l27 -27v-414q0 -9 -6.5 -24.5t-16.5 -30.5t-23 -25.5t-25 -10.5h-332q-8 0 -16.5 5t-16.5 13l-14 14q-11 6 -21 17.5t-18 24.5t-13 26t-5 21v403
h146v-6zM276 582q0 -24 18 -42t44 -18t44.5 18t18.5 42q0 25 -18.5 43t-44.5 18t-44 -18t-18 -43zM116 582q0 -24 18 -42t44 -18t44.5 18t18.5 42q0 25 -18.5 43t-44.5 18t-44 -18t-18 -43zM152 117v354h-120v-390q0 -8 5.5 -22t14.5 -27t19.5 -22.5t21.5 -9.5h332
q10 0 21 9.5t20 22.5t14.5 27t5.5 22v399q-14 -6 -33.5 -24.5t-37.5 -40t-32 -40.5t-17 -26v-232h-214z" />
    <glyph glyph-name="FL00DDh" unicode="&#xdd;" 
d="M250 656h148l-4 -5l28 -28l-107 -141h-141l-27 27h-9zM353 -52v12h-230q-8 0 -16.5 5t-16.5 13l-14 14q-11 6 -21 17.5t-18 24.5t-13 26t-5 21v403h146v-6l27 -27v-321h161v222q3 7 19.5 28.5t38.5 45.5t46 45t42 29v-8l27 -27v-594q0 -15 -5 -30.5t-14.5 -29t-22.5 -22
t-28 -8.5h-368l-27 27h-9q28 46 50.5 79.5t48.5 60.5h202zM164 522h116l92 121h-116zM156 -65q-20 -20 -38.5 -48t-41.5 -66h350q13 0 24 7.5t19 19.5t12.5 26t4.5 27v579q-14 -6 -33.5 -24.5t-37.5 -40t-32 -40.5t-17 -26v-232h-214v354h-120v-390q0 -8 5.5 -22t14.5 -27
t19.5 -22.5t21.5 -9.5h273v-65h-210z" />
    <glyph glyph-name="FL00DEh" unicode="&#xde;" 
d="M192 83l44 47h117v187h-161v-234zM165 671l27 -27v-160h230q16 0 33.5 -13.5t28.5 -31.5l12 -11q13 -13 21.5 -28.5t8.5 -28.5v-320q0 -9 -6.5 -24.5t-16.5 -30.5t-23 -25.5t-25 -10.5h-262l1 -1q2 -2 0.5 -4.5t-3.5 -4.5l-1 1q-18 -48 -54.5 -95.5t-83.5 -87.5l-28 28
q-4 -2 -5 -4v720l21 28q24 32 52 67t73 73v-9zM152 21v336h214v-240h-125zM152 651q-33 -29 -63 -68.5t-57 -74.5v-687q38 33 70.5 75.5t49.5 88.5q2 4 5.5 9.5t4.5 5.5h263q10 0 21 9.5t20 22.5t14.5 27t5.5 22v320q0 10 -6 22t-15.5 22.5t-21 18t-21.5 7.5h-270v180z" />
    <glyph glyph-name="FL00DFh" unicode="&#xdf;" horiz-adv-x="520" 
d="M193 163h-1v-163q9 19 26 41t33.5 41.5t29 32.5t14.5 13h30v8h-105zM192 176q9 19 26 41t33.5 41.5t29 32.5t14.5 13h30v11h-133v-139zM380 483q23 0 42.5 -13t31.5 -33l13 -12q14 -14 22.5 -34t8.5 -40v-291q0 -18 -6.5 -36t-18.5 -32t-28 -23t-35 -9h-190l-27 27h-1
v-47q-3 -8 -19.5 -29t-38 -44.5t-44 -44t-38.5 -27.5l-28 28q-4 -2 -5 -3v552q2 27 15.5 47.5t29.5 34.5t31.5 21.5t22.5 7.5h262zM118 470q-6 0 -19.5 -6.5t-27.5 -19t-25.5 -30.5t-13.5 -42v-532q13 6 32.5 24.5t38 39.5t32.5 40t17 27v384h186v-64h-43q-2 0 -14.5 -12.5
t-28 -30.5t-30 -37.5t-19.5 -34.5h135v-61h-43q-2 0 -14.5 -12.5t-28 -30.5t-30 -37.5t-19.5 -34.5h177q16 0 30.5 8t25 21t16.5 29t6 32v291q0 16 -6 32t-16.5 28.5t-25 20.5t-30.5 8h-262z" />
    <glyph glyph-name="FL00E0h" unicode="&#xe0;" horiz-adv-x="534" 
d="M478 427q1 0 1 -1zM192 138q-1 0 -1 -4v-6h148v54l-43 -44h-104zM120 656h148l13 -17l16 -16l106 -140q17 0 37 -16t33 -35l6 -6l4 -3q13 -13 21 -27t8 -26v-330q0 -12 -8.5 -26t-20.5 -26t-26 -20t-25 -8h-300q-15 0 -29 7t-25 18l-13 13q-20 11 -33 31.5t-13 40.5v150
q0 13 7.5 28t18.5 28t23.5 21.5t23.5 8.5h247v9h-310l-27 27h-8q23 34 44 60t37.5 44t26.5 27.5l10 9.5h150l-26 26h-4zM238 522h116l-92 121h-116zM92 293q-9 0 -19.5 -7t-19.5 -18t-15 -24t-6 -24v-150q0 -12 6 -24.5t16 -22.5t22.5 -16.5t25.5 -6.5h300q10 0 22 7
t22.5 17.5t18 22.5t7.5 23v330q0 10 -7 22t-17 22.5t-22.5 18t-22.5 7.5h-291q-1 0 -29 -30t-65 -85h334v-62h-260zM151 155q0 7 2 15t9 8h100l90 92v-155h-190q-8 0 -9.5 8.5t-1.5 14.5v17z" />
    <glyph glyph-name="FL00E1h" unicode="&#xe1;" horiz-adv-x="534" 
d="M478 427q1 0 1 -1zM192 138q-1 0 -1 -4v-6h148v54l-43 -44h-104zM250 656h148l-4 -5l28 -28l-106 -140h87q17 0 37 -16t33 -35l6 -6l4 -3q13 -13 21 -27t8 -26v-330q0 -12 -8.5 -26t-20.5 -26t-26 -20t-25 -8h-300q-15 0 -29 7t-25 18l-13 13q-20 11 -33 31.5t-13 40.5
v150q0 13 7.5 28t18.5 28t23.5 21.5t23.5 8.5h247v9h-310l-27 27h-8q23 34 44 60t37.5 44t26.5 27.5l10 9.5h61l-26 26h-9zM164 522h116l92 121h-116zM92 293q-9 0 -19.5 -7t-19.5 -18t-15 -24t-6 -24v-150q0 -12 6 -24.5t16 -22.5t22.5 -16.5t25.5 -6.5h300q10 0 22 7
t22.5 17.5t18 22.5t7.5 23v330q0 10 -7 22t-17 22.5t-22.5 18t-22.5 7.5h-291q-1 0 -29 -30t-65 -85h334v-62h-260zM151 155q0 7 2 15t9 8h100l90 92v-155h-190q-8 0 -9.5 8.5t-1.5 14.5v17z" />
    <glyph glyph-name="FL00E2h" unicode="&#xe2;" horiz-adv-x="534" 
d="M478 427q1 0 1 -1zM283 527l-34 -44h78l-25 25h-4zM192 138q-1 0 -1 -4v-6h148v54l-43 -44h-104zM334 655l13 -17l16 -16l107 -141h-55q16 -5 31.5 -19t26.5 -30l6 -6l4 -3q13 -13 21 -27t8 -26v-330q0 -12 -8.5 -26t-20.5 -26t-26 -20t-25 -8h-300q-15 0 -29 7t-25 18
l-13 13q-20 11 -33 31.5t-13 40.5v150q0 13 7.5 28t18.5 28t23.5 21.5t23.5 8.5h247v9h-310l-27 27h-8q41 60 74 95.5t41 43.5h-2l-27 27h-9l112 147h151zM189 642l-92 -121h116l45 59l46 -59h116l-92 121h-139zM92 293q-9 0 -19.5 -7t-19.5 -18t-15 -24t-6 -24v-150
q0 -12 6 -24.5t16 -22.5t22.5 -16.5t25.5 -6.5h300q10 0 22 7t22.5 17.5t18 22.5t7.5 23v330q0 10 -7 22t-17 22.5t-22.5 18t-22.5 7.5h-291q-1 0 -29 -30t-65 -85h334v-62h-260zM151 155q0 7 2 15t9 8h100l90 92v-155h-190q-8 0 -9.5 8.5t-1.5 14.5v17z" />
    <glyph glyph-name="FL00E3h" unicode="&#xe3;" horiz-adv-x="534" 
d="M478 427q1 0 1 -1zM248 526l-34 -43h78l-25 25h-4zM192 138q-1 0 -1 -4v-6h148v54l-43 -44h-104zM254 655l14 -19l15 -14l12 -17l38 50h148l-4 -5l28 -28l-106 -139h4q17 0 37.5 -16t32.5 -36l6 -5l4 -3q13 -13 21 -27t8 -26v-330q0 -12 -8.5 -26t-20.5 -26t-26 -20
t-25 -8h-300q-15 0 -29 7t-25 18l-13 13q-20 11 -33 31.5t-13 40.5v150q0 13 7.5 28t18.5 28t23.5 21.5t23.5 8.5h247v9h-310l-27 27h-8q41 60 74 95.5t41 43.5h-37l-27 27h-9l112 147h106zM154 642l-92 -121h116l45 58l46 -58h94l92 121h-116l-45 -59l-46 59h-94zM92 293
q-9 0 -19.5 -7t-19.5 -18t-15 -24t-6 -24v-150q0 -12 6 -24.5t16 -22.5t22.5 -16.5t25.5 -6.5h300q10 0 22 7t22.5 17.5t18 22.5t7.5 23v330q0 10 -7 22t-17 22.5t-22.5 18t-22.5 7.5h-291q-1 0 -29 -30t-65 -85h334v-62h-260zM151 155q0 7 2 15t9 8h100l90 92v-155h-190
q-8 0 -9.5 8.5t-1.5 14.5v17z" />
    <glyph glyph-name="FL00E4h" unicode="&#xe4;" horiz-adv-x="534" 
d="M478 427q1 0 1 -1zM264 568l-10 11l10 -12v1zM192 138q-1 0 -1 -4v-6h148v54l-43 -44h-104zM279 536q-5 -20 -20.5 -34.5t-37.5 -18.5h134q-11 2 -20.5 7t-17.5 13l-16 15q-12 6 -22 18zM103 582q0 30 21.5 52t53.5 22q22 0 39.5 -11t27.5 -28l15 -15q1 -2 4 -5
q5 25 25 42t49 17q22 0 39.5 -11t27.5 -28l15 -15q21 -21 21 -50q0 -26 -17.5 -45.5t-43.5 -23.5h23q17 0 37 -16t33 -35l6 -6l4 -3q13 -13 21 -27t8 -26v-330q0 -12 -8.5 -26t-20.5 -26t-26 -20t-25 -8h-300q-15 0 -29 7t-25 18l-13 13q-20 11 -33 31.5t-13 40.5v150
q0 13 7.5 28t18.5 28t23.5 21.5t23.5 8.5h247v9h-310l-27 27h-8q23 34 44 60t37.5 44t26.5 27.5l10 9.5h83q-11 2 -20.5 7t-17.5 13l-16 15q-17 9 -27.5 26.5t-10.5 37.5zM276 582q0 -24 18 -42t44 -18t44.5 18t18.5 42q0 25 -18.5 43t-44.5 18t-44 -18t-18 -43zM116 582
q0 -24 18 -42t44 -18t44.5 18t18.5 42q0 25 -18.5 43t-44.5 18t-44 -18t-18 -43zM92 293q-9 0 -19.5 -7t-19.5 -18t-15 -24t-6 -24v-150q0 -12 6 -24.5t16 -22.5t22.5 -16.5t25.5 -6.5h300q10 0 22 7t22.5 17.5t18 22.5t7.5 23v330q0 10 -7 22t-17 22.5t-22.5 18t-22.5 7.5
h-291q-1 0 -29 -30t-65 -85h334v-62h-260zM151 155q0 7 2 15t9 8h100l90 92v-155h-190q-8 0 -9.5 8.5t-1.5 14.5v17z" />
    <glyph glyph-name="FL00E5h" unicode="&#xe5;" horiz-adv-x="534" 
d="M237 582q0 -9 6 -16t16 -7q9 0 15.5 7t6.5 16t-6.5 15.5t-15.5 6.5q-10 0 -16 -6.5t-6 -15.5zM151 138q0 -6 1.5 -14.5t9.5 -8.5h190v155l-90 -92h-100q-7 0 -9 -8t-2 -15v-17zM352 355h-334q37 55 65 85t29 30h291q10 0 22.5 -7.5t22.5 -18t17 -22.5t7 -22v-330
q0 -11 -7.5 -23t-18 -22.5t-22.5 -17.5t-22 -7h-300q-13 0 -25.5 6.5t-22.5 16.5t-16 22.5t-6 24.5v150q0 11 6 24t15 24t19.5 18t19.5 7h260v62zM197 582q0 25 18 43t44 18t44.5 -18t18.5 -43q0 -24 -18.5 -42t-44.5 -18t-44 18t-18 42zM184 582q0 -20 10.5 -37.5
t27.5 -26.5l16 -15q8 -8 17.5 -13t20.5 -7h-164l-10 -9.5t-26.5 -27.5t-37.5 -44t-44 -60h8l27 -27h310v-9h-247q-11 0 -23.5 -8.5t-23.5 -21.5t-18.5 -28t-7.5 -28v-150q0 -20 13 -40.5t33 -31.5l13 -13q11 -11 25 -18t29 -7h300q11 0 25 8t26 20t20.5 26t8.5 26v330
q0 12 -8 26t-21 27l-2 1h1l-11 10q-13 19 -32 34t-36 15h-102q26 4 43.5 23.5t17.5 45.5q0 29 -21 50l-15 15q-10 17 -27.5 28t-39.5 11q-32 0 -53.5 -22t-21.5 -52zM192 138h104l43 44v-54h-148v6q0 4 1 4zM281 542q-1 0 -1.5 0.5l-0.5 0.5z" />
    <glyph glyph-name="FL00E6h" unicode="&#xe6;" horiz-adv-x="854" 
d="M802 429q1 0 1 -1zM192 138q-1 0 -1 -4v-6h148v54l-43 -44h-104zM513 315v-57l45 47h104q-1 1 -1 4v6h-148zM339 306v9h-310l-27 27h-8q23 34 44 60t37.5 44t26.5 27.5l10 9.5h611q21 0 40.5 -13.5t30.5 -32.5l8 -8l1 -1l4 -3q11 -11 18.5 -26t7.5 -29v-150
q0 -13 -7 -27.5t-17.5 -27t-23 -20.5t-22.5 -8h-250v-9h318q-1 -2 -2 -2.5t-2 -2.5l29 -28q-22 -32 -42 -57.5t-36 -42.5t-25.5 -26l-9.5 -9h-611q-15 0 -29 7t-25 18l-13 13q-20 11 -33 31.5t-13 40.5v150q0 13 7.5 28t18.5 28t23.5 21.5t23.5 8.5h247zM151 155q0 7 2 15
t9 8h100l90 92v-155h-190q-8 0 -9.5 8.5t-1.5 14.5v17zM674 315q0 -7 -2 -15t-9 -8h-100l-90 -92v155h190q8 0 9.5 -8.5t1.5 -14.5v-17zM92 293q-9 0 -19.5 -7t-19.5 -18t-15 -24t-6 -24v-150q0 -12 6 -24.5t16 -22.5t22.5 -16.5t25.5 -6.5h611q1 0 29 30t65 85h-334v62h260
q9 0 19.5 7t19.5 18t15 24t6 24v150q0 12 -6 24.5t-16 22.5t-22.5 16.5t-25.5 6.5h-611q-1 0 -29 -30t-65 -85h334v-62h-260z" />
    <glyph glyph-name="FL00E7h" unicode="&#xe7;" horiz-adv-x="520" 
d="M192 128h283q-2 -4 -2 -5l28 -28q-6 -17 -22.5 -40.5t-34.5 -44.5t-32.5 -35.5t-15.5 -14.5h-40v-135h-116l-6.5 4t-16.5 11.5t-22 17.5t-23 21l-7 7q-20 17 -38.5 38t-25.5 41h11q-17 7 -29 20l-14 14q-23 14 -36.5 39t-13.5 51v291q0 18 7 36.5t19 33.5t28.5 24t36.5 9
h365q-2 -4 -2 -5l28 -28q-6 -17 -22.5 -40.5t-34.5 -44.5t-32.5 -35.5t-15.5 -14.5h-204v-187zM219 0v-48h-101q5 -15 19.5 -30t30.5 -28t28.5 -21t13.5 -8h106v135h50q1 0 13.5 12.5t28.5 30.5t30.5 37.5t19.5 34.5h-306v240h214q1 0 13.5 12.5t28.5 30.5t30.5 37.5
t19.5 34.5h-348q-17 0 -31 -8t-24.5 -21t-16.5 -29t-6 -32v-291q0 -16 6 -32t16.5 -28.5t24.5 -20.5t31 -8h109z" />
    <glyph glyph-name="FL00E8h" unicode="&#xe8;" horiz-adv-x="533" 
d="M354 522h-116l-92 121h116zM353 332q0 6 -1.5 14.5t-9.5 8.5h-190v-155l90 92h100q7 0 9 8t2 15v17zM152 115h334q-37 -55 -65 -85t-29 -30h-291q-11 0 -23 7.5t-22 18t-17 22.5t-7 22v330q0 10 7.5 22.5t18 23t22.5 17.5t22 7h300q13 0 25.5 -6.5t22.5 -16.5t16 -22.5
t6 -24.5v-150q0 -11 -6 -24t-15 -24t-19.5 -18t-19.5 -7h-260v-62zM268 656h-148l112 -147h4l26 -26h-160q-12 0 -26 -8.5t-27 -21t-21.5 -27t-8.5 -26.5v-330q0 -17 15 -38t35 -33l12 -12q11 -11 25 -19t25 -8h291l9.5 9t25.5 26t36 42.5t42 57.5l-29 28q1 2 2 2.5t2 2.5
h-318v9h250q10 0 22.5 8t23 20.5t17.5 27t7 27.5v150q0 14 -7.5 29t-18.5 26l-14 13q-11 18 -30 31t-39 14l-106 140l-16 16zM192 315h148v-6t1 -4h-104l-45 -47v57z" />
    <glyph glyph-name="FL00E9h" unicode="&#xe9;" horiz-adv-x="533" 
d="M481 429q1 0 1 -1zM192 315v-57l45 47h104q-1 1 -1 4v6h-148zM250 656h148l-4 -5l28 -28l-106 -140h86q21 0 40.5 -13.5t30.5 -32.5l8 -8l1 -1l4 -3q11 -11 18.5 -26t7.5 -29v-150q0 -13 -7 -27.5t-17.5 -27t-23 -20.5t-22.5 -8h-250v-9h318q-1 -2 -2 -2.5t-2 -2.5
l29 -28q-22 -32 -42 -57.5t-36 -42.5t-25.5 -26l-9.5 -9h-291q-11 0 -25 8t-25 19l-12 12q-20 12 -35 33t-15 38v330q0 12 8.5 26.5t21.5 27t27 21t26 8.5h71l-26 26h-9zM164 522h116l92 121h-116zM412 177q9 0 19.5 7t19.5 18t15 24t6 24v150q0 12 -6 24.5t-16 22.5
t-22.5 16.5t-25.5 6.5h-300q-10 0 -22 -7t-22.5 -17.5t-18 -23t-7.5 -22.5v-330q0 -10 7 -22t17 -22.5t22 -18t23 -7.5h291q1 0 29 30t65 85h-334v62h260zM353 315q0 -7 -2 -15t-9 -8h-100l-90 -92v155h190q8 0 9.5 -8.5t1.5 -14.5v-17z" />
    <glyph glyph-name="FL00EAh" unicode="&#xea;" horiz-adv-x="533" 
d="M481 429q1 0 1 -1zM283 527l-34 -44h78l-25 25h-4zM192 315v-57l45 47h104q-1 1 -1 4v6h-148zM334 655l13 -17l16 -16l107 -141h-53q17 -5 32 -17t24 -27l8 -8l1 -1l4 -3q11 -11 18.5 -26t7.5 -29v-150q0 -13 -7 -27.5t-17.5 -27t-23 -20.5t-22.5 -8h-250v-9h318
q-1 -2 -2 -2.5t-2 -2.5l29 -28q-22 -32 -42 -57.5t-36 -42.5t-25.5 -26l-9.5 -9h-291q-11 0 -25 8t-25 19l-12 12q-20 12 -35 33t-15 38v330q0 12 8.5 26.5t21.5 27t27 21t26 8.5h3l-25 25h-9l112 147h151zM189 642l-92 -121h116l45 59l46 -59h116l-92 121h-139zM412 177
q9 0 19.5 7t19.5 18t15 24t6 24v150q0 12 -6 24.5t-16 22.5t-22.5 16.5t-25.5 6.5h-300q-10 0 -22 -7t-22.5 -17.5t-18 -23t-7.5 -22.5v-330q0 -10 7 -22t17 -22.5t22 -18t23 -7.5h291q1 0 29 30t65 85h-334v62h260zM353 315q0 -7 -2 -15t-9 -8h-100l-90 -92v155h190
q8 0 9.5 -8.5t1.5 -14.5v-17z" />
    <glyph glyph-name="FL00EBh" unicode="&#xeb;" horiz-adv-x="533" 
d="M481 429q1 0 1 -1zM264 568l-10 11l10 -12v1zM192 315v-57l45 47h104q-1 1 -1 4v6h-148zM279 536q-5 -20 -20.5 -34.5t-37.5 -18.5h134q-11 2 -20.5 7t-17.5 13l-16 15q-12 6 -22 18zM103 582q0 30 21.5 52t53.5 22q22 0 39.5 -11t27.5 -28l15 -15q1 -2 4 -5q5 25 25 42
t49 17q22 0 39.5 -11t27.5 -28l15 -15q21 -21 21 -50q0 -26 -17.5 -45.5t-43.5 -23.5h22q21 0 40.5 -13.5t30.5 -32.5l8 -8l1 -1l4 -3q11 -11 18.5 -26t7.5 -29v-150q0 -13 -7 -27.5t-17.5 -27t-23 -20.5t-22.5 -8h-250v-9h318q-1 -2 -2 -2.5t-2 -2.5l29 -28
q-22 -32 -42 -57.5t-36 -42.5t-25.5 -26l-9.5 -9h-291q-11 0 -25 8t-25 19l-12 12q-20 12 -35 33t-15 38v330q0 12 8.5 26.5t21.5 27t27 21t26 8.5h93q-11 2 -20.5 7t-17.5 13l-16 15q-17 9 -27.5 26.5t-10.5 37.5zM276 582q0 -24 18 -42t44 -18t44.5 18t18.5 42
q0 25 -18.5 43t-44.5 18t-44 -18t-18 -43zM116 582q0 -24 18 -42t44 -18t44.5 18t18.5 42q0 25 -18.5 43t-44.5 18t-44 -18t-18 -43zM412 177q9 0 19.5 7t19.5 18t15 24t6 24v150q0 12 -6 24.5t-16 22.5t-22.5 16.5t-25.5 6.5h-300q-10 0 -22 -7t-22.5 -17.5t-18 -23
t-7.5 -22.5v-330q0 -10 7 -22t17 -22.5t22 -18t23 -7.5h291q1 0 29 30t65 85h-334v62h260zM353 315q0 -7 -2 -15t-9 -8h-100l-90 -92v155h190q8 0 9.5 -8.5t1.5 -14.5v-17z" />
    <glyph glyph-name="FL00ECh" unicode="&#xec;" horiz-adv-x="214" 
d="M-41 656h148l13 -17l16 -16l107 -141h-61l10 -10v-380q-3 -8 -19.5 -29t-38 -44.5t-44 -44t-38.5 -27.5l-28 28q-4 -2 -5 -3v368l21 28q20 26 42 54.5t54 59.5h-34l-27 27h-4zM77 522h116l-92 121h-116zM152 479q-33 -29 -63 -68.5t-57 -74.5v-344q13 6 32.5 24.5
t38 39.5t32.5 40t17 27v356z" />
    <glyph glyph-name="FL00EDh" unicode="&#xed;" horiz-adv-x="214" 
d="M165 499l27 -27v-380q-3 -8 -19.5 -29t-38 -44.5t-44 -44t-38.5 -27.5l-28 28q-4 -2 -5 -3v368l21 28q20 26 42 54.5t54 59.5h-133l-27 27h-9l112 147h148l-4 -5l28 -28l-90 -119q1 1 1.5 2t2.5 2v-9zM-7 522h116l92 121h-116zM152 479q-33 -29 -63 -68.5t-57 -74.5v-344
q13 6 32.5 24.5t38 39.5t32.5 40t17 27v356z" />
    <glyph glyph-name="FL00EEh" unicode="&#xee;" horiz-adv-x="214" 
d="M168 656l13 -17l16 -16l107 -141h-122l10 -10v-380q-3 -8 -19.5 -29t-38 -44.5t-44 -44t-38.5 -27.5l-28 28q-4 -2 -5 -3v368l21 28q22 29 47 60.5t63 66.5l-14 14h-4l-15 19l-35 -46h-141l-27 27h-9l112 147h151zM23 643l-92 -121h116l45 59l46 -59h116l-92 121h-139z
M152 479q-33 -29 -63 -68.5t-57 -74.5v-344q13 6 32.5 24.5t38 39.5t32.5 40t17 27v356z" />
    <glyph glyph-name="FL00EFh" unicode="&#xef;" horiz-adv-x="214" 
d="M-62 582q0 30 21.5 52t53.5 22q22 0 39.5 -11t27.5 -28l15 -15q1 -2 4 -5q5 25 25 42t49 17q22 0 39.5 -11t27.5 -28l15 -15q21 -21 21 -50q0 -28 -21 -49t-52 -21q-15 0 -26 4l15 -14v-380q-3 -8 -19.5 -29t-38 -44.5t-44 -44t-38.5 -27.5l-28 28q-4 -2 -5 -3v368l21 28
q23 30 49 63t66 68q-1 1 -1.5 2t-1.5 2l-16 15q-12 6 -22 18q-6 -23 -25.5 -38.5t-45.5 -15.5q-30 0 -51 21l-15 15q-18 9 -28.5 26.5t-10.5 37.5zM111 582q0 -24 18 -42t44 -18t44.5 18t18.5 42q0 25 -18.5 43t-44.5 18t-44 -18t-18 -43zM-49 582q0 -24 18 -42t44 -18
t44.5 18t18.5 42q0 25 -18.5 43t-44.5 18t-44 -18t-18 -43zM152 479q-33 -29 -63 -68.5t-57 -74.5v-344q13 6 32.5 24.5t38 39.5t32.5 40t17 27v356z" />
    <glyph glyph-name="FL00AAh" unicode="&#xf0;" horiz-adv-x="518" 
d="M262 189l-20 -62h41zM7 -13h-7l143 433q17 24 35 39.5t39 24.5h53q19 -10 36 -24t29 -33l9 -8q12 -12 21 -27l149 -432h-480zM301 114h-114l57 175zM328 414q-11 20 -27.5 34.5t-33.5 22.5h-47q-19 -8 -35 -21.5t-31 -35.5l-137 -414h454z" />
    <glyph glyph-name="FL00F1h" unicode="&#xf1;" 
d="M483 436q1 0 1 -2zM248 526l-34 -43h78l-25 25h-4zM254 655l14 -19l15 -14l12 -17l38 50h148l-4 -5l28 -28l-106 -139h26q14 0 28 -12.5t25 -29.5l5 -5l2 -2h-1l4 -2q16 -16 27 -38t11 -35v-399h-140l-27 27h-6v326h-161v-222q-3 -8 -19.5 -29t-38 -44.5t-44 -44
t-38.5 -27.5l-28 28q-4 -2 -5 -3v418q0 9 5.5 22.5t14.5 27.5t20 25.5t23 16.5h-10l-27 27h-9l112 147h106zM154 642l-92 -121h116l45 58l46 -58h94l92 121h-116l-45 -59l-46 59h-94zM366 353v-353h120v389q0 8 -5.5 22t-14.5 27t-20 22.5t-21 9.5h-332q-11 0 -21.5 -9.5
t-19.5 -22.5t-14.5 -27t-5.5 -22v-398q13 6 32.5 24.5t38 39.5t32.5 40t17 27v231h214z" />
    <glyph glyph-name="FL00F2h" unicode="&#xf2;" 
d="M192 130h161v187h-161v-187zM120 656h148l13 -17l16 -16l105 -139h20q16 0 33.5 -13.5t28.5 -31.5l12 -11q13 -13 21.5 -28.5t8.5 -28.5v-320q0 -9 -6.5 -24.5t-16.5 -30.5t-23 -25.5t-25 -10.5h-332q-8 0 -16.5 5t-16.5 13l-14 14q-11 6 -21 17.5t-18 24.5t-13 26t-5 21
v320q0 9 7.5 23t19 27.5t24.5 23t24 9.5h167l-25 25h-4zM152 357h214v-240h-214v240zM32 81q0 -8 5.5 -22t14.5 -27t19.5 -22.5t21.5 -9.5h332q10 0 21 9.5t20 22.5t14.5 27t5.5 22v320q0 10 -6 22t-15.5 22.5t-21 18t-21.5 7.5h-328q-9 0 -20 -8.5t-20 -19.5t-15.5 -23
t-6.5 -19v-320zM238 522h116l-92 121h-116z" />
    <glyph glyph-name="FL00F3h" unicode="&#xf3;" 
d="M192 130h161v187h-161v-187zM250 656h148l-4 -5l28 -28l-106 -139h106q16 0 33.5 -13.5t28.5 -31.5l12 -11q13 -13 21.5 -28.5t8.5 -28.5v-320q0 -9 -6.5 -24.5t-16.5 -30.5t-23 -25.5t-25 -10.5h-332q-8 0 -16.5 5t-16.5 13l-14 14q-11 6 -21 17.5t-18 24.5t-13 26
t-5 21v320q0 9 7.5 23t19 27.5t24.5 23t24 9.5h78l-25 25h-9zM164 522h116l92 121h-116zM152 357h214v-240h-214v240zM32 81q0 -8 5.5 -22t14.5 -27t19.5 -22.5t21.5 -9.5h332q10 0 21 9.5t20 22.5t14.5 27t5.5 22v320q0 10 -6 22t-15.5 22.5t-21 18t-21.5 7.5h-328
q-9 0 -20 -8.5t-20 -19.5t-15.5 -23t-6.5 -19v-320z" />
    <glyph glyph-name="FL00F4h" unicode="&#xf4;" 
d="M283 527l-33 -43h76l-24 24h-4zM192 130h161v187h-161v-187zM334 655l13 -17l16 -16l107 -141h-34q14 -5 26.5 -16.5t21.5 -25.5l12 -11q13 -13 21.5 -28.5t8.5 -28.5v-320q0 -9 -6.5 -24.5t-16.5 -30.5t-23 -25.5t-25 -10.5h-332q-8 0 -16.5 5t-16.5 13l-14 14
q-11 6 -21 17.5t-18 24.5t-13 26t-5 21v320q0 9 7.5 23t19 27.5t24.5 23t24 9.5h10l-24 24h-9l112 147h151zM189 642l-92 -121h116l45 59l46 -59h116l-92 121h-139zM152 357h214v-240h-214v240zM32 81q0 -8 5.5 -22t14.5 -27t19.5 -22.5t21.5 -9.5h332q10 0 21 9.5t20 22.5
t14.5 27t5.5 22v320q0 10 -6 22t-15.5 22.5t-21 18t-21.5 7.5h-328q-9 0 -20 -8.5t-20 -19.5t-15.5 -23t-6.5 -19v-320z" />
    <glyph glyph-name="FL00F5h" unicode="&#xf5;" 
d="M248 526l-33 -42h76l-24 24h-4zM192 130h161v187h-161v-187zM254 655l14 -19l15 -14l12 -17l38 50h148l-4 -5l28 -28l-105 -138h22q16 0 33.5 -13.5t28.5 -31.5l12 -11q13 -13 21.5 -28.5t8.5 -28.5v-320q0 -9 -6.5 -24.5t-16.5 -30.5t-23 -25.5t-25 -10.5h-332
q-8 0 -16.5 5t-16.5 13l-14 14q-11 6 -21 17.5t-18 24.5t-13 26t-5 21v320q0 7 5.5 19t14.5 24t20 22t22 15h-9l-27 27h-9l112 147h106zM154 642l-92 -121h116l45 58l46 -58h94l92 121h-116l-45 -59l-46 59h-94zM152 357h214v-240h-214v240zM32 81q0 -8 5.5 -22t14.5 -27
t19.5 -22.5t21.5 -9.5h332q10 0 21 9.5t20 22.5t14.5 27t5.5 22v320q0 10 -6 22t-15.5 22.5t-21 18t-21.5 7.5h-328q-9 0 -20 -8.5t-20 -19.5t-15.5 -23t-6.5 -19v-320z" />
    <glyph glyph-name="FL00F6h" unicode="&#xf6;" 
d="M264 568l-10 11l10 -12v1zM279 536q-5 -19 -19 -33t-34 -19h124q-18 4 -33 19l-16 15q-12 6 -22 18zM192 130h161v187h-161v-187zM103 582q0 30 21.5 52t53.5 22q22 0 39.5 -11t27.5 -28l15 -15q1 -2 4 -5q5 25 25 42t49 17q22 0 39.5 -11t27.5 -28l15 -15q21 -21 21 -50
q0 -24 -15.5 -43t-39.5 -25h36q16 0 33.5 -13.5t28.5 -31.5l12 -11q13 -13 21.5 -28.5t8.5 -28.5v-320q0 -9 -6.5 -24.5t-16.5 -30.5t-23 -25.5t-25 -10.5h-332q-8 0 -16.5 5t-16.5 13l-14 14q-11 6 -21 17.5t-18 24.5t-13 26t-5 21v320q0 9 7.5 23t19 27.5t24.5 23t24 9.5
h96q-18 4 -33 19l-16 15q-17 9 -27.5 26.5t-10.5 37.5zM276 582q0 -24 18 -42t44 -18t44.5 18t18.5 42q0 25 -18.5 43t-44.5 18t-44 -18t-18 -43zM116 582q0 -24 18 -42t44 -18t44.5 18t18.5 42q0 25 -18.5 43t-44.5 18t-44 -18t-18 -43zM152 357h214v-240h-214v240zM32 81
q0 -8 5.5 -22t14.5 -27t19.5 -22.5t21.5 -9.5h332q10 0 21 9.5t20 22.5t14.5 27t5.5 22v320q0 10 -6 22t-15.5 22.5t-21 18t-21.5 7.5h-328q-9 0 -20 -8.5t-20 -19.5t-15.5 -23t-6.5 -19v-320z" />
    <glyph glyph-name="FL00F7h" unicode="&#xf7;" horiz-adv-x="487" 
d="M145 87q0 28 19 50h-112l-27 27h-6v141h171l-6 5q-18 10 -28.5 27t-10.5 38q0 30 21.5 52t53.5 22q22 0 39.5 -11t27.5 -28l15 -15q21 -21 21 -50q0 -23 -14 -40h133q-2 -4 -2 -5l28 -28q-6 -17 -22.5 -40.5t-34.5 -44.5t-32.5 -35.5t-15.5 -14.5h-87q3 -4 6 -7.5t5 -7.5
l15 -15q21 -21 21 -50q0 -28 -21 -49t-52 -21q-30 0 -51 21l-16 15q-17 9 -27.5 26.5t-10.5 37.5zM158 375q0 -24 18 -42t44 -18t44.5 18t18.5 42q0 25 -18.5 43t-44.5 18t-44 -18t-18 -43zM158 87q0 -24 18 -42t44 -18t44.5 18t18.5 42q0 25 -18.5 43t-44.5 18t-44 -18
t-18 -43zM333 177q1 0 13.5 12.5t28.5 30.5t30.5 37.5t19.5 34.5h-393v-115h301z" />
    <glyph glyph-name="FL00F8h" unicode="&#xf8;" 
d="M353 130v42l-30 -42h30zM192 259l37 58h-37v-58zM19 401q0 9 7.5 23t19 27.5t24.5 23t24 9.5h328q16 0 33.5 -13.5t28.5 -31.5l12 -11q13 -13 21.5 -28.5t8.5 -28.5v-320q0 -9 -6.5 -24.5t-16.5 -30.5t-23 -25.5t-25 -10.5h-332q-8 0 -16.5 5t-16.5 13l-14 14
q-11 6 -21 17.5t-18 24.5t-13 26t-5 21v320zM366 283v-166h-114zM271 357l-119 -183v183h119zM32 81q0 -8 5.5 -22t14.5 -27t19.5 -22.5t21.5 -9.5h332q10 0 21 9.5t20 22.5t14.5 27t5.5 22v320q0 10 -6 22t-15.5 22.5t-21 18t-21.5 7.5h-328q-9 0 -20 -8.5t-20 -19.5
t-15.5 -23t-6.5 -19v-320z" />
    <glyph glyph-name="FL00F9h" unicode="&#xf9;" 
d="M354 522h-116l-92 121h116zM366 349q3 7 17 26t32 40.5t37.5 40t33.5 24.5v-399q0 -8 -5.5 -22t-14.5 -27t-20 -22.5t-21 -9.5h-332q-11 0 -21.5 9.5t-19.5 22.5t-14.5 27t-5.5 22v390h120v-354h214v232zM353 350v-220h-161v321l-27 27v6h-146v-403q0 -8 5 -21t13 -26
t18 -24.5t21 -17.5l14 -14q8 -8 16.5 -13t16.5 -5h332q12 0 25 10.5t23 25.5t16.5 30.5t6.5 24.5v414l-27 27v8q-18 -8 -41.5 -29t-45.5 -44.5t-38.5 -44.5t-19.5 -28zM268 656h-148l112 -147h4l27 -27h141l-107 141l-16 16z" />
    <glyph glyph-name="FL00FAh" unicode="&#xfa;" 
d="M250 656h148l-4 -5l28 -28l-107 -141h-141l-27 27h-9zM165 478l27 -27v-321h161v222q3 7 19.5 28.5t38.5 45.5t46 45t42 29v-8l27 -27v-414q0 -9 -6.5 -24.5t-16.5 -30.5t-23 -25.5t-25 -10.5h-332q-8 0 -16.5 5t-16.5 13l-14 14q-11 6 -21 17.5t-18 24.5t-13 26t-5 21
v403h146v-6zM164 522h116l92 121h-116zM152 117v354h-120v-390q0 -8 5.5 -22t14.5 -27t19.5 -22.5t21.5 -9.5h332q10 0 21 9.5t20 22.5t14.5 27t5.5 22v399q-14 -6 -33.5 -24.5t-37.5 -40t-32 -40.5t-17 -26v-232h-214z" />
    <glyph glyph-name="FL00FBh" unicode="&#xfb;" 
d="M192 130h161v222q2 6 13.5 21.5t28 34.5t36.5 39t38 34h-140l-27 27h-4l-15 19l-35 -46h-83v-3l27 -27v-321zM334 655l13 -17l16 -16l106 -141q15 12 30 19v-8l27 -27v-414q0 -9 -6.5 -24.5t-16.5 -30.5t-23 -25.5t-25 -10.5h-332q-8 0 -16.5 5t-16.5 13l-14 14
q-11 6 -21 17.5t-18 24.5t-13 26t-5 21v403h85l-24 24h-9l112 147h151zM189 642l-92 -121h116l45 59l46 -59h116l-92 121h-139zM152 117v354h-120v-390q0 -8 5.5 -22t14.5 -27t19.5 -22.5t21.5 -9.5h332q10 0 21 9.5t20 22.5t14.5 27t5.5 22v399q-14 -6 -33.5 -24.5
t-37.5 -40t-32 -40.5t-17 -26v-232h-214z" />
    <glyph glyph-name="FL00FCh" unicode="&#xfc;" 
d="M264 568l-10 11l10 -12v1zM103 582q0 30 21.5 52t53.5 22q22 0 39.5 -11t27.5 -28l15 -15q1 -2 4 -5q5 25 25 42t49 17q22 0 39.5 -11t27.5 -28l15 -15q21 -21 21 -50q0 -28 -21 -49t-52 -21q-30 0 -51 21l-16 15q-12 6 -22 18q-6 -23 -25.5 -38.5t-45.5 -15.5
q-30 0 -51 21l-16 15q-17 9 -27.5 26.5t-10.5 37.5zM165 478l27 -27v-321h161v222q3 7 19.5 28.5t38.5 45.5t46 45t42 29v-8l27 -27v-414q0 -9 -6.5 -24.5t-16.5 -30.5t-23 -25.5t-25 -10.5h-332q-8 0 -16.5 5t-16.5 13l-14 14q-11 6 -21 17.5t-18 24.5t-13 26t-5 21v403
h146v-6zM276 582q0 -24 18 -42t44 -18t44.5 18t18.5 42q0 25 -18.5 43t-44.5 18t-44 -18t-18 -43zM116 582q0 -24 18 -42t44 -18t44.5 18t18.5 42q0 25 -18.5 43t-44.5 18t-44 -18t-18 -43zM152 117v354h-120v-390q0 -8 5.5 -22t14.5 -27t19.5 -22.5t21.5 -9.5h332
q10 0 21 9.5t20 22.5t14.5 27t5.5 22v399q-14 -6 -33.5 -24.5t-37.5 -40t-32 -40.5t-17 -26v-232h-214z" />
    <glyph glyph-name="FL00FDh" unicode="&#xfd;" 
d="M250 656h148l-4 -5l28 -28l-107 -141h-141l-27 27h-9zM353 -52v12h-230q-8 0 -16.5 5t-16.5 13l-14 14q-11 6 -21 17.5t-18 24.5t-13 26t-5 21v403h146v-6l27 -27v-321h161v222q3 7 19.5 28.5t38.5 45.5t46 45t42 29v-8l27 -27v-594q0 -15 -5 -30.5t-14.5 -29t-22.5 -22
t-28 -8.5h-368l-27 27h-9q28 46 50.5 79.5t48.5 60.5h202zM164 522h116l92 121h-116zM156 -65q-20 -20 -38.5 -48t-41.5 -66h350q13 0 24 7.5t19 19.5t12.5 26t4.5 27v579q-14 -6 -33.5 -24.5t-37.5 -40t-32 -40.5t-17 -26v-232h-214v354h-120v-390q0 -8 5.5 -22t14.5 -27
t19.5 -22.5t21.5 -9.5h273v-65h-210z" />
    <glyph glyph-name="FL00FEh" unicode="&#xfe;" 
d="M192 83l44 47h117v187h-161v-234zM165 671l27 -27v-160h230q16 0 33.5 -13.5t28.5 -31.5l12 -11q13 -13 21.5 -28.5t8.5 -28.5v-320q0 -9 -6.5 -24.5t-16.5 -30.5t-23 -25.5t-25 -10.5h-262l1 -1q2 -2 0.5 -4.5t-3.5 -4.5l-1 1q-18 -48 -54.5 -95.5t-83.5 -87.5l-28 28
q-4 -2 -5 -4v720l21 28q24 32 52 67t73 73v-9zM152 21v336h214v-240h-125zM152 651q-33 -29 -63 -68.5t-57 -74.5v-687q38 33 70.5 75.5t49.5 88.5q2 4 5.5 9.5t4.5 5.5h263q10 0 21 9.5t20 22.5t14.5 27t5.5 22v320q0 10 -6 22t-15.5 22.5t-21 18t-21.5 7.5h-270v180z" />
    <glyph glyph-name="FL00FFh" unicode="&#xff;" 
d="M264 568l-10 11l10 -12v1zM103 582q0 30 21.5 52t53.5 22q22 0 39.5 -11t27.5 -28l15 -15q1 -2 4 -5q5 25 25 42t49 17q22 0 39.5 -11t27.5 -28l15 -15q21 -21 21 -50q0 -28 -21 -49t-52 -21q-30 0 -51 21l-16 15q-12 6 -22 18q-6 -23 -25.5 -38.5t-45.5 -15.5
q-30 0 -51 21l-16 15q-17 9 -27.5 26.5t-10.5 37.5zM353 -52v12h-230q-8 0 -16.5 5t-16.5 13l-14 14q-11 6 -21 17.5t-18 24.5t-13 26t-5 21v403h146v-6l27 -27v-321h161v222q3 7 19.5 28.5t38.5 45.5t46 45t42 29v-8l27 -27v-594q0 -15 -5 -30.5t-14.5 -29t-22.5 -22
t-28 -8.5h-368l-27 27h-9q28 46 50.5 79.5t48.5 60.5h202zM276 582q0 -24 18 -42t44 -18t44.5 18t18.5 42q0 25 -18.5 43t-44.5 18t-44 -18t-18 -43zM116 582q0 -24 18 -42t44 -18t44.5 18t18.5 42q0 25 -18.5 43t-44.5 18t-44 -18t-18 -43zM156 -65q-20 -20 -38.5 -48
t-41.5 -66h350q13 0 24 7.5t19 19.5t12.5 26t4.5 27v579q-14 -6 -33.5 -24.5t-37.5 -40t-32 -40.5t-17 -26v-232h-214v354h-120v-390q0 -8 5.5 -22t14.5 -27t19.5 -22.5t21.5 -9.5h273v-65h-210z" />
    <glyph glyph-name="FL0152h" unicode="&#x152;" horiz-adv-x="903" 
d="M547 315v-57l45 47h104q-1 1 -1 4v6h-148zM192 128h182v187h-182v-187zM547 128h318q-1 -2 -2 -2.5t-2 -2.5l29 -28q-22 -32 -42 -57.5t-36 -42.5t-25.5 -26l-9.5 -9h-291q-14 0 -27 8t-25 20l-3 3q-14 -14 -23.5 -22.5t-11.5 -8.5h-256q-17 0 -31.5 7t-25.5 18l-16 15
q-22 14 -35 38.5t-13 50.5v291q0 18 7 36.5t19 33.5t28.5 24t36.5 9h647q20 0 39.5 -13t30.5 -32l14 -13q11 -11 18.5 -26t7.5 -29v-150q0 -13 -7 -27.5t-17.5 -27t-23 -20.5t-22.5 -8h-250v-9zM708 315q0 -7 -2 -15t-9 -8h-100l-90 -92v155h190q8 0 9.5 -8.5t1.5 -14.5v-17
zM366 355l6 5.5t15 14.5v-260h-235v240h214zM366 0q1 0 11 10t24 26q11 -14 26 -25t29 -11h291q1 0 29 30t65 85h-334v62h260q9 0 19.5 7t19.5 18t15 24t6 24v150q0 12 -6 24.5t-16 22.5t-22.5 16.5t-25.5 6.5h-647q-17 0 -31 -8t-24.5 -21t-16.5 -29t-6 -32v-291
q0 -16 6 -32t16.5 -28.5t24.5 -20.5t31 -8h256z" />
    <glyph glyph-name="FL0153h" unicode="&#x153;" horiz-adv-x="903" 
d="M547 315v-57l45 47h104q-1 1 -1 4v6h-148zM192 128h182v187h-182v-187zM547 128h318q-1 -2 -2 -2.5t-2 -2.5l29 -28q-22 -32 -42 -57.5t-36 -42.5t-25.5 -26l-9.5 -9h-291q-14 0 -27 8t-25 20l-3 3q-14 -14 -23.5 -22.5t-11.5 -8.5h-256q-17 0 -31.5 7t-25.5 18l-16 15
q-22 14 -35 38.5t-13 50.5v291q0 18 7 36.5t19 33.5t28.5 24t36.5 9h647q20 0 39.5 -13t30.5 -32l14 -13q11 -11 18.5 -26t7.5 -29v-150q0 -13 -7 -27.5t-17.5 -27t-23 -20.5t-22.5 -8h-250v-9zM708 315q0 -7 -2 -15t-9 -8h-100l-90 -92v155h190q8 0 9.5 -8.5t1.5 -14.5v-17
zM366 355l6 5.5t15 14.5v-260h-235v240h214zM366 0q1 0 11 10t24 26q11 -14 26 -25t29 -11h291q1 0 29 30t65 85h-334v62h260q9 0 19.5 7t19.5 18t15 24t6 24v150q0 12 -6 24.5t-16 22.5t-22.5 16.5t-25.5 6.5h-647q-17 0 -31 -8t-24.5 -21t-16.5 -29t-6 -32v-291
q0 -16 6 -32t16.5 -28.5t24.5 -20.5t31 -8h256z" />
    <glyph glyph-name="FL0160h" unicode="&#x160;" horiz-adv-x="550" 
d="M248 621l12 -17l38 50h148l-4 -5l28 -28l-105 -138h140q-2 -4 -2 -5l28 -28q-6 -17 -22.5 -40.5t-34.5 -44.5t-32.5 -35.5t-15.5 -14.5h-234v-9h217q23 0 43.5 -13.5t32.5 -34.5l11 -10h-1l2 -1q14 -14 22.5 -32.5t8.5 -38.5v-116q0 -18 -6.5 -36t-18.5 -32t-28 -23
t-35 -9h-391l-27 27h-7q6 18 23 42.5t36 46t33.5 37t16.5 15.5h231v10h-215q-17 0 -32 7t-26 18l-13 13q-23 13 -36.5 37t-13.5 51v116q0 18 7 36.5t19 33.5t28.5 24t36.5 9h101l-24 24h-4l-112 147h148l14 -19zM328 520l92 121h-116l-45 -59l-46 59h-116l92 -121h139z
M152 355h244q1 0 13.5 12.5t28.5 30.5t30.5 37.5t19.5 34.5h-378q-17 0 -31 -8t-24.5 -21t-16.5 -29t-6 -32v-116q0 -16 6 -31.5t16.5 -27.5t24.5 -19.5t31 -7.5h258v-63h-244q-2 0 -14.5 -12.5t-28 -30.5t-30 -37.5t-19.5 -34.5h378q16 0 30.5 8t25 21t16.5 29t6 32v116
q0 16 -6.5 31.5t-17 28t-25 20t-30.5 7.5h-257v62z" />
    <glyph glyph-name="FL0161h" unicode="&#x161;" horiz-adv-x="550" 
d="M248 621l12 -17l38 50h148l-4 -5l28 -28l-105 -138h140q-2 -4 -2 -5l28 -28q-6 -17 -22.5 -40.5t-34.5 -44.5t-32.5 -35.5t-15.5 -14.5h-234v-9h217q23 0 43.5 -13.5t32.5 -34.5l11 -10h-1l2 -1q14 -14 22.5 -32.5t8.5 -38.5v-116q0 -18 -6.5 -36t-18.5 -32t-28 -23
t-35 -9h-391l-27 27h-7q6 18 23 42.5t36 46t33.5 37t16.5 15.5h231v10h-215q-17 0 -32 7t-26 18l-13 13q-23 13 -36.5 37t-13.5 51v116q0 18 7 36.5t19 33.5t28.5 24t36.5 9h101l-24 24h-4l-112 147h148l14 -19zM328 520l92 121h-116l-45 -59l-46 59h-116l92 -121h139z
M152 355h244q1 0 13.5 12.5t28.5 30.5t30.5 37.5t19.5 34.5h-378q-17 0 -31 -8t-24.5 -21t-16.5 -29t-6 -32v-116q0 -16 6 -31.5t16.5 -27.5t24.5 -19.5t31 -7.5h258v-63h-244q-2 0 -14.5 -12.5t-28 -30.5t-30 -37.5t-19.5 -34.5h378q16 0 30.5 8t25 21t16.5 29t6 32v116
q0 16 -6.5 31.5t-17 28t-25 20t-30.5 7.5h-257v62z" />
    <glyph glyph-name="FL0178h" unicode="&#x178;" 
d="M264 568l-10 11l10 -12v1zM103 582q0 30 21.5 52t53.5 22q22 0 39.5 -11t27.5 -28l15 -15q1 -2 4 -5q5 25 25 42t49 17q22 0 39.5 -11t27.5 -28l15 -15q21 -21 21 -50q0 -28 -21 -49t-52 -21q-30 0 -51 21l-16 15q-12 6 -22 18q-6 -23 -25.5 -38.5t-45.5 -15.5
q-30 0 -51 21l-16 15q-17 9 -27.5 26.5t-10.5 37.5zM353 -52v12h-230q-8 0 -16.5 5t-16.5 13l-14 14q-11 6 -21 17.5t-18 24.5t-13 26t-5 21v403h146v-6l27 -27v-321h161v222q3 7 19.5 28.5t38.5 45.5t46 45t42 29v-8l27 -27v-594q0 -15 -5 -30.5t-14.5 -29t-22.5 -22
t-28 -8.5h-368l-27 27h-9q28 46 50.5 79.5t48.5 60.5h202zM276 582q0 -24 18 -42t44 -18t44.5 18t18.5 42q0 25 -18.5 43t-44.5 18t-44 -18t-18 -43zM116 582q0 -24 18 -42t44 -18t44.5 18t18.5 42q0 25 -18.5 43t-44.5 18t-44 -18t-18 -43zM156 -65q-20 -20 -38.5 -48
t-41.5 -66h350q13 0 24 7.5t19 19.5t12.5 26t4.5 27v579q-14 -6 -33.5 -24.5t-37.5 -40t-32 -40.5t-17 -26v-232h-214v354h-120v-390q0 -8 5.5 -22t14.5 -27t19.5 -22.5t21.5 -9.5h273v-65h-210z" />
    <glyph glyph-name="FL017Dh" unicode="&#x17d;" horiz-adv-x="550" 
d="M237 315h-83q-1 0 -13 12l-15 15h-2q-2 0 -16.5 15.5t-33.5 37t-36 46t-23 42.5h196l-24 24h-4l-112 147h148l14 -19l15 -14l12 -17l38 50h148l-4 -5l28 -28l-105 -138h49q22 0 39.5 -12.5t29.5 -31.5l12 -12q15 -15 24 -36.5t9 -44.5l-218 -218h86q1 0 13 -12.5
t29 -31.5q9 -10 23 -25.5t28 -32.5t25.5 -34.5t16.5 -31.5h-395q-28 0 -51 23l-13 13q-24 14 -38.5 41.5t-14.5 57.5zM328 520l92 121h-116l-45 -59l-46 59h-116l92 -121h139zM32 90q0 -16 5.5 -32t15.5 -29t23.5 -21t29.5 -8h382q-5 15 -19.5 34.5t-30.5 37.5t-28.5 30.5
t-13.5 12.5h-173l265 265q0 16 -5.5 32t-15.5 29t-23.5 21t-29.5 8h-382q5 -15 19.5 -34.5t30 -37.5t28 -30.5t14.5 -12.5h171z" />
    <glyph glyph-name="FL017Eh" unicode="&#x17e;" horiz-adv-x="550" 
d="M237 315h-83q-1 0 -13 12l-15 15h-2q-2 0 -16.5 15.5t-33.5 37t-36 46t-23 42.5h196l-24 24h-4l-112 147h148l14 -19l15 -14l12 -17l38 50h148l-4 -5l28 -28l-105 -138h49q22 0 39.5 -12.5t29.5 -31.5l12 -12q15 -15 24 -36.5t9 -44.5l-218 -218h86q1 0 13 -12.5
t29 -31.5q9 -10 23 -25.5t28 -32.5t25.5 -34.5t16.5 -31.5h-395q-28 0 -51 23l-13 13q-24 14 -38.5 41.5t-14.5 57.5zM328 520l92 121h-116l-45 -59l-46 59h-116l92 -121h139zM32 90q0 -16 5.5 -32t15.5 -29t23.5 -21t29.5 -8h382q-5 15 -19.5 34.5t-30.5 37.5t-28.5 30.5
t-13.5 12.5h-173l265 265q0 16 -5.5 32t-15.5 29t-23.5 21t-29.5 8h-382q5 -15 19.5 -34.5t30 -37.5t28 -30.5t14.5 -12.5h171z" />
    <glyph glyph-name="FL0192h" unicode="&#x192;" horiz-adv-x="461" 
d="M416 654q-2 -4 -2 -5l28 -28q-6 -17 -22.5 -40.5t-34.5 -44.5t-32.5 -35.5t-15.5 -14.5h-145v-70h198q-2 -4 -2 -5l28 -28q-6 -17 -22.5 -40.5t-34.5 -44.5t-32.5 -35.5t-15.5 -14.5h-119v-156q-3 -8 -19.5 -29t-38 -44.5t-44 -44t-38.5 -27.5l-28 28q-4 -2 -5 -3v579
q0 18 7 36.5t19 33.5t28.5 24t36.5 9h306zM110 641q-17 0 -31 -8t-24.5 -21t-16.5 -29t-6 -32v-559q13 6 32.5 24.5t38 39.5t32.5 40t17 27v165h129q1 0 13.5 12.5t28.5 30.5t30.5 37.5t19.5 34.5h-221v123h155q1 0 13.5 12.5t28.5 30.5t30.5 37.5t19.5 34.5h-289z" />
    <glyph glyph-name="FL02C6h" unicode="&#x2c6;" horiz-adv-x="417" 
d="M269 655l13 -17l16 -16l107 -141h-141l-27 27h-4l-15 19l-35 -46h-141l-27 27h-9l112 147h151zM124 642l-92 -121h116l45 59l46 -59h116l-92 121h-139z" />
    <glyph glyph-name="FL02DCh" unicode="&#x2dc;" horiz-adv-x="487" 
d="M224 655l14 -19l15 -14l12 -17l38 50h148l-4 -5l28 -28l-107 -141h-104l-27 27h-4l-15 18l-35 -45h-141l-27 27h-9l112 147h106zM124 642l-92 -121h116l45 58l46 -58h94l92 121h-116l-45 -59l-46 59h-94z" />
    <glyph glyph-name="FL2013h" unicode="&#x2013;" horiz-adv-x="384" 
d="M25 164h-6v141h320q-2 -4 -2 -5l28 -28q-6 -17 -22.5 -40.5t-34.5 -44.5t-32.5 -35.5t-15.5 -14.5h-208zM230 177q1 0 13.5 12.5t28.5 30.5t30.5 37.5t19.5 34.5h-290v-115h198z" />
    <glyph glyph-name="FL2014h" unicode="&#x2014;" horiz-adv-x="487" 
d="M25 164h-6v141h423q-2 -4 -2 -5l28 -28q-6 -17 -22.5 -40.5t-34.5 -44.5t-32.5 -35.5t-15.5 -14.5h-311zM333 177q1 0 13.5 12.5t28.5 30.5t30.5 37.5t19.5 34.5h-393v-115h301z" />
    <glyph glyph-name="FL2018h" unicode="&#x2018;" horiz-adv-x="219" 
d="M140 524q12 -9 19 -22l16 -15q21 -21 21 -51q0 -29 -20.5 -50t-51.5 -21t-52 21l-16 16q-17 10 -27.5 27t-10.5 37v1q0 37 24.5 72.5t70.5 73.5v-9l27 -27v-53zM156 466q0 24 -16 41.5t-37 17.5h-3v61q-33 -27 -51 -56t-18 -63v-1q0 -25 18.5 -43t44.5 -18t44 18t18 43z
" />
    <glyph glyph-name="FL2019h" unicode="&#x2019;" horiz-adv-x="219" 
d="M19 526q0 30 21.5 52t53.5 22q22 0 39.5 -11t27.5 -28l15 -15q21 -21 21 -50v-1q0 -36 -23 -70.5t-66 -69.5l-28 28q-2 -2 -3 -2.5t-2 -1.5v63q-2 2 -2 3l-16 16q-17 8 -27.5 25.5t-10.5 39.5zM32 526q0 -24 16 -41.5t37 -17.5h3v-61q33 27 51 56t18 63v1q0 25 -18.5 43
t-44.5 18t-44 -18t-18 -43z" />
    <glyph glyph-name="FL201Ah" unicode="&#x201a;" horiz-adv-x="219" 
d="M19 58q0 30 21.5 52t53.5 22q22 0 39.5 -11t27.5 -28l15 -15q21 -21 21 -50v-1q0 -36 -23 -70.5t-66 -69.5l-28 28q-4 -2 -5 -4v64l-2 2l-17 17q-17 8 -27 25t-10 39zM32 58q0 -24 16 -41.5t37 -17.5h3v-61q33 27 51 56t18 63v1q0 25 -18.5 43t-44.5 18t-44 -18t-18 -43z
" />
    <glyph glyph-name="FL201Ch" unicode="&#x201c;" horiz-adv-x="369" 
d="M290 524q12 -9 19 -22l16 -15q21 -21 21 -51q0 -29 -20.5 -50t-51.5 -21t-52 21l-15 15q-8 4 -15 11q-8 -21 -26 -34t-42 -13q-31 0 -52 21l-16 16q-17 10 -27.5 27t-10.5 37v1q0 37 24.5 72.5t70.5 73.5v-9l27 -27v-53q10 -7 18 -20l12 -13q8 31 31.5 60.5t61.5 61.5v-9
l27 -27v-53zM306 466q0 24 -16 41.5t-37 17.5h-3v61q-33 -27 -51 -56t-18 -63v-1q0 -25 18.5 -43t44.5 -18t44 18t18 43zM156 466q0 24 -16 41.5t-37 17.5h-3v61q-33 -27 -51 -56t-18 -63v-1q0 -25 18.5 -43t44.5 -18t44 18t18 43z" />
    <glyph glyph-name="FL201Dh" unicode="&#x201d;" horiz-adv-x="369" 
d="M19 526q0 30 21.5 52t53.5 22q22 0 39.5 -11t26.5 -28l12 -12q8 22 27 36.5t45 14.5q22 0 39.5 -11t27.5 -28l15 -15q21 -21 21 -50v-1q0 -36 -23 -70.5t-66 -69.5l-28 28q-2 -2 -3 -2.5t-2 -1.5v63q-2 2 -2 3l-17 17q-8 4 -12 7q-7 -29 -29 -57t-57 -57l-28 28
q-2 -2 -3 -2.5t-2 -1.5v63q-2 2 -2 3l-16 16q-17 8 -27.5 25.5t-10.5 39.5zM32 526q0 -24 16 -41.5t37 -17.5h3v-61q33 27 51 56t18 63v1q0 25 -18.5 43t-44.5 18t-44 -18t-18 -43zM182 526q0 -24 16 -41.5t37 -17.5h3v-61q33 27 51 56t18 63v1q0 25 -18.5 43t-44.5 18
t-44 -18t-18 -43z" />
    <glyph glyph-name="FL201Eh" unicode="&#x201e;" horiz-adv-x="371" 
d="M19 58q0 30 21.5 52t53.5 22q22 0 39.5 -11t27.5 -28l13 -13q7 22 26.5 37t45.5 15q22 0 39.5 -11t27.5 -28l15 -15q21 -21 21 -50v-1q0 -36 -23 -70.5t-66 -69.5l-28 28q-4 -2 -5 -4v64l-2 2l-17 17q-4 2 -7.5 4.5t-6.5 4.5q-7 -29 -29 -57.5t-57 -58.5l-28 28
q-4 -2 -5 -4v64l-2 2l-17 17q-17 8 -27 25t-10 39zM32 58q0 -24 16 -41.5t37 -17.5h3v-61q33 27 51 56t18 63v1q0 25 -18.5 43t-44.5 18t-44 -18t-18 -43zM184 58q0 -24 16 -41.5t37 -17.5h3v-61q33 27 51 56t18 63v1q0 25 -18.5 43t-44.5 18t-44 -18t-18 -43z" />
    <glyph glyph-name="FL2020h" unicode="&#x2020;" horiz-adv-x="453" 
d="M279 498l27 -27v-78h102q-2 -4 -2 -5l28 -28q-6 -17 -22.5 -40.5t-34.5 -44.5t-32.5 -35.5t-15.5 -14.5h-23v-133q-3 -8 -19.5 -29t-38 -44.5t-44 -44t-38.5 -27.5l-28 28q-4 -2 -5 -3v253h-81l-27 27h-6v141h154q19 23 43 51t63 63v-9zM266 479q-23 -21 -45 -47t-42 -52
h-147v-115h114v-273q13 6 32.5 24.5t38 39.5t32.5 40t17 27v142h33q1 0 13.5 12.5t28.5 30.5t30.5 37.5t19.5 34.5h-125v99z" />
    <glyph glyph-name="FL2021h" unicode="&#x2021;" horiz-adv-x="453" 
d="M279 498l27 -27v-78h102q-2 -4 -2 -5l28 -28q-6 -17 -22.5 -40.5t-34.5 -44.5t-32.5 -35.5t-15.5 -14.5h-23v-7h102q-2 -4 -2 -5l28 -28q-6 -17 -22.5 -40.5t-34.5 -44.5t-32.5 -35.5t-15.5 -14.5h-50q-10 -14 -24.5 -29.5t-30 -29.5t-31 -26t-27.5 -18l-28 28
q-4 -2 -5 -3v78h-81l-27 27h-6v141h114v7h-81l-27 27h-6v141h154q19 23 43 51t63 63v-9zM266 479q-23 -21 -45 -47t-42 -52h-147v-115h114v-60h-114v-115h114v-98q9 4 22 15t26.5 25t26.5 29t23 29h55q1 0 13.5 12.5t28.5 30.5t30.5 37.5t19.5 34.5h-125v60h33
q1 0 13.5 12.5t28.5 30.5t30.5 37.5t19.5 34.5h-125v99z" />
    <glyph glyph-name="FL2022h" unicode="&#x2022;" 
d="M19 401q0 9 7.5 23t19 27.5t24.5 23t24 9.5h328q16 0 33.5 -13.5t28.5 -31.5l12 -11q13 -13 21.5 -28.5t8.5 -28.5v-320q0 -9 -6.5 -24.5t-16.5 -30.5t-23 -25.5t-25 -10.5h-332q-8 0 -16.5 5t-16.5 13l-14 14q-11 6 -21 17.5t-18 24.5t-13 26t-5 21v320zM32 81
q0 -8 5.5 -22t14.5 -27t19.5 -22.5t21.5 -9.5h332q10 0 21 9.5t20 22.5t14.5 27t5.5 22v320q0 10 -6 22t-15.5 22.5t-21 18t-21.5 7.5h-328q-9 0 -20 -8.5t-20 -19.5t-15.5 -23t-6.5 -19v-320z" />
    <glyph glyph-name="FL2026h" unicode="&#x2026;" horiz-adv-x="525" 
d="M19 60q0 30 21.5 52t53.5 22q22 0 39.5 -11t27.5 -28l14 -14q7 23 26.5 38t45.5 15q22 0 39.5 -11t27.5 -28l14 -15q8 23 27 37.5t45 14.5q22 0 39.5 -11t27.5 -28l15 -15q21 -21 21 -50q0 -28 -21 -49t-52 -21q-30 0 -51 21l-16 15q-5 3 -9 6t-8 7q-8 -20 -26.5 -33.5
t-42.5 -13.5q-30 0 -51 21l-16 15q-5 3 -9 6t-8 7q-7 -20 -25.5 -34.5t-43.5 -14.5q-30 0 -51 21l-16 15q-17 9 -27.5 26.5t-10.5 37.5zM32 60q0 -24 18 -42t44 -18t44.5 18t18.5 42q0 25 -18.5 43t-44.5 18t-44 -18t-18 -43zM185 60q0 -24 18 -42t44 -18t44.5 18t18.5 42
q0 25 -18.5 43t-44.5 18t-44 -18t-18 -43zM338 58q0 -24 18 -42t44 -18t44.5 18t18.5 42q0 25 -18.5 43t-44.5 18t-44 -18t-18 -43z" />
    <glyph glyph-name="FL2030h" unicode="&#x2030;" horiz-adv-x="879" 
d="M276 466q1 0 1 -1zM834 173q1 0 1 -1zM145 349h27v39h-27v-39zM703 56h27v39h-27v-39zM457 56h27v39h-27v-39zM19 458q0 6 5.5 15t13 18t16 15t15.5 6h151q12 0 25.5 -11.5t20.5 -24.5l10 -10l1 -1l3 -2q8 -8 13.5 -17.5t5.5 -17.5v-70l84 126h170l-3 -5l28 -28
l-155 -232h109q11 0 24.5 -11t21.5 -24l4 -4q7 13 20.5 26t24.5 13h151q12 0 25.5 -11.5t20.5 -24.5l10 -10l1 -1l3 -2q8 -8 13.5 -17.5t5.5 -17.5v-148q0 -6 -4.5 -15.5t-11 -18.5t-15 -15.5t-17.5 -6.5h-152q-14 0 -25 13l-17 17q-5 2 -11 6q-7 -13 -18.5 -24.5
t-22.5 -11.5h-152q-14 0 -25 13l-17 17q-16 7 -27 26t-11 30v63l-81 -120h-164l-27 27h-8l158 237h-110q-14 0 -25 13l-17 16q-16 8 -27 27t-11 30v148zM743 135v-92h-80v92h80zM590 17q0 -5 3 -12.5t8.5 -15t12 -13t13.5 -5.5h152q7 0 13.5 5.5t12 13t9 15t3.5 12.5v148
q0 6 -3.5 13t-9.5 13t-13 10.5t-13 4.5h-151q-5 0 -11.5 -4.5t-12 -11.5t-9.5 -14t-4 -11v-148zM497 135v-92h-80v92h80zM344 17q0 -5 3 -12.5t8.5 -15t12 -13t13.5 -5.5h152q7 0 13.5 5.5t12 13t9 15t3.5 12.5v148q0 6 -3.5 13t-9.5 13t-13 10.5t-13 4.5h-151
q-5 0 -11.5 -4.5t-12 -11.5t-9.5 -14t-4 -11v-148zM185 428v-92h-80v92h80zM32 310q0 -5 3 -12.5t8.5 -15t12 -13t13.5 -5.5h152q7 0 13.5 5.5t12 13t9 15t3.5 12.5v148q0 6 -3.5 13t-9.5 13t-13 10.5t-13 4.5h-151q-5 0 -11.5 -4.5t-12 -11.5t-9.5 -14t-4 -11v-148zM215 0
l314 471h-140l-314 -471h140z" />
    <glyph glyph-name="FL2039h" unicode="&#x2039;" horiz-adv-x="215" 
d="M19 313l147 112v-9l27 -27v-141l-46 -36l19 -14v-4l27 -27v-141l-141 107l-16 16l-17 13v151zM32 168l121 -92v116l-59 45l59 46v116l-121 -92v-139z" />
    <glyph glyph-name="FL203Ah" unicode="&#x203a;" horiz-adv-x="215" 
d="M152 168l-121 -92v116l59 45l-59 46v116l121 -92v-139zM165 313l-147 112v-148l18 -15l15 -14l16 -13l-49 -37v-148l5 4l28 -28l141 107v149l-27 27v4z" />
    <glyph glyph-name="FL20ACh" unicode="&#x20ac;" horiz-adv-x="613" 
d="M19 231h12l-6 6h-6v101h93v42q0 18 7 36.5t19 33.5t28.5 24t36.5 9h365q-2 -4 -2 -5l28 -28q-6 -17 -22.5 -40.5t-34.5 -44.5t-32.5 -35.5t-15.5 -14.5h-24l10 -10q-4 -8 -13 -18t-21 -20t-24.5 -19.5t-24.5 -16.5h59q-2 -4 -3 -5l28 -28q-9 -14 -33.5 -34t-47.5 -36h173
q-2 -4 -2 -5l28 -28q-6 -17 -22.5 -40.5t-34.5 -44.5t-32.5 -35.5t-15.5 -14.5h-256q-17 0 -31.5 7t-25.5 18l-14 14q-23 14 -36.5 39t-13.5 51v15h-60l-27 27h-6v100zM125 250v-32h-93v-74h93v-55q0 -16 6 -32t16.5 -28.5t24.5 -20.5t31 -8h256q1 0 13.5 12.5t28.5 30.5
t30.5 37.5t19.5 34.5h-306v29h83q1 0 15 8t31 19.5t33.5 24.5t21.5 22h-184v32h83q1 0 15 8t31.5 19.5t33.5 24.5t21 23h-184v30h214q1 0 13.5 12.5t28.5 30.5t30.5 37.5t19.5 34.5h-348q-17 0 -31 -8t-24.5 -21t-16.5 -29t-6 -32v-55h-93v-75h93z" />
    <glyph glyph-name="FL2122h" unicode="&#x2122;" horiz-adv-x="325" 
d="M151 649q4 4 11 4q4 0 14.5 -11t13.5 -22l16 -51l14 40q9 26 17 34.5t21 8.5h5v-117h-13v76l-4 9q-10 -31 -16.5 -48t-10.5 -25.5t-6.5 -10t-3.5 -1.5h-6q-4 0 -5 6l-28 76l-6 -6v-76h-13v114zM32 635v17h100v-17h-41v-100h-18v100h-41zM52 595h8v-73h6l27 -27h38v100h7
v-73h6l27 -27h33v23l19 -19q4 -4 10 -4h6q3 0 7 1.5t10 12.5l14 -14h33v137l-27 27v6h-18q-17 0 -27 -8.5t-21 -36.5l-9 10q-7 13 -20.5 24.5t-18.5 11.5q-10 0 -17 -6v5h-126v-43h6z" />
    </font>
</defs>
</svg>
