<?xml version="1.0" standalone="no"?>
<!DOCTYPE svg PUBLIC "-//W3C//DTD SVG 1.1//EN" "http://www.w3.org/Graphics/SVG/1.1/DTD/svg11.dtd" >
<svg xmlns="http://www.w3.org/2000/svg" xmlns:xlink="http://www.w3.org/1999/xlink" version="1.1">
<metadata>
Created by FontForge 20170731 at Fri Jul 25 20:50:15 2014
 By Aleksey,,,
2014 Iconian Fonts - www.iconian.com
</metadata>
<defs>
<font id="HollowPoint" horiz-adv-x="518" >
  <font-face 
    font-family="Hollow Point"
    font-weight="400"
    font-stretch="normal"
    units-per-em="1000"
    panose-1="0 0 0 0 0 0 0 0 0 0"
    ascent="800"
    descent="-200"
    x-height="470"
    cap-height="479"
    bbox="-214 -179 1186 753"
    underline-thickness="50"
    underline-position="-175"
    unicode-range="U+0020-2122"
  />
<missing-glyph horiz-adv-x="500" 
 />
    <glyph glyph-name=".notdef" horiz-adv-x="500" 
 />
    <glyph glyph-name=".null" horiz-adv-x="0" 
 />
    <glyph glyph-name="nonmarkingreturn" horiz-adv-x="500" 
 />
    <glyph glyph-name="space" unicode=" " horiz-adv-x="346" 
 />
    <glyph glyph-name="space" unicode="&#xa0;" horiz-adv-x="346" 
 />
    <glyph glyph-name="FL0021h" unicode="!" horiz-adv-x="184" 
d="M152 651q-33 -29 -63 -68.5t-57 -74.5v-377q13 6 32.5 24.5t38 39.5t32.5 40t17 27v389zM29 58q0 -24 18 -42t44 -18t44.5 18t18.5 42q0 25 -18.5 43t-44.5 18t-44 -18t-18 -43z" />
    <glyph glyph-name="FL0022h" unicode="&#x22;" horiz-adv-x="339" 
d="M182 526q0 -24 16 -41.5t37 -17.5h3v-61q33 27 51 56t18 63v1q0 25 -18.5 43t-44.5 18t-44 -18t-18 -43zM32 526q0 -24 16 -41.5t37 -17.5h3v-61q33 27 51 56t18 63v1q0 25 -18.5 43t-44.5 18t-44 -18t-18 -43z" />
    <glyph glyph-name="FL0023h" unicode="#" horiz-adv-x="567" 
d="M254 479q-23 -21 -45 -47t-42 -52h-135v-115h102v-60h-102v-115h102v-98q9 4 22 15t26.5 25t26.5 29t23 29h61v-98q9 4 22 15t26.5 25t26.5 29t23 29h52q1 0 13.5 12.5t28.5 30.5t30.5 37.5t19.5 34.5h-122v60h30q1 0 13.5 12.5t28.5 30.5t30.5 37.5t19.5 34.5h-122v99
q-23 -21 -45 -47t-42 -52h-72v99zM293 265v-60h-39v60h39z" />
    <glyph glyph-name="FL0024h" unicode="$" horiz-adv-x="520" 
d="M321 631q-33 -29 -63 -66t-57 -72v-23h-91q-17 0 -31 -8t-24.5 -21t-16.5 -29t-6 -32v-116q0 -16 6 -31.5t16.5 -27.5t24.5 -19.5t31 -7.5h91v-63h-77q-2 0 -14.5 -12.5t-28 -30.5t-30 -37.5t-19.5 -34.5h169v-160q13 6 32.5 24.5t38 39.5t32.5 40t17 27v29h89
q16 0 30.5 8t25 21t16.5 29t6 32v116q0 16 -6.5 31.5t-17 28t-25 20t-30.5 7.5h-88v62h75q1 0 13.5 12.5t28.5 30.5t30.5 37.5t19.5 34.5h-167v161zM368 178v-63h-47v63h47zM152 293v62h49v-62h-49z" />
    <glyph glyph-name="FL0025h" unicode="%" horiz-adv-x="603" 
d="M75 0h140l314 471h-140zM32 310q0 -5 3 -12.5t8.5 -15t12 -13t13.5 -5.5h152q7 0 13.5 5.5t12 13t9 15t3.5 12.5v148q0 6 -3.5 13t-9.5 13t-13 10.5t-13 4.5h-151q-5 0 -11.5 -4.5t-12 -11.5t-9.5 -14t-4 -11v-148zM105 428h80v-92h-80v92zM344 17q0 -5 3 -12.5t8.5 -15
t12 -13t13.5 -5.5h152q7 0 13.5 5.5t12 13t9 15t3.5 12.5v148q0 6 -3.5 13t-9.5 13t-13 10.5t-13 4.5h-151q-5 0 -11.5 -4.5t-12 -11.5t-9.5 -14t-4 -11v-148zM417 135h80v-92h-80v92z" />
    <glyph glyph-name="FL0026h" unicode="&#x26;" horiz-adv-x="475" 
d="M308 628q-35 -17 -63.5 -50t-55.5 -76v-32h-79q-17 0 -31 -8t-24.5 -21t-16.5 -29t-6 -32v-291q0 -16 6 -32t16.5 -28.5t24.5 -20.5t31 -8h78v-160q13 6 32.5 24.5t38 39.5t32.5 40t17 27v29h58q1 0 14 12.5t28.5 30.5t30 37.5t19.5 34.5h-306v64h214q1 0 14 12.5
t28.5 30.5t30 37.5t19.5 34.5h-306v61h214q1 0 14 12.5t28.5 30.5t30 37.5t19.5 34.5h-150v158z" />
    <glyph glyph-name="FL0027h" unicode="'" horiz-adv-x="189" 
d="M32 526q0 -24 16 -41.5t37 -17.5h3v-61q33 27 51 56t18 63v1q0 25 -18.5 43t-44.5 18t-44 -18t-18 -43z" />
    <glyph glyph-name="FL0028h" unicode="(" horiz-adv-x="305" 
d="M206 -115q1 0 13.5 12.5t28.5 30.5t30.5 37.5t19.5 34.5h-146v472h54q1 0 13.5 12.5t28.5 30.5t30.5 37.5t19.5 34.5h-188q-17 0 -31 -8t-24.5 -21t-16.5 -29t-6 -32v-523q0 -16 6 -32t16.5 -28.5t24.5 -20.5t31 -8h96z" />
    <glyph glyph-name="FL0029h" unicode=")" horiz-adv-x="305" 
d="M99 -115q-1 0 -13.5 12.5t-28.5 30.5t-30.5 37.5t-19.5 34.5h146v472h-54q-1 0 -13.5 12.5t-28.5 30.5t-30.5 37.5t-19.5 34.5h188q16 0 30.5 -8t25 -21t16.5 -29t6 -32v-523q0 -16 -6 -32t-16.5 -28.5t-25 -20.5t-30.5 -8h-96z" />
    <glyph glyph-name="FL002Ah" unicode="*" horiz-adv-x="291" 
d="M32 463q0 -5 3 -12.5t8.5 -15t12 -13t13.5 -5.5h152q7 0 13.5 5.5t12 13t9 15t3.5 12.5v148q0 6 -3.5 13t-9.5 13t-13 10.5t-13 4.5h-151q-5 0 -11.5 -4.5t-12 -11.5t-9.5 -14t-4 -11v-148zM107 579h76v-88h-76v88z" />
    <glyph glyph-name="FL002Bh" unicode="+" horiz-adv-x="442" 
d="M171 430v-138h-139v-115h139v-48q0 -1 12.5 -13.5t30.5 -28.5t37.5 -30.5t34.5 -19.5v140h47q1 0 13.5 12.5t28.5 30.5t30.5 37.5t19.5 34.5h-139v138h-115z" />
    <glyph glyph-name="FL002Ch" unicode="," horiz-adv-x="189" 
d="M32 58q0 -24 16 -41.5t37 -17.5h3v-61q33 27 51 56t18 63v1q0 25 -18.5 43t-44.5 18t-44 -18t-18 -43z" />
    <glyph glyph-name="FL002Dh" unicode="-" horiz-adv-x="339" 
d="M32 177h198q1 0 13.5 12.5t28.5 30.5t30.5 37.5t19.5 34.5h-290v-115z" />
    <glyph glyph-name="FL002Eh" unicode="." horiz-adv-x="189" 
d="M32 58q0 -24 18 -42t44 -18t44.5 18t18.5 42q0 25 -18.5 43t-44.5 18t-44 -18t-18 -43z" />
    <glyph glyph-name="FL002Fh" unicode="/" 
d="M32 0h140l314 471h-140z" />
    <glyph glyph-name="FL0030h" unicode="0" 
d="M32 81q0 -8 5.5 -22t14.5 -27t19.5 -22.5t21.5 -9.5h332q10 0 21 9.5t20 22.5t14.5 27t5.5 22v320q0 10 -6 22t-15.5 22.5t-21 18t-21.5 7.5h-328q-9 0 -20 -8.5t-20 -19.5t-15.5 -23t-6.5 -19v-320zM152 117v240h214v-240h-214z" />
    <glyph glyph-name="FL0031h" unicode="1" horiz-adv-x="184" 
d="M152 480q-33 -29 -63 -68.5t-57 -74.5v-338q13 6 32.5 24.5t38 39.5t32.5 40t17 27v350z" />
    <glyph glyph-name="FL0032h" unicode="2" horiz-adv-x="520" 
d="M368 293v62h-244q-2 0 -14.5 12.5t-28 30.5t-30 37.5t-19.5 34.5h378q16 0 30.5 -8t25 -21t16.5 -29t6 -32v-116q0 -16 -6 -31.5t-16.5 -27.5t-25 -19.5t-30.5 -7.5h-258v-63h244q1 0 13.5 -12.5t28.5 -30.5t30.5 -37.5t19.5 -34.5h-378q-17 0 -31 8t-24.5 21t-16.5 29
t-6 32v116q0 16 6.5 31.5t17 28t25 20t30.5 7.5h257z" />
    <glyph glyph-name="FL0033h" unicode="3" horiz-adv-x="475" 
d="M109 470q-2 0 -14.5 -12.5t-28 -30.5t-30 -37.5t-19.5 -34.5h306v-64h-214q-2 0 -14.5 -12.5t-28 -30.5t-30 -37.5t-19.5 -34.5h306v-61h-214q-2 0 -14.5 -12.5t-28 -30.5t-30 -37.5t-19.5 -34.5h348q16 0 30.5 8t25 21t16.5 29t6 32v291q0 16 -6 32t-16.5 28.5t-25 20.5
t-30.5 8h-256z" />
    <glyph glyph-name="FL0034h" unicode="4" 
d="M486 480q-14 -3 -33.5 -21t-37.5 -39.5t-32 -42t-17 -28.5v-55h-214v177h-120v-213q0 -8 5.5 -22t14.5 -27t19.5 -22.5t21.5 -9.5h273v-178q13 6 32.5 24.5t38 39.5t32.5 40t17 27v350z" />
    <glyph glyph-name="FL0035h" unicode="5" horiz-adv-x="520" 
d="M152 293v62h184q1 0 13.5 12.5t28.5 30.5t30.5 37.5t19.5 34.5h-345q-26 0 -38.5 -14t-12.5 -36v-156q0 -16 6 -31.5t16.5 -27.5t24.5 -19.5t31 -7.5h258v-63h-244q-2 0 -14.5 -12.5t-28 -30.5t-30 -37.5t-19.5 -34.5h378q16 0 30.5 8t25 21t16.5 29t6 32v116
q0 16 -6.5 31.5t-17 28t-25 20t-30.5 7.5h-257z" />
    <glyph glyph-name="FL0036h" unicode="6" horiz-adv-x="503" 
d="M152 293v62h334q-37 55 -65 85t-29 30h-291q-11 0 -23 -7.5t-22 -18t-17 -22.5t-7 -22v-330q0 -11 7.5 -23t18 -22.5t22.5 -17.5t22 -7h300q13 0 25.5 6.5t22.5 16.5t16 22.5t6 24.5v150q0 11 -6 24t-15 24t-19.5 18t-19.5 7h-260zM353 138q0 -6 -1.5 -14.5t-9.5 -8.5
h-190v155l90 -92h100q7 0 9 -8t2 -15v-17z" />
    <glyph glyph-name="FL0037h" unicode="7" horiz-adv-x="490" 
d="M298 355h-189q-2 0 -14.5 12.5t-28 30.5t-30 37.5t-19.5 34.5h382q16 0 29.5 -8t23.5 -21t15.5 -29t5.5 -32l-220 -380h-162z" />
    <glyph glyph-name="FL0038h" unicode="8" 
d="M32 81q0 -8 5.5 -22t14.5 -27t19.5 -22.5t21.5 -9.5h332q10 0 21 9.5t20 22.5t14.5 27t5.5 22v320q0 10 -6 22t-15.5 22.5t-21 18t-21.5 7.5h-328q-9 0 -20 -8.5t-20 -19.5t-15.5 -23t-6.5 -19v-320zM152 117v59h135q1 0 10 8.5t21 21.5t25 28.5t23 30.5v-148h-214z
M152 357h214v-66h-214v66z" />
    <glyph glyph-name="FL0039h" unicode="9" horiz-adv-x="503" 
d="M351 177v-62h-334q37 -55 65 -85t29 -30h291q10 0 22.5 7.5t22.5 18t17 22.5t7 22v330q0 10 -7.5 22.5t-18 23t-22.5 17.5t-22 7h-300q-13 0 -25.5 -6.5t-22.5 -16.5t-16 -22.5t-6 -24.5v-150q0 -11 6 -24t15 -24t19.5 -18t19.5 -7h260zM150 332q0 6 1.5 14.5t9.5 8.5
h190v-155l-90 92h-100q-7 0 -9 8t-2 15v17z" />
    <glyph glyph-name="FL003Ah" unicode=":" horiz-adv-x="189" 
d="M32 58q0 -24 18 -42t44 -18t44.5 18t18.5 42q0 25 -18.5 43t-44.5 18t-44 -18t-18 -43zM32 294q0 -24 18 -42t44 -18t44.5 18t18.5 42q0 25 -18.5 43t-44.5 18t-44 -18t-18 -43z" />
    <glyph glyph-name="FL003Bh" unicode=";" horiz-adv-x="189" 
d="M32 294q0 -24 18 -42t44 -18t44.5 18t18.5 42q0 25 -18.5 43t-44.5 18t-44 -18t-18 -43zM32 58q0 -24 16 -41.5t37 -17.5h3v-61q33 27 51 56t18 63v1q0 25 -18.5 43t-44.5 18t-44 -18t-18 -43z" />
    <glyph glyph-name="FL003Ch" unicode="&#x3c;" horiz-adv-x="331" 
d="M17 235l157 -235h140l-157 235l157 236h-140z" />
    <glyph glyph-name="FL003Dh" unicode="=" horiz-adv-x="423" 
d="M32 265h267q1 0 13.5 12.5t28.5 30.5t30.5 37.5t19.5 34.5h-359v-115zM32 90h267q1 0 13.5 12.5t28.5 30.5t30.5 37.5t19.5 34.5h-359v-115z" />
    <glyph glyph-name="FL003Eh" unicode="&#x3e;" horiz-adv-x="331" 
d="M314 235l-157 -235h-140l157 235l-157 236h140z" />
    <glyph glyph-name="FL003Fh" unicode="?" horiz-adv-x="520" 
d="M111 470q-16 0 -30.5 -7.5t-25 -20t-17 -28t-6.5 -31.5v-252q13 6 32.5 24.5t38 39.5t32.5 40t17 27v94h258q16 0 30.5 7.5t25 19.5t16.5 27.5t6 31.5v119q0 16 -6 32t-16.5 29t-25 21t-30.5 8h-378q5 -15 19.5 -34.5t30 -37.5t28 -30.5t14.5 -12.5h244v-66h-257zM29 58
q0 -24 18 -42t44 -18t44.5 18t18.5 42q0 25 -18.5 43t-44.5 18t-44 -18t-18 -43z" />
    <glyph glyph-name="FL0040h" unicode="@" horiz-adv-x="637" 
d="M434 -115q1 0 13.5 12.5t28.5 30.5t30.5 37.5t19.5 34.5h-374v355h333v-210h-48v114q0 6 -3.5 13t-9.5 13t-13 10.5t-13 4.5h-161q-5 0 -11.5 -4.5t-12 -11.5t-9.5 -14t-4 -11v-158q0 -5 3 -12.5t8.5 -15t12 -13t13.5 -5.5h290q16 0 30.5 8t25 21t16.5 29t6 32v235
q0 16 -6 32t-16.5 29t-25 21t-30.5 8h-417q-17 0 -31 -8t-24.5 -21t-16.5 -29t-6 -32v-406q0 -16 6 -32t16.5 -28.5t24.5 -20.5t31 -8h324zM290 212h56v-68h-56v68z" />
    <glyph glyph-name="FL0041h" unicode="A" horiz-adv-x="503" 
d="M351 293v62h-334q37 55 65 85t29 30h291q10 0 22.5 -7.5t22.5 -18t17 -22.5t7 -22v-330q0 -11 -7.5 -23t-18 -22.5t-22.5 -17.5t-22 -7h-300q-13 0 -25.5 6.5t-22.5 16.5t-16 22.5t-6 24.5v150q0 11 6 24t15 24t19.5 18t19.5 7h260zM150 138q0 -6 1.5 -14.5t9.5 -8.5h190
v155l-90 -92h-100q-7 0 -9 -8t-2 -15v-17z" />
    <glyph glyph-name="FL0042h" unicode="B" 
d="M240 354q-29 24 -50 48t-38 48v-336h214v240h-126zM32 650q38 -33 70.5 -75.5t49.5 -88.5q2 -4 5.5 -9.5t4.5 -5.5h263q10 0 21 -9.5t20 -22.5t14.5 -27t5.5 -22v-320q0 -10 -6 -22t-15.5 -22.5t-21 -18t-21.5 -7.5h-328q-9 0 -20 8.5t-20 19.5t-15.5 23t-6.5 19v580z
" />
    <glyph glyph-name="FL0043h" unicode="C" horiz-adv-x="475" 
d="M366 0q1 0 13.5 12.5t28.5 30.5t30.5 37.5t19.5 34.5h-306v240h214q1 0 13.5 12.5t28.5 30.5t30.5 37.5t19.5 34.5h-348q-17 0 -31 -8t-24.5 -21t-16.5 -29t-6 -32v-291q0 -16 6 -32t16.5 -28.5t24.5 -20.5t31 -8h256z" />
    <glyph glyph-name="FL0044h" unicode="D" 
d="M278 354q29 24 50 48t38 48v-336h-214v240h126zM486 650q-38 -33 -70.5 -75.5t-49.5 -88.5q-2 -4 -5.5 -9.5t-4.5 -5.5h-263q-11 0 -21.5 -9.5t-19.5 -22.5t-14.5 -27t-5.5 -22v-320q0 -10 6 -22t15.5 -22.5t20.5 -18t22 -7.5h328q9 0 20 8.5t20 19.5t15.5 23t6.5 19v580
z" />
    <glyph glyph-name="FL0045h" unicode="E" horiz-adv-x="503" 
d="M152 177v-62h334q-37 -55 -65 -85t-29 -30h-291q-11 0 -23 7.5t-22 18t-17 22.5t-7 22v330q0 10 7.5 22.5t18 23t22.5 17.5t22 7h300q13 0 25.5 -6.5t22.5 -16.5t16 -22.5t6 -24.5v-150q0 -11 -6 -24t-15 -24t-19.5 -18t-19.5 -7h-260zM353 332q0 6 -1.5 14.5t-9.5 8.5
h-190v-155l90 92h100q7 0 9 8t2 15v17z" />
    <glyph glyph-name="FL0046h" unicode="F" horiz-adv-x="416" 
d="M110 470q-17 0 -31 -8t-24.5 -21t-16.5 -29t-6 -32v-559q13 6 32.5 24.5t38 39.5t32.5 40t17 27v165h129q1 0 13.5 12.5t28.5 30.5t30.5 37.5t19.5 34.5h-221v123h155q1 0 13.5 12.5t28.5 30.5t30.5 37.5t19.5 34.5h-289z" />
    <glyph glyph-name="FL0047h" unicode="G" 
d="M366 -65h-210q-20 -20 -38.5 -48t-41.5 -66h350q13 0 24 7.5t19 19.5t12.5 26t4.5 27v499q0 10 -6.5 22t-15.5 22.5t-20 18t-20 7.5h-328q-11 0 -22 -7.5t-20.5 -18t-15.5 -22.5t-6 -22v-319q0 -8 5.5 -22t14 -27t19.5 -22.5t22 -9.5h186l87 90v-155zM152 117v239h214
v-239h-214z" />
    <glyph glyph-name="FL0048h" unicode="H" 
d="M152 651q-38 -26 -67 -65.5t-53 -77.5v-517q13 6 32.5 24.5t38 39.5t32.5 40t17 27v231h214v-353h120v389q0 8 -5.5 22t-14.5 27t-20 22.5t-21 9.5h-273v181z" />
    <glyph glyph-name="FL0049h" unicode="I" horiz-adv-x="184" 
d="M152 479q-33 -29 -63 -68.5t-57 -74.5v-344q13 6 32.5 24.5t38 39.5t32.5 40t17 27v356z" />
    <glyph glyph-name="FL004Ah" unicode="J" horiz-adv-x="184" 
d="M32 -65h-166q-20 -20 -38.5 -48t-41.5 -66h307q13 0 24 7.5t18.5 19.5t12 26t4.5 27v569h-120v-535zM152 651q-33 -29 -63 -68.5t-57 -74.5h120v143z" />
    <glyph glyph-name="FL004Bh" unicode="K" horiz-adv-x="503" 
d="M152 177h75l119 -177h140l-157 235l157 236h-140l-119 -179h-75v359q-33 -29 -63 -68.5t-57 -74.5v-517q13 6 32.5 24.5t38 39.5t32.5 40t17 27v55z" />
    <glyph glyph-name="FL004Ch" unicode="L" horiz-adv-x="184" 
d="M152 651q-33 -29 -63 -68.5t-57 -74.5v-509q13 6 32.5 24.5t38 39.5t32.5 40t17 27v521z" />
    <glyph glyph-name="FL004Dh" unicode="M" horiz-adv-x="663" 
d="M272 -9q35 29 65.5 60.5t54.5 70.5v232h119v-354h120v390q0 8 -5.5 22t-14.5 27t-20 22.5t-21 9.5h-477q-11 0 -21.5 -9.5t-19.5 -22.5t-14.5 -27t-5.5 -22v-399q13 6 32.5 24.5t38 39.5t32.5 40t17 27v232h120v-363z" />
    <glyph glyph-name="FL004Eh" unicode="N" 
d="M152 353h214v-353h120v389q0 8 -5.5 22t-14.5 27t-20 22.5t-21 9.5h-332q-11 0 -21.5 -9.5t-19.5 -22.5t-14.5 -27t-5.5 -22v-398q13 6 32.5 24.5t38 39.5t32.5 40t17 27v231z" />
    <glyph glyph-name="FL004Fh" unicode="O" 
d="M32 81q0 -8 5.5 -22t14.5 -27t19.5 -22.5t21.5 -9.5h332q10 0 21 9.5t20 22.5t14.5 27t5.5 22v320q0 10 -6 22t-15.5 22.5t-21 18t-21.5 7.5h-328q-9 0 -20 -8.5t-20 -19.5t-15.5 -23t-6.5 -19v-320zM152 117v240h214v-240h-214z" />
    <glyph glyph-name="FL0050h" unicode="P" 
d="M32 -179v580q0 7 6.5 19t15.5 23t20 19.5t20 8.5h328q10 0 21.5 -7.5t21 -18t15.5 -22.5t6 -22v-320q0 -8 -5.5 -22t-14.5 -27t-20 -22.5t-21 -9.5h-263q-1 0 -4.5 -5.5t-5.5 -9.5q-17 -46 -49.5 -88.5t-70.5 -75.5zM366 117v240h-214v-336q22 29 44 53t45 43h125z" />
    <glyph glyph-name="FL0051h" unicode="Q" 
d="M486 -179v580q0 7 -6.5 19t-15.5 23t-20 19.5t-20 8.5h-328q-11 0 -22 -7.5t-20.5 -18t-15.5 -22.5t-6 -22v-320q0 -8 5.5 -22t14.5 -27t19.5 -22.5t21.5 -9.5h263q1 0 4.5 -5.5t5.5 -9.5q17 -46 49.5 -88.5t70.5 -75.5zM152 117v240h214v-336q-22 29 -44 53t-45 43h-125
z" />
    <glyph glyph-name="FL0052h" unicode="R" horiz-adv-x="416" 
d="M399 470q-5 -15 -19.5 -34.5t-30.5 -37.5t-28.5 -30.5t-13.5 -12.5h-155v-225q-3 -8 -17 -27t-32.5 -40t-38 -39.5t-32.5 -24.5v381q0 16 6 32t16.5 29t24.5 21t31 8h289z" />
    <glyph glyph-name="FL0053h" unicode="S" horiz-adv-x="520" 
d="M152 293v62h244q1 0 13.5 12.5t28.5 30.5t30.5 37.5t19.5 34.5h-378q-17 0 -31 -8t-24.5 -21t-16.5 -29t-6 -32v-116q0 -16 6 -31.5t16.5 -27.5t24.5 -19.5t31 -7.5h258v-63h-244q-2 0 -14.5 -12.5t-28 -30.5t-30 -37.5t-19.5 -34.5h378q16 0 30.5 8t25 21t16.5 29t6 32
v116q0 16 -6.5 31.5t-17 28t-25 20t-30.5 7.5h-257z" />
    <glyph glyph-name="FL0054h" unicode="T" horiz-adv-x="417" 
d="M152 651q-33 -29 -63 -68.5t-57 -74.5v-419q0 -16 6 -32t16.5 -28.5t24.5 -20.5t31 -8h198q1 0 13.5 12.5t28.5 30.5t30.5 37.5t19.5 34.5h-248v240h156q1 0 13.5 12.5t28.5 30.5t30.5 37.5t19.5 34.5h-248v181z" />
    <glyph glyph-name="FL0055h" unicode="U" 
d="M366 117h-214v354h-120v-390q0 -8 5.5 -22t14.5 -27t19.5 -22.5t21.5 -9.5h332q10 0 21 9.5t20 22.5t14.5 27t5.5 22v399q-14 -6 -33.5 -24.5t-37.5 -40t-32 -40.5t-17 -26v-232z" />
    <glyph glyph-name="FL0056h" unicode="V" horiz-adv-x="488" 
d="M144 471h-127l143 -414q11 -20 27.5 -34.5t33.5 -22.5h47q19 8 35 21.5t31 35.5l137 414h-127l-100 -296z" />
    <glyph glyph-name="FL0057h" unicode="W" horiz-adv-x="663" 
d="M391 480q-34 -27 -65 -59.5t-55 -71.5v-232h-119v354h-120v-390q0 -8 5.5 -22t14.5 -27t19.5 -22.5t21.5 -9.5h477q10 0 21 9.5t20 22.5t14.5 27t5.5 22v399q-14 -6 -33.5 -24.5t-37.5 -40t-32 -40.5t-17 -26v-232h-120v363z" />
    <glyph glyph-name="FL0058h" unicode="X" horiz-adv-x="488" 
d="M157 471h-140l157 -236l-157 -235h140l87 130l87 -130h140l-157 235l157 236h-140l-87 -131z" />
    <glyph glyph-name="FL0059h" unicode="Y" 
d="M366 -65h-210q-20 -20 -38.5 -48t-41.5 -66h350q13 0 24 7.5t19 19.5t12.5 26t4.5 27v579q-14 -6 -33.5 -24.5t-37.5 -40t-32 -40.5t-17 -26v-232h-214v354h-120v-390q0 -8 5.5 -22t14.5 -27t19.5 -22.5t21.5 -9.5h273v-65z" />
    <glyph glyph-name="FL005Ah" unicode="Z" horiz-adv-x="520" 
d="M295 355h-171q-2 0 -14.5 12.5t-28 30.5t-30 37.5t-19.5 34.5h382q16 0 29.5 -8t23.5 -21t15.5 -29t5.5 -32l-265 -265h173q1 0 13.5 -12.5t28.5 -30.5t30.5 -37.5t19.5 -34.5h-382q-16 0 -29.5 8t-23.5 21t-15.5 29t-5.5 32z" />
    <glyph glyph-name="FL005Bh" unicode="[" horiz-adv-x="305" 
d="M206 -115q1 0 13.5 12.5t28.5 30.5t30.5 37.5t19.5 34.5h-146v472h54q1 0 13.5 12.5t28.5 30.5t30.5 37.5t19.5 34.5h-266v-702h174z" />
    <glyph glyph-name="FL005Ch" unicode="\" 
d="M486 0h-140l-314 471h140z" />
    <glyph glyph-name="FL005Dh" unicode="]" horiz-adv-x="305" 
d="M99 -115q-1 0 -13.5 12.5t-28.5 30.5t-30.5 37.5t-19.5 34.5h146v472h-54q-1 0 -13.5 12.5t-28.5 30.5t-30.5 37.5t-19.5 34.5h266v-702h-174z" />
    <glyph glyph-name="FL0061h" unicode="^" horiz-adv-x="488" 
d="M144 0h-127l143 414q11 20 27.5 34.5t33.5 22.5h47q19 -8 35 -21.5t31 -35.5l137 -414h-127l-100 296z" />
    <glyph glyph-name="FL005Fh" unicode="_" horiz-adv-x="456" 
d="M32 0h300q1 0 13.5 12.5t28.5 30.5t30.5 37.5t19.5 34.5h-392v-115z" />
    <glyph glyph-name="FL0060h" unicode="`" horiz-adv-x="242" 
d="M133 643l92 -121h-116l-92 121h116z" />
    <glyph glyph-name="a" unicode="a" horiz-adv-x="503" 
d="M351 293v62h-334q37 55 65 85t29 30h291q10 0 22.5 -7.5t22.5 -18t17 -22.5t7 -22v-330q0 -11 -7.5 -23t-18 -22.5t-22.5 -17.5t-22 -7h-300q-13 0 -25.5 6.5t-22.5 16.5t-16 22.5t-6 24.5v150q0 11 6 24t15 24t19.5 18t19.5 7h260zM150 138q0 -6 1.5 -14.5t9.5 -8.5h190
v155l-90 -92h-100q-7 0 -9 -8t-2 -15v-17z" />
    <glyph glyph-name="FL0062h" unicode="b" 
d="M240 354q-29 24 -50 48t-38 48v-336h214v240h-126zM32 650q38 -33 70.5 -75.5t49.5 -88.5q2 -4 5.5 -9.5t4.5 -5.5h263q10 0 21 -9.5t20 -22.5t14.5 -27t5.5 -22v-320q0 -10 -6 -22t-15.5 -22.5t-21 -18t-21.5 -7.5h-328q-9 0 -20 8.5t-20 19.5t-15.5 23t-6.5 19v580z
" />
    <glyph glyph-name="FL0063h" unicode="c" horiz-adv-x="475" 
d="M366 0q1 0 13.5 12.5t28.5 30.5t30.5 37.5t19.5 34.5h-306v240h214q1 0 13.5 12.5t28.5 30.5t30.5 37.5t19.5 34.5h-348q-17 0 -31 -8t-24.5 -21t-16.5 -29t-6 -32v-291q0 -16 6 -32t16.5 -28.5t24.5 -20.5t31 -8h256z" />
    <glyph glyph-name="d" unicode="d" 
d="M278 354q29 24 50 48t38 48v-336h-214v240h126zM486 650q-38 -33 -70.5 -75.5t-49.5 -88.5q-2 -4 -5.5 -9.5t-4.5 -5.5h-263q-11 0 -21.5 -9.5t-19.5 -22.5t-14.5 -27t-5.5 -22v-320q0 -10 6 -22t15.5 -22.5t20.5 -18t22 -7.5h328q9 0 20 8.5t20 19.5t15.5 23t6.5 19v580
z" />
    <glyph glyph-name="FL0065h" unicode="e" horiz-adv-x="503" 
d="M152 177v-62h334q-37 -55 -65 -85t-29 -30h-291q-11 0 -23 7.5t-22 18t-17 22.5t-7 22v330q0 10 7.5 22.5t18 23t22.5 17.5t22 7h300q13 0 25.5 -6.5t22.5 -16.5t16 -22.5t6 -24.5v-150q0 -11 -6 -24t-15 -24t-19.5 -18t-19.5 -7h-260zM353 332q0 6 -1.5 14.5t-9.5 8.5
h-190v-155l90 92h100q7 0 9 8t2 15v17z" />
    <glyph glyph-name="FL0066h" unicode="f" horiz-adv-x="416" 
d="M110 470q-17 0 -31 -8t-24.5 -21t-16.5 -29t-6 -32v-559q13 6 32.5 24.5t38 39.5t32.5 40t17 27v165h129q1 0 13.5 12.5t28.5 30.5t30.5 37.5t19.5 34.5h-221v123h155q1 0 13.5 12.5t28.5 30.5t30.5 37.5t19.5 34.5h-289z" />
    <glyph glyph-name="FL0067h" unicode="g" 
d="M366 -65h-210q-20 -20 -38.5 -48t-41.5 -66h350q13 0 24 7.5t19 19.5t12.5 26t4.5 27v499q0 10 -6.5 22t-15.5 22.5t-20 18t-20 7.5h-328q-11 0 -22 -7.5t-20.5 -18t-15.5 -22.5t-6 -22v-319q0 -8 5.5 -22t14 -27t19.5 -22.5t22 -9.5h186l87 90v-155zM152 117v239h214
v-239h-214z" />
    <glyph glyph-name="FL0068h" unicode="h" 
d="M152 651q-33 -29 -63 -68.5t-57 -74.5v-517q13 6 32.5 24.5t38 39.5t32.5 40t17 27v231h214v-353h120v389q0 8 -5.5 22t-14.5 27t-20 22.5t-21 9.5h-273v181z" />
    <glyph glyph-name="i" unicode="i" horiz-adv-x="184" 
d="M152 508h-120q27 35 57 74.5t63 68.5v-143zM152 470v-340q-3 -8 -17 -27t-32.5 -40t-38 -39.5t-32.5 -24.5v471h120z" />
    <glyph glyph-name="FL006Bh" unicode="j" horiz-adv-x="184" 
d="M32 -65h-166q-20 -20 -38.5 -48t-41.5 -66h307q13 0 24 7.5t18.5 19.5t12 26t4.5 27v569h-120v-535zM152 651q-33 -29 -63 -68.5t-57 -74.5h120v143z" />
    <glyph glyph-name="FL0072h" unicode="k" horiz-adv-x="503" 
d="M152 177h75l119 -177h140l-157 235l157 236h-140l-119 -179h-75v359q-33 -29 -63 -68.5t-57 -74.5v-517q13 6 32.5 24.5t38 39.5t32.5 40t17 27v55z" />
    <glyph glyph-name="FL006Ch" unicode="l" horiz-adv-x="184" 
d="M152 651q-33 -29 -63 -68.5t-57 -74.5v-516q13 6 32.5 24.5t38 39.5t32.5 40t17 27v528z" />
    <glyph glyph-name="FL006Dh" unicode="m" horiz-adv-x="663" 
d="M272 -9q35 29 65.5 60.5t54.5 70.5v232h119v-354h120v390q0 8 -5.5 22t-14.5 27t-20 22.5t-21 9.5h-477q-11 0 -21.5 -9.5t-19.5 -22.5t-14.5 -27t-5.5 -22v-399q13 6 32.5 24.5t38 39.5t32.5 40t17 27v232h120v-363z" />
    <glyph glyph-name="FL006Eh" unicode="n" 
d="M152 353h214v-353h120v389q0 8 -5.5 22t-14.5 27t-20 22.5t-21 9.5h-332q-11 0 -21.5 -9.5t-19.5 -22.5t-14.5 -27t-5.5 -22v-398q13 6 32.5 24.5t38 39.5t32.5 40t17 27v231z" />
    <glyph glyph-name="FL006Fh" unicode="o" 
d="M32 81q0 -8 5.5 -22t14.5 -27t19.5 -22.5t21.5 -9.5h332q10 0 21 9.5t20 22.5t14.5 27t5.5 22v320q0 10 -6 22t-15.5 22.5t-21 18t-21.5 7.5h-328q-9 0 -20 -8.5t-20 -19.5t-15.5 -23t-6.5 -19v-320zM152 117v240h214v-240h-214z" />
    <glyph glyph-name="FL0070h" unicode="p" 
d="M32 -179v580q0 7 6.5 19t15.5 23t20 19.5t20 8.5h328q10 0 21.5 -7.5t21 -18t15.5 -22.5t6 -22v-320q0 -8 -5.5 -22t-14.5 -27t-20 -22.5t-21 -9.5h-263q-1 0 -4.5 -5.5t-5.5 -9.5q-17 -46 -49.5 -88.5t-70.5 -75.5zM366 117v240h-214v-336q22 29 44 53t45 43h125z" />
    <glyph glyph-name="FL0071h" unicode="q" 
d="M486 -179v580q0 7 -6.5 19t-15.5 23t-20 19.5t-20 8.5h-328q-11 0 -22 -7.5t-20.5 -18t-15.5 -22.5t-6 -22v-320q0 -8 5.5 -22t14.5 -27t19.5 -22.5t21.5 -9.5h263q1 0 4.5 -5.5t5.5 -9.5q17 -46 49.5 -88.5t70.5 -75.5zM152 117v240h214v-336q-22 29 -44 53t-45 43h-125
z" />
    <glyph glyph-name="r" unicode="r" horiz-adv-x="416" 
d="M399 470q-5 -15 -19.5 -34.5t-30.5 -37.5t-28.5 -30.5t-13.5 -12.5h-155v-225q-3 -8 -17 -27t-32.5 -40t-38 -39.5t-32.5 -24.5v381q0 16 6 32t16.5 29t24.5 21t31 8h289z" />
    <glyph glyph-name="FL0073h" unicode="s" horiz-adv-x="520" 
d="M152 293v62h244q1 0 13.5 12.5t28.5 30.5t30.5 37.5t19.5 34.5h-378q-17 0 -31 -8t-24.5 -21t-16.5 -29t-6 -32v-116q0 -16 6 -31.5t16.5 -27.5t24.5 -19.5t31 -7.5h258v-63h-244q-2 0 -14.5 -12.5t-28 -30.5t-30 -37.5t-19.5 -34.5h378q16 0 30.5 8t25 21t16.5 29t6 32
v116q0 16 -6.5 31.5t-17 28t-25 20t-30.5 7.5h-257z" />
    <glyph glyph-name="FL0074h" unicode="t" horiz-adv-x="417" 
d="M152 651q-33 -29 -63 -68.5t-57 -74.5v-419q0 -16 6 -32t16.5 -28.5t24.5 -20.5t31 -8h198q1 0 13.5 12.5t28.5 30.5t30.5 37.5t19.5 34.5h-248v240h156q1 0 13.5 12.5t28.5 30.5t30.5 37.5t19.5 34.5h-248v181z" />
    <glyph glyph-name="FL0075h" unicode="u" 
d="M366 117h-214v354h-120v-390q0 -8 5.5 -22t14.5 -27t19.5 -22.5t21.5 -9.5h332q10 0 21 9.5t20 22.5t14.5 27t5.5 22v399q-14 -6 -33.5 -24.5t-37.5 -40t-32 -40.5t-17 -26v-232z" />
    <glyph glyph-name="FL0076h" unicode="v" horiz-adv-x="488" 
d="M144 471h-127l143 -414q11 -20 27.5 -34.5t33.5 -22.5h47q19 8 35 21.5t31 35.5l137 414h-127l-100 -296z" />
    <glyph glyph-name="FL0077h" unicode="w" horiz-adv-x="663" 
d="M391 480q-34 -27 -65 -59.5t-55 -71.5v-232h-119v354h-120v-390q0 -8 5.5 -22t14.5 -27t19.5 -22.5t21.5 -9.5h477q10 0 21 9.5t20 22.5t14.5 27t5.5 22v399q-14 -6 -33.5 -24.5t-37.5 -40t-32 -40.5t-17 -26v-232h-120v363z" />
    <glyph glyph-name="FL0078h" unicode="x" horiz-adv-x="488" 
d="M157 471h-140l157 -236l-157 -235h140l87 130l87 -130h140l-157 235l157 236h-140l-87 -131z" />
    <glyph glyph-name="FL0079h" unicode="y" 
d="M366 -65h-210q-20 -20 -38.5 -48t-41.5 -66h350q13 0 24 7.5t19 19.5t12.5 26t4.5 27v579q-14 -6 -33.5 -24.5t-37.5 -40t-32 -40.5t-17 -26v-232h-214v354h-120v-390q0 -8 5.5 -22t14.5 -27t19.5 -22.5t21.5 -9.5h273v-65z" />
    <glyph glyph-name="FL007Ah" unicode="z" horiz-adv-x="520" 
d="M295 355h-171q-2 0 -14.5 12.5t-28 30.5t-30 37.5t-19.5 34.5h382q16 0 29.5 -8t23.5 -21t15.5 -29t5.5 -32l-265 -265h173q1 0 13.5 -12.5t28.5 -30.5t30.5 -37.5t19.5 -34.5h-382q-16 0 -29.5 8t-23.5 21t-15.5 29t-5.5 32z" />
    <glyph glyph-name="FL007Bh" unicode="{" horiz-adv-x="414" 
d="M219 -115q-17 0 -31 8t-24.5 20.5t-16.5 28.5t-6 32v203h-32q-1 0 -13.5 12.5t-28.5 30.5t-30.5 37.5t-19.5 34.5h124v205q0 16 6 32t16.5 29t24.5 21t31 8h188q-5 -15 -19.5 -34.5t-30.5 -37.5t-28.5 -30.5t-13.5 -12.5h-54v-472h146q-5 -15 -19.5 -34.5t-30.5 -37.5
t-28.5 -30.5t-13.5 -12.5h-96z" />
    <glyph glyph-name="FL007Ch" unicode="|" horiz-adv-x="184" 
d="M152 753q-33 -29 -63 -68.5t-57 -74.5v-770q13 6 32.5 24.5t38 39.5t32.5 40t17 27v782z" />
    <glyph glyph-name="FL007Dh" unicode="}" horiz-adv-x="414" 
d="M195 -115q16 0 30.5 8t25 20.5t16.5 28.5t6 32v203h32q1 0 13.5 12.5t28.5 30.5t30.5 37.5t19.5 34.5h-124v205q0 16 -6 32t-16.5 29t-25 21t-30.5 8h-188q5 -15 19.5 -34.5t30.5 -37.5t28.5 -30.5t13.5 -12.5h54v-472h-146q5 -15 19.5 -34.5t30.5 -37.5t28.5 -30.5
t13.5 -12.5h96z" />
    <glyph glyph-name="FL007Eh" unicode="~" horiz-adv-x="414" 
d="M197 292h-91l-89 -116h112l44 56l44 -56h91l89 116h-112l-43 -56z" />
    <glyph glyph-name="FL007Fh" horiz-adv-x="187" 
 />
    <glyph glyph-name="FL00A1h" unicode="&#xa1;" horiz-adv-x="189" 
d="M34 -3q33 29 63 68.5t57 74.5v377q-13 -6 -32.5 -24.5t-38 -39.5t-32.5 -40t-17 -27v-389zM157 590q0 24 -18 42t-44 18t-44.5 -18t-18.5 -42q0 -25 18.5 -43t44.5 -18t44 18t18 43z" />
    <glyph glyph-name="FL00A2h" unicode="&#xa2;" horiz-adv-x="490" 
d="M327 571q-33 -29 -63 -66t-57 -72v-13h-97q-17 0 -31 -8t-24.5 -21t-16.5 -29t-6 -32v-191q0 -16 6 -32t16.5 -28.5t24.5 -20.5t31 -8h97v-150q13 6 32.5 24.5t38 39.5t32.5 40t17 27v19h39q1 0 13.5 12.5t28.5 30.5t30.5 37.5t19.5 34.5h-131v140h39q1 0 13.5 12.5
t28.5 30.5t30.5 37.5t19.5 34.5h-131v151zM152 305h55v-140h-55v140z" />
    <glyph glyph-name="FL00A5h" unicode="&#xa3;" horiz-adv-x="537" 
d="M32 180h89v-65h-89v-115h381q1 0 14 12.5t28.5 30.5t30 37.5t19.5 34.5h-264v64h87q1 0 14 12.5t28.5 30.5t30 37.5t19.5 34.5h-179v61h27q1 0 14 12.5t28.5 30.5t30 37.5t19.5 34.5h-161q-17 0 -31 -8t-24.5 -21t-16.5 -29t-6 -32v-86h-89v-114z" />
    <glyph glyph-name="FL00A4h" unicode="&#xa4;" horiz-adv-x="488" 
d="M58 110q0 -12 11 -31l-52 -79h140l31 46h112l31 -46h140l-53 79q5 9 8.5 17.5t3.5 13.5v255q0 6 -3 13t-8 15l52 78h-140l-33 -50h-108l-33 50h-140l53 -80q-12 -17 -12 -26v-255zM156 139v191h176v-191h-176z" />
    <glyph glyph-name="FL00A9h" unicode="&#xa5;" horiz-adv-x="668" 
d="M366 -65h-210q-20 -20 -38.5 -48t-41.5 -66h350q13 0 24 7.5t19 19.5t12.5 26t4.5 27v189h58q1 0 13.5 12.5t28.5 30.5t30.5 37.5t19.5 34.5h-150v60h58q1 0 13.5 12.5t28.5 30.5t30.5 37.5t19.5 34.5h-150v100q-14 -6 -33.5 -24.5t-37.5 -40t-32 -40.5t-17 -26v-232
h-214v354h-120v-390q0 -8 5.5 -22t14.5 -27t19.5 -22.5t21.5 -9.5h273v-65z" />
    <glyph glyph-name="FL00A6h" unicode="&#xa6;" horiz-adv-x="184" 
d="M152 753q-33 -29 -63 -68.5t-57 -74.5v-770q13 6 32.5 24.5t38 39.5t32.5 40t17 27v782z" />
    <glyph glyph-name="FL00A7h" unicode="&#xa7;" horiz-adv-x="488" 
d="M58 110q0 -12 11 -31l-52 -79h140l31 46h192q9 0 17.5 7.5t16 18t12 21.5t4.5 17v255q0 6 -3 13t-8 15l52 78h-140l-33 -50h-189q-8 0 -16.5 -6.5t-16.5 -15.5t-13 -18.5t-5 -15.5v-255zM156 139v191h176v-191h-176z" />
    <glyph glyph-name="FL00A8h" unicode="&#xa8;" horiz-adv-x="349" 
d="M32 582q0 -24 18 -42t44 -18t44.5 18t18.5 42q0 25 -18.5 43t-44.5 18t-44 -18t-18 -43zM192 582q0 -24 18 -42t44 -18t44.5 18t18.5 42q0 25 -18.5 43t-44.5 18t-44 -18t-18 -43z" />
    <glyph glyph-name="copyright" unicode="&#xa9;" horiz-adv-x="258" 
d="M129 652q25 0 48 -14q24 -11 36 -36q13 -22 13 -48q0 -27 -13 -49q-14 -26 -35 -36q-22 -13 -49 -13q-26 0 -48 13q-11 8 -19 15.5t-16 20.5q-6 11 -10 23t-4 26q0 24 15 48q8 11 15 21t20 15q23 14 47 14zM129 635h-4q-15 0 -29 -7t-24.5 -18t-16.5 -26t-6 -30
q0 -35 22.5 -58t57.5 -23q48 0 70 40q10 19 10 41q0 24 -10 40q-14 20 -30 31q-11 6 -20 8t-20 2zM161 537l16 -3q-9 -36 -48 -36q-23 0 -37 13.5t-14 42.5t14.5 41.5t38.5 12.5q35 0 43 -30l-15 -4q-9 20 -29 20q-15 0 -24.5 -10t-9.5 -31q0 -20 9.5 -30t23.5 -10
q26 0 32 24z" />
    <glyph glyph-name="FL005Eh" unicode="&#xaa;" horiz-adv-x="488" 
d="M166 0h305l-143 414q-11 20 -27.5 34.5t-33.5 22.5h-47q-19 -8 -35 -21.5t-31 -35.5l-137 -414h133l94 289l57 -175h-55q-20 -20 -38.5 -48t-41.5 -66z" />
    <glyph glyph-name="FL00ABh" unicode="&#xab;" horiz-adv-x="347" 
d="M194 307v-139l121 -92v116l-59 45l59 46v116zM32 307v-139l121 -92v116l-59 45l59 46v116z" />
    <glyph glyph-name="FL00ACh" unicode="&#xac;" horiz-adv-x="457" 
d="M424 38v253h-301q-1 0 -13.5 -12.5t-28.5 -30.5t-30.5 -37.5t-19.5 -34.5h278v-138h115z" />
    <glyph glyph-name="FL00ADh" unicode="&#xad;" horiz-adv-x="311" 
d="M32 177h155q1 0 13.5 12.5t28.5 30.5t30.5 37.5t19.5 34.5h-247v-115z" />
    <glyph glyph-name="registered" unicode="&#xae;" horiz-adv-x="258" 
d="M129 652q26 0 48 -13q23 -12 36 -37q13 -22 13 -48q0 -27 -13 -49q-10 -22 -35 -36q-23 -12 -49 -12t-48 12q-11 8 -19 15.5t-16 20.5q-6 11 -10 23t-4 26t4 25t10 23q8 13 15.5 22t20.5 14q26 14 47 14zM129 635h-4q-15 0 -29 -7t-24.5 -18t-16.5 -26t-6 -30
q0 -23 10.5 -40.5t29.5 -29.5q20 -11 40 -11q2 0 41 11q17 8 29 29q10 19 10 41q0 24 -10 40q-10 20 -30 31q-11 6 -20 8t-20 2zM87 500v105h36q20 0 27 -3t13 -11q5 -8 5 -15q0 -26 -30 -30q8 -2 11.5 -5.5t9.5 -14.5l16 -26h-21l-9 17q-11 19 -18 24q-3 3 -14 3h-10v-44
h-16zM103 559h21q17 0 21 4t4 12q0 9 -9 14q-1 1 -9 1h-28v-31z" />
    <glyph glyph-name="FL00AFh" unicode="&#xaf;" horiz-adv-x="456" 
d="M32 537h300q1 0 13.5 12.5t28.5 30.5t30.5 37.5t19.5 34.5h-392v-115z" />
    <glyph glyph-name="FL00B0h" unicode="&#xb0;" horiz-adv-x="189" 
d="M32 582q0 25 18 43t44 18t44.5 -18t18.5 -43q0 -24 -18.5 -42t-44.5 -18t-44 18t-18 42zM72 582q0 -9 6 -16t16 -7q9 0 15.5 7t6.5 16t-6.5 15.5t-15.5 6.5q-10 0 -16 -6.5t-6 -15.5z" />
    <glyph glyph-name="FL00B1h" unicode="&#xb1;" horiz-adv-x="458" 
d="M33 115v-115h301q1 0 13.5 12.5t28.5 30.5t30.5 37.5t19.5 34.5h-140v114h47q1 0 13.5 12.5t28.5 30.5t30.5 37.5t19.5 34.5h-139v128h-115v-128h-139v-115h139v-38q0 -1 8 -9t20 -19.5t27 -24.5t30 -23h-223z" />
    <glyph glyph-name="FL00B2h" unicode="&#xb2;" horiz-adv-x="299" 
d="M190 570v10h-103q-1 0 -8.5 7.5t-17 19t-18 24t-11.5 21.5h187q19 0 32 -16.5t13 -34.5v-53q0 -19 -13 -34t-32 -15h-110v-11h103l7.5 -7.5t17 -19t18.5 -23.5t12 -21h-186q-20 0 -32.5 16t-12.5 35v53q0 18 13.5 33.5t31.5 15.5h109z" />
    <glyph glyph-name="FL00B4h" unicode="&#xb3;" horiz-adv-x="281" 
d="M87 652q-1 0 -9 -7.5t-17 -19t-17.5 -24t-11.5 -21.5h144v-11h-89q-1 0 -9 -7.5t-17 -19t-17.5 -23.5t-11.5 -21h144v-10h-89q-1 0 -9 -7.5t-17 -19t-17.5 -23.5t-11.5 -21h172q20 0 32.5 16t12.5 35v133q0 19 -12.5 35t-32.5 16h-117z" />
    <glyph glyph-name="FL00B5h" unicode="&#xb4;" horiz-adv-x="242" 
d="M109 643l-92 -121h116l92 121h-116z" />
    <glyph glyph-name="FL00B6h" unicode="&#xb5;" horiz-adv-x="517" 
d="M152 -65h210q20 -20 38.5 -48t41.5 -66h-350q-13 0 -24 7.5t-19 19.5t-12.5 26t-4.5 27v579q14 -6 33.5 -24.5t37.5 -40t32 -40.5t17 -26v-232h214v354h120v-390q0 -8 -5.5 -22t-14.5 -27t-20 -22.5t-21 -9.5h-273v-65z" />
    <glyph glyph-name="FL0193h" unicode="&#xb6;" horiz-adv-x="1218" 
d="M1186 263q0 -1 -0.5 -2l-0.5 -1l-15 -29h-70l47 -54q2 -2 2 -7v-5q0 -25 -24 -31l-77 14l-8 -82q-8 -15 -29 -15q-17 0 -35.5 6.5t-44.5 20.5l-73 -75l-39 -8l-46 43l-144 -69l-25 6v43l-192 -29l-22 14l8 35l-199 15v25l24 23l-123 21q-23 0 -23 26l48 34l-84 36l-9 35
l83 14l-45 48l7 42l90 -9q0 98 35 98h4l86 -28q28 35 49.5 55t41.5 28l68 -41l137 61l32 -20l-7 -21l7 -7l153 28l53 -7l-7 -41h182l16 -14q0 -36 -31 -39l154 -37v-4v-4q0 -35 -56 -40q102 -33 102 -52zM1162 253l-7 14l-125 54l78 21h9l-9 15l-177 34l63 40h-206l14 49
l-198 -27l-7 41l-16 7l-138 -62l-60 41l-83 -80q-12 -2 -16.5 -3.5t-1.5 -1.5q-27 0 -76 30l-14 -96l-98 6l6 -28l53 -62l-97 -6l129 -62l-85 -35l184 -36l-61 -40l214 -8l-25 -46l192 33l25 -27l-9 -29l153 69l69 -40l76 83l99 -29l7 98l101 -16q0 6 0.5 7.5l0.5 1.5
q0 18 -61 82zM1012 301l-16 -89l-20 3l4 92zM1001 173l-23 -19l-15 15l17 11zM942 180q-30 0 -82 61v-61l-21 -1l-2 122l77 -78l7 84l21 -5v-122zM817 180l-20 7q-10 28 -31 28q-18 0 -33 -28h-28q8 58 55 120q4 3 19 3q24 0 36 -39zM689 307l-6 -119l-33 -9l13 125z
M625 176q-31 0 -82 59v-58l-21 -4l-4 123l79 -78l3 86l25 -8v-120zM503 262q-14 -86 -52 -86q-12 -3 -22 -3q-37 0 -46 22q0 76 52 107q3 0 3.5 0.5l0.5 0.5h7q46 0 57 -41zM374 306l-4 -30q-5 1 -7 1.5t0 0.5h-7q-17 0 -36 -16q-21 -26 -21 -49q0 -25 30 -25q8 0 14 0.5
t11 1.5l2 -19q-10 -2 -16 -4t-11 -2q-40 0 -54 53q-1 1 -1 9v7q0 57 100 72zM259 304l-7 -122l-29 -9l13 125zM790 241l-16 40l-28 -40h44zM479 243q0 10 -5 15q-8 15 -26 15q-22 0 -39 -38v-8q0 -29 22 -29q5 0 14 2t21 7q13 19 13 36z" />
    <glyph glyph-name="FL00B7h" unicode="&#xb7;" horiz-adv-x="189" 
d="M32 235q0 -24 18 -42t44 -18t44.5 18t18.5 42q0 25 -18.5 43t-44.5 18t-44 -18t-18 -43z" />
    <glyph glyph-name="FL00B8h" unicode="&#xb8;" horiz-adv-x="165" 
d="M36 0v-48h-101q5 -15 19.5 -30t30.5 -28t28.5 -21t13.5 -8h106v135h-97z" />
    <glyph glyph-name="FL00B9h" unicode="&#xb9;" horiz-adv-x="136" 
d="M104 651q-25 -24 -43 -43.5t-29 -41.5v-173q7 4 18.5 14.5t23 22.5t20 23t10.5 16v182z" />
    <glyph glyph-name="FL00BDh" unicode="&#xba;" horiz-adv-x="291" 
d="M32 463q0 -5 3 -12.5t8.5 -15t12 -13t13.5 -5.5h152q7 0 13.5 5.5t12 13t9 15t3.5 12.5v148q0 6 -3.5 13t-9.5 13t-13 10.5t-13 4.5h-151q-5 0 -11.5 -4.5t-12 -11.5t-9.5 -14t-4 -11v-148zM105 581h80v-92h-80v92z" />
    <glyph glyph-name="FL00BBh" unicode="&#xbb;" horiz-adv-x="347" 
d="M152 307v-139l-121 -92v116l59 45l-59 46v116zM314 307v-139l-121 -92v116l59 45l-59 46v116z" />
    <glyph glyph-name="FL00BCh" unicode="&#xbc;" horiz-adv-x="536" 
d="M17 0h126l273 471h-126zM154 500q-25 -24 -45.5 -43.5t-31.5 -41.5v-173q7 4 19 14.5t24.5 22.5t22 23t11.5 16v182zM504 214q-9 -2 -21 -12t-23.5 -22t-19.5 -23.5t-10 -15.5v-16h-80v81h-73v-107q0 -5 3 -13t8.5 -15.5t12 -13t13.5 -5.5h116v-87q8 4 20 14.5t23.5 22.5
t20 22.5t10.5 15.5v174z" />
    <glyph glyph-name="FL00BEh" unicode="&#xbd;" horiz-adv-x="536" 
d="M154 318q-2 -5 -12 -16t-22.5 -23t-25 -22.5t-19.5 -14.5v173q11 22 32.5 41.5t46.5 43.5v-182zM290 471h126l-273 -471h-126zM430 124v10h-103q-1 0 -8.5 7.5t-17 19t-18 24t-11.5 21.5h187q19 0 32 -16.5t13 -34.5v-53q0 -19 -13 -34t-32 -15h-110v-11h103l7.5 -7.5
t17 -19t18.5 -23.5t12 -21h-186q-20 0 -32.5 16t-12.5 35v53q0 18 13.5 33.5t31.5 15.5h109z" />
    <glyph glyph-name="FL0939h" unicode="&#xbe;" horiz-adv-x="619" 
d="M100 0h126l273 471h-126zM587 214q-9 -2 -21 -12t-23.5 -22t-19.5 -23.5t-10 -15.5v-16h-80v81h-73v-107q0 -5 3 -13t8.5 -15.5t12 -13t13.5 -5.5h116v-87q8 4 20 14.5t23.5 22.5t20 22.5t10.5 15.5v174zM87 500q-1 0 -9 -7.5t-17 -19t-17.5 -24t-11.5 -21.5h144v-11h-89
q-1 0 -9 -7.5t-17 -19t-17.5 -23.5t-11.5 -21h144v-10h-89q-1 0 -9 -7.5t-17 -19t-17.5 -23.5t-11.5 -21h172q20 0 32.5 16t12.5 35v133q0 19 -12.5 35t-32.5 16h-117z" />
    <glyph glyph-name="FL00BFh" unicode="&#xbf;" horiz-adv-x="523" 
d="M409 180q16 0 30.5 7.5t25 20t17 28t6.5 31.5v252q-13 -6 -32.5 -24.5t-38 -39.5t-32.5 -40t-17 -27v-94h-258q-17 0 -31 -7.5t-24.5 -19.5t-16.5 -27.5t-6 -31.5v-119q0 -16 6 -32t16.5 -29t24.5 -21t31 -8h378q-5 15 -19.5 34.5t-30 37.5t-28.5 30.5t-14 12.5h-244v66
h257zM491 592q0 24 -18 42t-44 18t-44.5 -18t-18.5 -42q0 -25 18.5 -43t44.5 -18t44 18t18 43z" />
    <glyph glyph-name="FL00C0h" unicode="&#xc0;" horiz-adv-x="504" 
d="M151 155q0 7 2 15t9 8h100l90 92v-155h-190q-8 0 -9.5 8.5t-1.5 14.5v17zM92 293q-9 0 -19.5 -7t-19.5 -18t-15 -24t-6 -24v-150q0 -12 6 -24.5t16 -22.5t22.5 -16.5t25.5 -6.5h300q10 0 22 7t22.5 17.5t18 22.5t7.5 23v330q0 10 -7 22t-17 22.5t-22.5 18t-22.5 7.5h-291
q-1 0 -29 -30t-65 -85h334v-62h-260zM146 643l92 -121h116l-92 121h-116z" />
    <glyph glyph-name="FL00C1h" unicode="&#xc1;" horiz-adv-x="504" 
d="M151 155q0 7 2 15t9 8h100l90 92v-155h-190q-8 0 -9.5 8.5t-1.5 14.5v17zM92 293q-9 0 -19.5 -7t-19.5 -18t-15 -24t-6 -24v-150q0 -12 6 -24.5t16 -22.5t22.5 -16.5t25.5 -6.5h300q10 0 22 7t22.5 17.5t18 22.5t7.5 23v330q0 10 -7 22t-17 22.5t-22.5 18t-22.5 7.5h-291
q-1 0 -29 -30t-65 -85h334v-62h-260zM256 643l-92 -121h116l92 121h-116z" />
    <glyph glyph-name="FL00C2h" unicode="&#xc2;" horiz-adv-x="504" 
d="M151 155q0 7 2 15t9 8h100l90 92v-155h-190q-8 0 -9.5 8.5t-1.5 14.5v17zM92 293q-9 0 -19.5 -7t-19.5 -18t-15 -24t-6 -24v-150q0 -12 6 -24.5t16 -22.5t22.5 -16.5t25.5 -6.5h300q10 0 22 7t22.5 17.5t18 22.5t7.5 23v330q0 10 -7 22t-17 22.5t-22.5 18t-22.5 7.5h-291
q-1 0 -29 -30t-65 -85h334v-62h-260zM328 642h-139l-92 -121h116l45 59l46 -59h116z" />
    <glyph glyph-name="FL00C3h" unicode="&#xc3;" horiz-adv-x="504" 
d="M151 155q0 7 2 15t9 8h100l90 92v-155h-190q-8 0 -9.5 8.5t-1.5 14.5v17zM92 293q-9 0 -19.5 -7t-19.5 -18t-15 -24t-6 -24v-150q0 -12 6 -24.5t16 -22.5t22.5 -16.5t25.5 -6.5h300q10 0 22 7t22.5 17.5t18 22.5t7.5 23v330q0 10 -7 22t-17 22.5t-22.5 18t-22.5 7.5h-291
q-1 0 -29 -30t-65 -85h334v-62h-260zM248 642h-94l-92 -121h116l45 58l46 -58h94l92 121h-116l-45 -59z" />
    <glyph glyph-name="FL00C4h" unicode="&#xc4;" horiz-adv-x="504" 
d="M151 155q0 7 2 15t9 8h100l90 92v-155h-190q-8 0 -9.5 8.5t-1.5 14.5v17zM92 293q-9 0 -19.5 -7t-19.5 -18t-15 -24t-6 -24v-150q0 -12 6 -24.5t16 -22.5t22.5 -16.5t25.5 -6.5h300q10 0 22 7t22.5 17.5t18 22.5t7.5 23v330q0 10 -7 22t-17 22.5t-22.5 18t-22.5 7.5h-291
q-1 0 -29 -30t-65 -85h334v-62h-260zM116 582q0 -24 18 -42t44 -18t44.5 18t18.5 42q0 25 -18.5 43t-44.5 18t-44 -18t-18 -43zM276 582q0 -24 18 -42t44 -18t44.5 18t18.5 42q0 25 -18.5 43t-44.5 18t-44 -18t-18 -43z" />
    <glyph glyph-name="FL00C5h" unicode="&#xc5;" horiz-adv-x="504" 
d="M197 582q0 25 18 43t44 18t44.5 -18t18.5 -43q0 -24 -18.5 -42t-44.5 -18t-44 18t-18 42zM352 293v62h-334q37 55 65 85t29 30h291q10 0 22.5 -7.5t22.5 -18t17 -22.5t7 -22v-330q0 -11 -7.5 -23t-18 -22.5t-22.5 -17.5t-22 -7h-300q-13 0 -25.5 6.5t-22.5 16.5t-16 22.5
t-6 24.5v150q0 11 6 24t15 24t19.5 18t19.5 7h260zM151 138q0 -6 1.5 -14.5t9.5 -8.5h190v155l-90 -92h-100q-7 0 -9 -8t-2 -15v-17zM237 582q0 -9 6 -16t16 -7q9 0 15.5 7t6.5 16t-6.5 15.5t-15.5 6.5q-10 0 -16 -6.5t-6 -15.5z" />
    <glyph glyph-name="FL00C6h" unicode="&#xc6;" horiz-adv-x="824" 
d="M352 293h-260q-9 0 -19.5 -7t-19.5 -18t-15 -24t-6 -24v-150q0 -12 6 -24.5t16 -22.5t22.5 -16.5t25.5 -6.5h611q1 0 29 30t65 85h-334v62h260q9 0 19.5 7t19.5 18t15 24t6 24v150q0 12 -6 24.5t-16 22.5t-22.5 16.5t-25.5 6.5h-611q-1 0 -29 -30t-65 -85h334v-62z
M674 332v-17q0 -7 -2 -15t-9 -8h-100l-90 -92v155h190q8 0 9.5 -8.5t1.5 -14.5zM151 138v17q0 7 2 15t9 8h100l90 92v-155h-190q-8 0 -9.5 8.5t-1.5 14.5z" />
    <glyph glyph-name="FL00C7h" unicode="&#xc7;" horiz-adv-x="490" 
d="M110 0h109v-48h-101q5 -15 19.5 -30t30.5 -28t28.5 -21t13.5 -8h106v135h50q1 0 13.5 12.5t28.5 30.5t30.5 37.5t19.5 34.5h-306v240h214q1 0 13.5 12.5t28.5 30.5t30.5 37.5t19.5 34.5h-348q-17 0 -31 -8t-24.5 -21t-16.5 -29t-6 -32v-291q0 -16 6 -32t16.5 -28.5
t24.5 -20.5t31 -8z" />
    <glyph glyph-name="FL00C8h" unicode="&#xc8;" horiz-adv-x="503" 
d="M152 177v-62h334q-37 -55 -65 -85t-29 -30h-291q-11 0 -23 7.5t-22 18t-17 22.5t-7 22v330q0 10 7.5 22.5t18 23t22.5 17.5t22 7h300q13 0 25.5 -6.5t22.5 -16.5t16 -22.5t6 -24.5v-150q0 -11 -6 -24t-15 -24t-19.5 -18t-19.5 -7h-260zM353 332q0 6 -1.5 14.5t-9.5 8.5
h-190v-155l90 92h100q7 0 9 8t2 15v17zM262 643l92 -121h-116l-92 121h116z" />
    <glyph glyph-name="FL00C9h" unicode="&#xc9;" horiz-adv-x="503" 
d="M353 315q0 -7 -2 -15t-9 -8h-100l-90 -92v155h190q8 0 9.5 -8.5t1.5 -14.5v-17zM412 177q9 0 19.5 7t19.5 18t15 24t6 24v150q0 12 -6 24.5t-16 22.5t-22.5 16.5t-25.5 6.5h-300q-10 0 -22 -7t-22.5 -17.5t-18 -23t-7.5 -22.5v-330q0 -10 7 -22t17 -22.5t22 -18t23 -7.5
h291q1 0 29 30t65 85h-334v62h260zM256 643l-92 -121h116l92 121h-116z" />
    <glyph glyph-name="FL00CAh" unicode="&#xca;" horiz-adv-x="503" 
d="M353 315q0 -7 -2 -15t-9 -8h-100l-90 -92v155h190q8 0 9.5 -8.5t1.5 -14.5v-17zM412 177q9 0 19.5 7t19.5 18t15 24t6 24v150q0 12 -6 24.5t-16 22.5t-22.5 16.5t-25.5 6.5h-300q-10 0 -22 -7t-22.5 -17.5t-18 -23t-7.5 -22.5v-330q0 -10 7 -22t17 -22.5t22 -18t23 -7.5
h291q1 0 29 30t65 85h-334v62h260zM328 642h-139l-92 -121h116l45 59l46 -59h116z" />
    <glyph glyph-name="FL00CBh" unicode="&#xcb;" horiz-adv-x="503" 
d="M353 315q0 -7 -2 -15t-9 -8h-100l-90 -92v155h190q8 0 9.5 -8.5t1.5 -14.5v-17zM412 177q9 0 19.5 7t19.5 18t15 24t6 24v150q0 12 -6 24.5t-16 22.5t-22.5 16.5t-25.5 6.5h-300q-10 0 -22 -7t-22.5 -17.5t-18 -23t-7.5 -22.5v-330q0 -10 7 -22t17 -22.5t22 -18t23 -7.5
h291q1 0 29 30t65 85h-334v62h260zM116 582q0 -24 18 -42t44 -18t44.5 18t18.5 42q0 25 -18.5 43t-44.5 18t-44 -18t-18 -43zM276 582q0 -24 18 -42t44 -18t44.5 18t18.5 42q0 25 -18.5 43t-44.5 18t-44 -18t-18 -43z" />
    <glyph glyph-name="FL00CCh" unicode="&#xcc;" horiz-adv-x="184" 
d="M152 479q-33 -29 -63 -68.5t-57 -74.5v-344q13 6 32.5 24.5t38 39.5t32.5 40t17 27v356zM-15 643l92 -121h116l-92 121h-116z" />
    <glyph glyph-name="FL00CDh" unicode="&#xcd;" horiz-adv-x="184" 
d="M152 479q-33 -29 -63 -68.5t-57 -74.5v-344q13 6 32.5 24.5t38 39.5t32.5 40t17 27v356zM85 643l-92 -121h116l92 121h-116z" />
    <glyph glyph-name="FL00CEh" unicode="&#xce;" horiz-adv-x="184" 
d="M152 479q-33 -29 -63 -68.5t-57 -74.5v-344q13 6 32.5 24.5t38 39.5t32.5 40t17 27v356zM162 643h-139l-92 -121h116l45 59l46 -59h116z" />
    <glyph glyph-name="FL00CFh" unicode="&#xcf;" horiz-adv-x="184" 
d="M152 479q-33 -29 -63 -68.5t-57 -74.5v-344q13 6 32.5 24.5t38 39.5t32.5 40t17 27v356zM-49 582q0 -24 18 -42t44 -18t44.5 18t18.5 42q0 25 -18.5 43t-44.5 18t-44 -18t-18 -43zM111 582q0 -24 18 -42t44 -18t44.5 18t18.5 42q0 25 -18.5 43t-44.5 18t-44 -18t-18 -43z
" />
    <glyph glyph-name="FL00D0h" unicode="&#xd0;" horiz-adv-x="603" 
d="M32 177h85v-107q0 -10 6 -22t15.5 -22.5t20.5 -18t22 -7.5h328q9 0 20 8.5t20 19.5t15.5 23t6.5 19v580q-38 -33 -70.5 -75.5t-49.5 -88.5q-2 -4 -5.5 -9.5t-4.5 -5.5h-263q-11 0 -21.5 -9.5t-19.5 -22.5t-14.5 -27t-5.5 -22v-98h-85v-115zM363 354l88 96v-336h-214v63
h78q2 0 15 13t29 31t30 37.5t18 33.5h-170v62h126z" />
    <glyph glyph-name="FL00D1h" unicode="&#xd1;" 
d="M152 353h214v-353h120v389q0 8 -5.5 22t-14.5 27t-20 22.5t-21 9.5h-332q-11 0 -21.5 -9.5t-19.5 -22.5t-14.5 -27t-5.5 -22v-398q13 6 32.5 24.5t38 39.5t32.5 40t17 27v231zM248 642h-94l-92 -121h116l45 58l46 -58h94l92 121h-116l-45 -59z" />
    <glyph glyph-name="FL00D2h" unicode="&#xd2;" 
d="M366 117v240h-214v-240h214zM32 401q0 7 6.5 19t15.5 23t20 19.5t20 8.5h328q10 0 21.5 -7.5t21 -18t15.5 -22.5t6 -22v-320q0 -8 -5.5 -22t-14.5 -27t-20 -22.5t-21 -9.5h-332q-11 0 -21.5 9.5t-19.5 22.5t-14.5 27t-5.5 22v320zM262 643l92 -121h-116l-92 121h116z" />
    <glyph glyph-name="FL00D3h" unicode="&#xd3;" 
d="M32 81q0 -8 5.5 -22t14.5 -27t19.5 -22.5t21.5 -9.5h332q10 0 21 9.5t20 22.5t14.5 27t5.5 22v320q0 10 -6 22t-15.5 22.5t-21 18t-21.5 7.5h-328q-9 0 -20 -8.5t-20 -19.5t-15.5 -23t-6.5 -19v-320zM152 117v240h214v-240h-214zM256 643l-92 -121h116l92 121h-116z" />
    <glyph glyph-name="FL00D4h" unicode="&#xd4;" 
d="M32 81q0 -8 5.5 -22t14.5 -27t19.5 -22.5t21.5 -9.5h332q10 0 21 9.5t20 22.5t14.5 27t5.5 22v320q0 10 -6 22t-15.5 22.5t-21 18t-21.5 7.5h-328q-9 0 -20 -8.5t-20 -19.5t-15.5 -23t-6.5 -19v-320zM152 117v240h214v-240h-214zM328 642h-139l-92 -121h116l45 59l46 -59
h116z" />
    <glyph glyph-name="FL00D5h" unicode="&#xd5;" 
d="M32 81q0 -8 5.5 -22t14.5 -27t19.5 -22.5t21.5 -9.5h332q10 0 21 9.5t20 22.5t14.5 27t5.5 22v320q0 10 -6 22t-15.5 22.5t-21 18t-21.5 7.5h-328q-9 0 -20 -8.5t-20 -19.5t-15.5 -23t-6.5 -19v-320zM152 117v240h214v-240h-214zM248 642h-94l-92 -121h116l45 58l46 -58
h94l92 121h-116l-45 -59z" />
    <glyph glyph-name="FL00D6h" unicode="&#xd6;" 
d="M32 81q0 -8 5.5 -22t14.5 -27t19.5 -22.5t21.5 -9.5h332q10 0 21 9.5t20 22.5t14.5 27t5.5 22v320q0 10 -6 22t-15.5 22.5t-21 18t-21.5 7.5h-328q-9 0 -20 -8.5t-20 -19.5t-15.5 -23t-6.5 -19v-320zM152 117v240h214v-240h-214zM116 582q0 -24 18 -42t44 -18t44.5 18
t18.5 42q0 25 -18.5 43t-44.5 18t-44 -18t-18 -43zM276 582q0 -24 18 -42t44 -18t44.5 18t18.5 42q0 25 -18.5 43t-44.5 18t-44 -18t-18 -43z" />
    <glyph glyph-name="FL00D7h" unicode="&#xd7;" horiz-adv-x="393" 
d="M294 413l-98 -98l-98 98l-81 -81l98 -98l-34 -34v-16q0 -12 0.5 -30t2 -36.5t5 -36t8.5 -28.5l99 99l34 -33h15q12 0 29.5 0.5t36.5 2t36.5 5t28.5 8.5l-98 99l97 97z" />
    <glyph glyph-name="FL00D8h" unicode="&#xd8;" 
d="M32 81q0 -8 5.5 -22t14.5 -27t19.5 -22.5t21.5 -9.5h332q10 0 21 9.5t20 22.5t14.5 27t5.5 22v320q0 10 -6 22t-15.5 22.5t-21 18t-21.5 7.5h-328q-9 0 -20 -8.5t-20 -19.5t-15.5 -23t-6.5 -19v-320zM152 357h119l-119 -183v183zM252 117l114 166v-166h-114z" />
    <glyph glyph-name="FL00D9h" unicode="&#xd9;" 
d="M366 349q3 7 17 26t32 40.5t37.5 40t33.5 24.5v-399q0 -8 -5.5 -22t-14.5 -27t-20 -22.5t-21 -9.5h-332q-11 0 -21.5 9.5t-19.5 22.5t-14.5 27t-5.5 22v390h120v-354h214v232zM262 643l92 -121h-116l-92 121h116z" />
    <glyph glyph-name="FL00DAh" unicode="&#xda;" 
d="M366 117h-214v354h-120v-390q0 -8 5.5 -22t14.5 -27t19.5 -22.5t21.5 -9.5h332q10 0 21 9.5t20 22.5t14.5 27t5.5 22v399q-14 -6 -33.5 -24.5t-37.5 -40t-32 -40.5t-17 -26v-232zM256 643l-92 -121h116l92 121h-116z" />
    <glyph glyph-name="FL00DBh" unicode="&#xdb;" 
d="M366 117h-214v354h-120v-390q0 -8 5.5 -22t14.5 -27t19.5 -22.5t21.5 -9.5h332q10 0 21 9.5t20 22.5t14.5 27t5.5 22v399q-14 -6 -33.5 -24.5t-37.5 -40t-32 -40.5t-17 -26v-232zM328 642h-139l-92 -121h116l45 59l46 -59h116z" />
    <glyph glyph-name="FL00DCh" unicode="&#xdc;" 
d="M366 117h-214v354h-120v-390q0 -8 5.5 -22t14.5 -27t19.5 -22.5t21.5 -9.5h332q10 0 21 9.5t20 22.5t14.5 27t5.5 22v399q-14 -6 -33.5 -24.5t-37.5 -40t-32 -40.5t-17 -26v-232zM116 582q0 -24 18 -42t44 -18t44.5 18t18.5 42q0 25 -18.5 43t-44.5 18t-44 -18t-18 -43z
M276 582q0 -24 18 -42t44 -18t44.5 18t18.5 42q0 25 -18.5 43t-44.5 18t-44 -18t-18 -43z" />
    <glyph glyph-name="FL00DDh" unicode="&#xdd;" 
d="M366 -65h-210q-20 -20 -38.5 -48t-41.5 -66h350q13 0 24 7.5t19 19.5t12.5 26t4.5 27v579q-14 -6 -33.5 -24.5t-37.5 -40t-32 -40.5t-17 -26v-232h-214v354h-120v-390q0 -8 5.5 -22t14.5 -27t19.5 -22.5t21.5 -9.5h273v-65zM256 643l-92 -121h116l92 121h-116z" />
    <glyph glyph-name="FL00DEh" unicode="&#xde;" 
d="M152 651q-33 -29 -63 -68.5t-57 -74.5v-687q38 33 70.5 75.5t49.5 88.5q2 4 5.5 9.5t4.5 5.5h263q10 0 21 9.5t20 22.5t14.5 27t5.5 22v320q0 10 -6 22t-15.5 22.5t-21 18t-21.5 7.5h-270v180zM241 117l-89 -96v336h214v-240h-125z" />
    <glyph glyph-name="FL00DFh" unicode="&#xdf;" horiz-adv-x="490" 
d="M118 470q-6 0 -19.5 -6.5t-27.5 -19t-25.5 -30.5t-13.5 -42v-532q13 6 32.5 24.5t38 39.5t32.5 40t17 27v384h186v-64h-43q-2 0 -14.5 -12.5t-28 -30.5t-30 -37.5t-19.5 -34.5h135v-61h-43q-2 0 -14.5 -12.5t-28 -30.5t-30 -37.5t-19.5 -34.5h177q16 0 30.5 8t25 21
t16.5 29t6 32v291q0 16 -6 32t-16.5 28.5t-25 20.5t-30.5 8h-262z" />
    <glyph glyph-name="FL00E0h" unicode="&#xe0;" horiz-adv-x="504" 
d="M151 155q0 7 2 15t9 8h100l90 92v-155h-190q-8 0 -9.5 8.5t-1.5 14.5v17zM92 293q-9 0 -19.5 -7t-19.5 -18t-15 -24t-6 -24v-150q0 -12 6 -24.5t16 -22.5t22.5 -16.5t25.5 -6.5h300q10 0 22 7t22.5 17.5t18 22.5t7.5 23v330q0 10 -7 22t-17 22.5t-22.5 18t-22.5 7.5h-291
q-1 0 -29 -30t-65 -85h334v-62h-260zM146 643l92 -121h116l-92 121h-116z" />
    <glyph glyph-name="FL00E1h" unicode="&#xe1;" horiz-adv-x="504" 
d="M151 155q0 7 2 15t9 8h100l90 92v-155h-190q-8 0 -9.5 8.5t-1.5 14.5v17zM92 293q-9 0 -19.5 -7t-19.5 -18t-15 -24t-6 -24v-150q0 -12 6 -24.5t16 -22.5t22.5 -16.5t25.5 -6.5h300q10 0 22 7t22.5 17.5t18 22.5t7.5 23v330q0 10 -7 22t-17 22.5t-22.5 18t-22.5 7.5h-291
q-1 0 -29 -30t-65 -85h334v-62h-260zM256 643l-92 -121h116l92 121h-116z" />
    <glyph glyph-name="FL00E2h" unicode="&#xe2;" horiz-adv-x="504" 
d="M151 155q0 7 2 15t9 8h100l90 92v-155h-190q-8 0 -9.5 8.5t-1.5 14.5v17zM92 293q-9 0 -19.5 -7t-19.5 -18t-15 -24t-6 -24v-150q0 -12 6 -24.5t16 -22.5t22.5 -16.5t25.5 -6.5h300q10 0 22 7t22.5 17.5t18 22.5t7.5 23v330q0 10 -7 22t-17 22.5t-22.5 18t-22.5 7.5h-291
q-1 0 -29 -30t-65 -85h334v-62h-260zM328 642h-139l-92 -121h116l45 59l46 -59h116z" />
    <glyph glyph-name="FL00E3h" unicode="&#xe3;" horiz-adv-x="504" 
d="M151 155q0 7 2 15t9 8h100l90 92v-155h-190q-8 0 -9.5 8.5t-1.5 14.5v17zM92 293q-9 0 -19.5 -7t-19.5 -18t-15 -24t-6 -24v-150q0 -12 6 -24.5t16 -22.5t22.5 -16.5t25.5 -6.5h300q10 0 22 7t22.5 17.5t18 22.5t7.5 23v330q0 10 -7 22t-17 22.5t-22.5 18t-22.5 7.5h-291
q-1 0 -29 -30t-65 -85h334v-62h-260zM248 642h-94l-92 -121h116l45 58l46 -58h94l92 121h-116l-45 -59z" />
    <glyph glyph-name="FL00E4h" unicode="&#xe4;" horiz-adv-x="504" 
d="M151 155q0 7 2 15t9 8h100l90 92v-155h-190q-8 0 -9.5 8.5t-1.5 14.5v17zM92 293q-9 0 -19.5 -7t-19.5 -18t-15 -24t-6 -24v-150q0 -12 6 -24.5t16 -22.5t22.5 -16.5t25.5 -6.5h300q10 0 22 7t22.5 17.5t18 22.5t7.5 23v330q0 10 -7 22t-17 22.5t-22.5 18t-22.5 7.5h-291
q-1 0 -29 -30t-65 -85h334v-62h-260zM116 582q0 -24 18 -42t44 -18t44.5 18t18.5 42q0 25 -18.5 43t-44.5 18t-44 -18t-18 -43zM276 582q0 -24 18 -42t44 -18t44.5 18t18.5 42q0 25 -18.5 43t-44.5 18t-44 -18t-18 -43z" />
    <glyph glyph-name="FL00E5h" unicode="&#xe5;" horiz-adv-x="504" 
d="M197 582q0 25 18 43t44 18t44.5 -18t18.5 -43q0 -24 -18.5 -42t-44.5 -18t-44 18t-18 42zM352 293v62h-334q37 55 65 85t29 30h291q10 0 22.5 -7.5t22.5 -18t17 -22.5t7 -22v-330q0 -11 -7.5 -23t-18 -22.5t-22.5 -17.5t-22 -7h-300q-13 0 -25.5 6.5t-22.5 16.5t-16 22.5
t-6 24.5v150q0 11 6 24t15 24t19.5 18t19.5 7h260zM151 138q0 -6 1.5 -14.5t9.5 -8.5h190v155l-90 -92h-100q-7 0 -9 -8t-2 -15v-17zM237 582q0 -9 6 -16t16 -7q9 0 15.5 7t6.5 16t-6.5 15.5t-15.5 6.5q-10 0 -16 -6.5t-6 -15.5z" />
    <glyph glyph-name="FL00E6h" unicode="&#xe6;" horiz-adv-x="824" 
d="M352 293h-260q-9 0 -19.5 -7t-19.5 -18t-15 -24t-6 -24v-150q0 -12 6 -24.5t16 -22.5t22.5 -16.5t25.5 -6.5h611q1 0 29 30t65 85h-334v62h260q9 0 19.5 7t19.5 18t15 24t6 24v150q0 12 -6 24.5t-16 22.5t-22.5 16.5t-25.5 6.5h-611q-1 0 -29 -30t-65 -85h334v-62z
M674 332v-17q0 -7 -2 -15t-9 -8h-100l-90 -92v155h190q8 0 9.5 -8.5t1.5 -14.5zM151 138v17q0 7 2 15t9 8h100l90 92v-155h-190q-8 0 -9.5 8.5t-1.5 14.5z" />
    <glyph glyph-name="FL00E7h" unicode="&#xe7;" horiz-adv-x="490" 
d="M110 0h109v-48h-101q5 -15 19.5 -30t30.5 -28t28.5 -21t13.5 -8h106v135h50q1 0 13.5 12.5t28.5 30.5t30.5 37.5t19.5 34.5h-306v240h214q1 0 13.5 12.5t28.5 30.5t30.5 37.5t19.5 34.5h-348q-17 0 -31 -8t-24.5 -21t-16.5 -29t-6 -32v-291q0 -16 6 -32t16.5 -28.5
t24.5 -20.5t31 -8z" />
    <glyph glyph-name="FL00E8h" unicode="&#xe8;" horiz-adv-x="503" 
d="M152 177v-62h334q-37 -55 -65 -85t-29 -30h-291q-11 0 -23 7.5t-22 18t-17 22.5t-7 22v330q0 10 7.5 22.5t18 23t22.5 17.5t22 7h300q13 0 25.5 -6.5t22.5 -16.5t16 -22.5t6 -24.5v-150q0 -11 -6 -24t-15 -24t-19.5 -18t-19.5 -7h-260zM353 332q0 6 -1.5 14.5t-9.5 8.5
h-190v-155l90 92h100q7 0 9 8t2 15v17zM262 643l92 -121h-116l-92 121h116z" />
    <glyph glyph-name="FL00E9h" unicode="&#xe9;" horiz-adv-x="503" 
d="M353 315q0 -7 -2 -15t-9 -8h-100l-90 -92v155h190q8 0 9.5 -8.5t1.5 -14.5v-17zM412 177q9 0 19.5 7t19.5 18t15 24t6 24v150q0 12 -6 24.5t-16 22.5t-22.5 16.5t-25.5 6.5h-300q-10 0 -22 -7t-22.5 -17.5t-18 -23t-7.5 -22.5v-330q0 -10 7 -22t17 -22.5t22 -18t23 -7.5
h291q1 0 29 30t65 85h-334v62h260zM256 643l-92 -121h116l92 121h-116z" />
    <glyph glyph-name="FL00EAh" unicode="&#xea;" horiz-adv-x="503" 
d="M353 315q0 -7 -2 -15t-9 -8h-100l-90 -92v155h190q8 0 9.5 -8.5t1.5 -14.5v-17zM412 177q9 0 19.5 7t19.5 18t15 24t6 24v150q0 12 -6 24.5t-16 22.5t-22.5 16.5t-25.5 6.5h-300q-10 0 -22 -7t-22.5 -17.5t-18 -23t-7.5 -22.5v-330q0 -10 7 -22t17 -22.5t22 -18t23 -7.5
h291q1 0 29 30t65 85h-334v62h260zM328 642h-139l-92 -121h116l45 59l46 -59h116z" />
    <glyph glyph-name="FL00EBh" unicode="&#xeb;" horiz-adv-x="503" 
d="M353 315q0 -7 -2 -15t-9 -8h-100l-90 -92v155h190q8 0 9.5 -8.5t1.5 -14.5v-17zM412 177q9 0 19.5 7t19.5 18t15 24t6 24v150q0 12 -6 24.5t-16 22.5t-22.5 16.5t-25.5 6.5h-300q-10 0 -22 -7t-22.5 -17.5t-18 -23t-7.5 -22.5v-330q0 -10 7 -22t17 -22.5t22 -18t23 -7.5
h291q1 0 29 30t65 85h-334v62h260zM116 582q0 -24 18 -42t44 -18t44.5 18t18.5 42q0 25 -18.5 43t-44.5 18t-44 -18t-18 -43zM276 582q0 -24 18 -42t44 -18t44.5 18t18.5 42q0 25 -18.5 43t-44.5 18t-44 -18t-18 -43z" />
    <glyph glyph-name="FL00ECh" unicode="&#xec;" horiz-adv-x="184" 
d="M152 479q-33 -29 -63 -68.5t-57 -74.5v-344q13 6 32.5 24.5t38 39.5t32.5 40t17 27v356zM-15 643l92 -121h116l-92 121h-116z" />
    <glyph glyph-name="FL00EDh" unicode="&#xed;" horiz-adv-x="184" 
d="M152 479q-33 -29 -63 -68.5t-57 -74.5v-344q13 6 32.5 24.5t38 39.5t32.5 40t17 27v356zM85 643l-92 -121h116l92 121h-116z" />
    <glyph glyph-name="FL00EEh" unicode="&#xee;" horiz-adv-x="184" 
d="M152 479q-33 -29 -63 -68.5t-57 -74.5v-344q13 6 32.5 24.5t38 39.5t32.5 40t17 27v356zM162 643h-139l-92 -121h116l45 59l46 -59h116z" />
    <glyph glyph-name="FL00EFh" unicode="&#xef;" horiz-adv-x="184" 
d="M152 479q-33 -29 -63 -68.5t-57 -74.5v-344q13 6 32.5 24.5t38 39.5t32.5 40t17 27v356zM-49 582q0 -24 18 -42t44 -18t44.5 18t18.5 42q0 25 -18.5 43t-44.5 18t-44 -18t-18 -43zM111 582q0 -24 18 -42t44 -18t44.5 18t18.5 42q0 25 -18.5 43t-44.5 18t-44 -18t-18 -43z
" />
    <glyph glyph-name="FL00AAh" unicode="&#xf0;" horiz-adv-x="488" 
d="M471 0l-143 414q-11 20 -27.5 34.5t-33.5 22.5h-47q-19 -8 -35 -21.5t-31 -35.5l-137 -414h454zM244 289l57 -175h-114z" />
    <glyph glyph-name="FL00F1h" unicode="&#xf1;" 
d="M152 353h214v-353h120v389q0 8 -5.5 22t-14.5 27t-20 22.5t-21 9.5h-332q-11 0 -21.5 -9.5t-19.5 -22.5t-14.5 -27t-5.5 -22v-398q13 6 32.5 24.5t38 39.5t32.5 40t17 27v231zM248 642h-94l-92 -121h116l45 58l46 -58h94l92 121h-116l-45 -59z" />
    <glyph glyph-name="FL00F2h" unicode="&#xf2;" 
d="M146 643l92 -121h116l-92 121h-116zM32 81q0 -8 5.5 -22t14.5 -27t19.5 -22.5t21.5 -9.5h332q10 0 21 9.5t20 22.5t14.5 27t5.5 22v320q0 10 -6 22t-15.5 22.5t-21 18t-21.5 7.5h-328q-9 0 -20 -8.5t-20 -19.5t-15.5 -23t-6.5 -19v-320zM152 117v240h214v-240h-214z" />
    <glyph glyph-name="FL00F3h" unicode="&#xf3;" 
d="M32 81q0 -8 5.5 -22t14.5 -27t19.5 -22.5t21.5 -9.5h332q10 0 21 9.5t20 22.5t14.5 27t5.5 22v320q0 10 -6 22t-15.5 22.5t-21 18t-21.5 7.5h-328q-9 0 -20 -8.5t-20 -19.5t-15.5 -23t-6.5 -19v-320zM152 117v240h214v-240h-214zM256 643l-92 -121h116l92 121h-116z" />
    <glyph glyph-name="FL00F4h" unicode="&#xf4;" 
d="M32 81q0 -8 5.5 -22t14.5 -27t19.5 -22.5t21.5 -9.5h332q10 0 21 9.5t20 22.5t14.5 27t5.5 22v320q0 10 -6 22t-15.5 22.5t-21 18t-21.5 7.5h-328q-9 0 -20 -8.5t-20 -19.5t-15.5 -23t-6.5 -19v-320zM152 117v240h214v-240h-214zM328 642h-139l-92 -121h116l45 59l46 -59
h116z" />
    <glyph glyph-name="FL00F5h" unicode="&#xf5;" 
d="M32 81q0 -8 5.5 -22t14.5 -27t19.5 -22.5t21.5 -9.5h332q10 0 21 9.5t20 22.5t14.5 27t5.5 22v320q0 10 -6 22t-15.5 22.5t-21 18t-21.5 7.5h-328q-9 0 -20 -8.5t-20 -19.5t-15.5 -23t-6.5 -19v-320zM152 117v240h214v-240h-214zM248 642h-94l-92 -121h116l45 58l46 -58
h94l92 121h-116l-45 -59z" />
    <glyph glyph-name="FL00F6h" unicode="&#xf6;" 
d="M32 81q0 -8 5.5 -22t14.5 -27t19.5 -22.5t21.5 -9.5h332q10 0 21 9.5t20 22.5t14.5 27t5.5 22v320q0 10 -6 22t-15.5 22.5t-21 18t-21.5 7.5h-328q-9 0 -20 -8.5t-20 -19.5t-15.5 -23t-6.5 -19v-320zM152 117v240h214v-240h-214zM116 582q0 -24 18 -42t44 -18t44.5 18
t18.5 42q0 25 -18.5 43t-44.5 18t-44 -18t-18 -43zM276 582q0 -24 18 -42t44 -18t44.5 18t18.5 42q0 25 -18.5 43t-44.5 18t-44 -18t-18 -43z" />
    <glyph glyph-name="FL00F7h" unicode="&#xf7;" horiz-adv-x="457" 
d="M32 177h301q1 0 13.5 12.5t28.5 30.5t30.5 37.5t19.5 34.5h-393v-115zM158 87q0 -24 18 -42t44 -18t44.5 18t18.5 42q0 25 -18.5 43t-44.5 18t-44 -18t-18 -43zM158 375q0 -24 18 -42t44 -18t44.5 18t18.5 42q0 25 -18.5 43t-44.5 18t-44 -18t-18 -43z" />
    <glyph glyph-name="FL00F8h" unicode="&#xf8;" 
d="M32 81q0 -8 5.5 -22t14.5 -27t19.5 -22.5t21.5 -9.5h332q10 0 21 9.5t20 22.5t14.5 27t5.5 22v320q0 10 -6 22t-15.5 22.5t-21 18t-21.5 7.5h-328q-9 0 -20 -8.5t-20 -19.5t-15.5 -23t-6.5 -19v-320zM152 357h119l-119 -183v183zM252 117l114 166v-166h-114z" />
    <glyph glyph-name="FL00F9h" unicode="&#xf9;" 
d="M366 349q3 7 17 26t32 40.5t37.5 40t33.5 24.5v-399q0 -8 -5.5 -22t-14.5 -27t-20 -22.5t-21 -9.5h-332q-11 0 -21.5 9.5t-19.5 22.5t-14.5 27t-5.5 22v390h120v-354h214v232zM262 643l92 -121h-116l-92 121h116z" />
    <glyph glyph-name="FL00FAh" unicode="&#xfa;" 
d="M366 117h-214v354h-120v-390q0 -8 5.5 -22t14.5 -27t19.5 -22.5t21.5 -9.5h332q10 0 21 9.5t20 22.5t14.5 27t5.5 22v399q-14 -6 -33.5 -24.5t-37.5 -40t-32 -40.5t-17 -26v-232zM256 643l-92 -121h116l92 121h-116z" />
    <glyph glyph-name="FL00FBh" unicode="&#xfb;" 
d="M366 117h-214v354h-120v-390q0 -8 5.5 -22t14.5 -27t19.5 -22.5t21.5 -9.5h332q10 0 21 9.5t20 22.5t14.5 27t5.5 22v399q-14 -6 -33.5 -24.5t-37.5 -40t-32 -40.5t-17 -26v-232zM328 642h-139l-92 -121h116l45 59l46 -59h116z" />
    <glyph glyph-name="FL00FCh" unicode="&#xfc;" 
d="M366 117h-214v354h-120v-390q0 -8 5.5 -22t14.5 -27t19.5 -22.5t21.5 -9.5h332q10 0 21 9.5t20 22.5t14.5 27t5.5 22v399q-14 -6 -33.5 -24.5t-37.5 -40t-32 -40.5t-17 -26v-232zM116 582q0 -24 18 -42t44 -18t44.5 18t18.5 42q0 25 -18.5 43t-44.5 18t-44 -18t-18 -43z
M276 582q0 -24 18 -42t44 -18t44.5 18t18.5 42q0 25 -18.5 43t-44.5 18t-44 -18t-18 -43z" />
    <glyph glyph-name="FL00FDh" unicode="&#xfd;" 
d="M366 -65h-210q-20 -20 -38.5 -48t-41.5 -66h350q13 0 24 7.5t19 19.5t12.5 26t4.5 27v579q-14 -6 -33.5 -24.5t-37.5 -40t-32 -40.5t-17 -26v-232h-214v354h-120v-390q0 -8 5.5 -22t14.5 -27t19.5 -22.5t21.5 -9.5h273v-65zM256 643l-92 -121h116l92 121h-116z" />
    <glyph glyph-name="FL00FEh" unicode="&#xfe;" 
d="M152 651q-33 -29 -63 -68.5t-57 -74.5v-687q38 33 70.5 75.5t49.5 88.5q2 4 5.5 9.5t4.5 5.5h263q10 0 21 9.5t20 22.5t14.5 27t5.5 22v320q0 10 -6 22t-15.5 22.5t-21 18t-21.5 7.5h-270v180zM241 117l-89 -96v336h214v-240h-125z" />
    <glyph glyph-name="FL00FFh" unicode="&#xff;" 
d="M366 -65h-210q-20 -20 -38.5 -48t-41.5 -66h350q13 0 24 7.5t19 19.5t12.5 26t4.5 27v579q-14 -6 -33.5 -24.5t-37.5 -40t-32 -40.5t-17 -26v-232h-214v354h-120v-390q0 -8 5.5 -22t14.5 -27t19.5 -22.5t21.5 -9.5h273v-65zM116 582q0 -24 18 -42t44 -18t44.5 18t18.5 42
q0 25 -18.5 43t-44.5 18t-44 -18t-18 -43zM276 582q0 -24 18 -42t44 -18t44.5 18t18.5 42q0 25 -18.5 43t-44.5 18t-44 -18t-18 -43z" />
    <glyph glyph-name="FL0152h" unicode="&#x152;" horiz-adv-x="873" 
d="M366 0q1 0 11 10t24 26q11 -14 26 -25t29 -11h291q1 0 29 30t65 85h-334v62h260q9 0 19.5 7t19.5 18t15 24t6 24v150q0 12 -6 24.5t-16 22.5t-22.5 16.5t-25.5 6.5h-647q-17 0 -31 -8t-24.5 -21t-16.5 -29t-6 -32v-291q0 -16 6 -32t16.5 -28.5t24.5 -20.5t31 -8h256z
M152 355h214l6 5.5t15 14.5v-260h-235v240zM708 315q0 -7 -2 -15t-9 -8h-100l-90 -92v155h190q8 0 9.5 -8.5t1.5 -14.5v-17z" />
    <glyph glyph-name="FL0153h" unicode="&#x153;" horiz-adv-x="873" 
d="M366 0q1 0 11 10t24 26q11 -14 26 -25t29 -11h291q1 0 29 30t65 85h-334v62h260q9 0 19.5 7t19.5 18t15 24t6 24v150q0 12 -6 24.5t-16 22.5t-22.5 16.5t-25.5 6.5h-647q-17 0 -31 -8t-24.5 -21t-16.5 -29t-6 -32v-291q0 -16 6 -32t16.5 -28.5t24.5 -20.5t31 -8h256z
M152 355h214l6 5.5t15 14.5v-260h-235v240zM708 315q0 -7 -2 -15t-9 -8h-100l-90 -92v155h190q8 0 9.5 -8.5t1.5 -14.5v-17z" />
    <glyph glyph-name="FL0160h" unicode="&#x160;" horiz-adv-x="520" 
d="M152 293v62h244q1 0 13.5 12.5t28.5 30.5t30.5 37.5t19.5 34.5h-378q-17 0 -31 -8t-24.5 -21t-16.5 -29t-6 -32v-116q0 -16 6 -31.5t16.5 -27.5t24.5 -19.5t31 -7.5h258v-63h-244q-2 0 -14.5 -12.5t-28 -30.5t-30 -37.5t-19.5 -34.5h378q16 0 30.5 8t25 21t16.5 29t6 32
v116q0 16 -6.5 31.5t-17 28t-25 20t-30.5 7.5h-257zM189 520h139l92 121h-116l-45 -59l-46 59h-116z" />
    <glyph glyph-name="FL0161h" unicode="&#x161;" horiz-adv-x="520" 
d="M152 293v62h244q1 0 13.5 12.5t28.5 30.5t30.5 37.5t19.5 34.5h-378q-17 0 -31 -8t-24.5 -21t-16.5 -29t-6 -32v-116q0 -16 6 -31.5t16.5 -27.5t24.5 -19.5t31 -7.5h258v-63h-244q-2 0 -14.5 -12.5t-28 -30.5t-30 -37.5t-19.5 -34.5h378q16 0 30.5 8t25 21t16.5 29t6 32
v116q0 16 -6.5 31.5t-17 28t-25 20t-30.5 7.5h-257zM189 520h139l92 121h-116l-45 -59l-46 59h-116z" />
    <glyph glyph-name="FL0178h" unicode="&#x178;" 
d="M366 -65h-210q-20 -20 -38.5 -48t-41.5 -66h350q13 0 24 7.5t19 19.5t12.5 26t4.5 27v579q-14 -6 -33.5 -24.5t-37.5 -40t-32 -40.5t-17 -26v-232h-214v354h-120v-390q0 -8 5.5 -22t14.5 -27t19.5 -22.5t21.5 -9.5h273v-65zM116 582q0 -24 18 -42t44 -18t44.5 18t18.5 42
q0 25 -18.5 43t-44.5 18t-44 -18t-18 -43zM276 582q0 -24 18 -42t44 -18t44.5 18t18.5 42q0 25 -18.5 43t-44.5 18t-44 -18t-18 -43z" />
    <glyph glyph-name="FL017Dh" unicode="&#x17d;" horiz-adv-x="520" 
d="M32 90q0 -16 5.5 -32t15.5 -29t23.5 -21t29.5 -8h382q-5 15 -19.5 34.5t-30.5 37.5t-28.5 30.5t-13.5 12.5h-173l265 265q0 16 -5.5 32t-15.5 29t-23.5 21t-29.5 8h-382q5 -15 19.5 -34.5t30 -37.5t28 -30.5t14.5 -12.5h171zM189 520h139l92 121h-116l-45 -59l-46 59
h-116z" />
    <glyph glyph-name="FL017Eh" unicode="&#x17e;" horiz-adv-x="520" 
d="M32 90q0 -16 5.5 -32t15.5 -29t23.5 -21t29.5 -8h382q-5 15 -19.5 34.5t-30.5 37.5t-28.5 30.5t-13.5 12.5h-173l265 265q0 16 -5.5 32t-15.5 29t-23.5 21t-29.5 8h-382q5 -15 19.5 -34.5t30 -37.5t28 -30.5t14.5 -12.5h171zM189 520h139l92 121h-116l-45 -59l-46 59
h-116z" />
    <glyph glyph-name="FL0192h" unicode="&#x192;" horiz-adv-x="431" 
d="M110 641q-17 0 -31 -8t-24.5 -21t-16.5 -29t-6 -32v-559q13 6 32.5 24.5t38 39.5t32.5 40t17 27v165h129q1 0 13.5 12.5t28.5 30.5t30.5 37.5t19.5 34.5h-221v123h155q1 0 13.5 12.5t28.5 30.5t30.5 37.5t19.5 34.5h-289z" />
    <glyph glyph-name="FL02C6h" unicode="&#x2c6;" horiz-adv-x="387" 
d="M263 642h-139l-92 -121h116l45 59l46 -59h116z" />
    <glyph glyph-name="FL02DCh" unicode="&#x2dc;" horiz-adv-x="457" 
d="M218 642h-94l-92 -121h116l45 58l46 -58h94l92 121h-116l-45 -59z" />
    <glyph glyph-name="FL2013h" unicode="&#x2013;" horiz-adv-x="354" 
d="M32 177h198q1 0 13.5 12.5t28.5 30.5t30.5 37.5t19.5 34.5h-290v-115z" />
    <glyph glyph-name="FL2014h" unicode="&#x2014;" horiz-adv-x="457" 
d="M32 177h301q1 0 13.5 12.5t28.5 30.5t30.5 37.5t19.5 34.5h-393v-115z" />
    <glyph glyph-name="FL2018h" unicode="&#x2018;" horiz-adv-x="189" 
d="M156 466q0 24 -16 41.5t-37 17.5h-3v61q-33 -27 -51 -56t-18 -63v-1q0 -25 18.5 -43t44.5 -18t44 18t18 43z" />
    <glyph glyph-name="FL2019h" unicode="&#x2019;" horiz-adv-x="189" 
d="M32 526q0 -24 16 -41.5t37 -17.5h3v-61q33 27 51 56t18 63v1q0 25 -18.5 43t-44.5 18t-44 -18t-18 -43z" />
    <glyph glyph-name="FL201Ah" unicode="&#x201a;" horiz-adv-x="189" 
d="M32 58q0 -24 16 -41.5t37 -17.5h3v-61q33 27 51 56t18 63v1q0 25 -18.5 43t-44.5 18t-44 -18t-18 -43z" />
    <glyph glyph-name="FL201Ch" unicode="&#x201c;" horiz-adv-x="339" 
d="M156 466q0 24 -16 41.5t-37 17.5h-3v61q-33 -27 -51 -56t-18 -63v-1q0 -25 18.5 -43t44.5 -18t44 18t18 43zM306 466q0 24 -16 41.5t-37 17.5h-3v61q-33 -27 -51 -56t-18 -63v-1q0 -25 18.5 -43t44.5 -18t44 18t18 43z" />
    <glyph glyph-name="FL201Dh" unicode="&#x201d;" horiz-adv-x="339" 
d="M182 526q0 -24 16 -41.5t37 -17.5h3v-61q33 27 51 56t18 63v1q0 25 -18.5 43t-44.5 18t-44 -18t-18 -43zM32 526q0 -24 16 -41.5t37 -17.5h3v-61q33 27 51 56t18 63v1q0 25 -18.5 43t-44.5 18t-44 -18t-18 -43z" />
    <glyph glyph-name="FL201Eh" unicode="&#x201e;" horiz-adv-x="341" 
d="M184 58q0 -24 16 -41.5t37 -17.5h3v-61q33 27 51 56t18 63v1q0 25 -18.5 43t-44.5 18t-44 -18t-18 -43zM32 58q0 -24 16 -41.5t37 -17.5h3v-61q33 27 51 56t18 63v1q0 25 -18.5 43t-44.5 18t-44 -18t-18 -43z" />
    <glyph glyph-name="FL2020h" unicode="&#x2020;" horiz-adv-x="423" 
d="M266 479q-23 -21 -45 -47t-42 -52h-147v-115h114v-273q13 6 32.5 24.5t38 39.5t32.5 40t17 27v142h33q1 0 13.5 12.5t28.5 30.5t30.5 37.5t19.5 34.5h-125v99z" />
    <glyph glyph-name="FL2021h" unicode="&#x2021;" horiz-adv-x="423" 
d="M266 479q-23 -21 -45 -47t-42 -52h-147v-115h114v-60h-114v-115h114v-98q9 4 22 15t26.5 25t26.5 29t23 29h55q1 0 13.5 12.5t28.5 30.5t30.5 37.5t19.5 34.5h-125v60h33q1 0 13.5 12.5t28.5 30.5t30.5 37.5t19.5 34.5h-125v99z" />
    <glyph glyph-name="FL2022h" unicode="&#x2022;" 
d="M32 81q0 -8 5.5 -22t14.5 -27t19.5 -22.5t21.5 -9.5h332q10 0 21 9.5t20 22.5t14.5 27t5.5 22v320q0 10 -6 22t-15.5 22.5t-21 18t-21.5 7.5h-328q-9 0 -20 -8.5t-20 -19.5t-15.5 -23t-6.5 -19v-320z" />
    <glyph glyph-name="FL2026h" unicode="&#x2026;" horiz-adv-x="495" 
d="M338 58q0 -24 18 -42t44 -18t44.5 18t18.5 42q0 25 -18.5 43t-44.5 18t-44 -18t-18 -43zM185 60q0 -24 18 -42t44 -18t44.5 18t18.5 42q0 25 -18.5 43t-44.5 18t-44 -18t-18 -43zM32 60q0 -24 18 -42t44 -18t44.5 18t18.5 42q0 25 -18.5 43t-44.5 18t-44 -18t-18 -43z
" />
    <glyph glyph-name="FL2030h" unicode="&#x2030;" horiz-adv-x="849" 
d="M75 0h140l314 471h-140zM32 310q0 -5 3 -12.5t8.5 -15t12 -13t13.5 -5.5h152q7 0 13.5 5.5t12 13t9 15t3.5 12.5v148q0 6 -3.5 13t-9.5 13t-13 10.5t-13 4.5h-151q-5 0 -11.5 -4.5t-12 -11.5t-9.5 -14t-4 -11v-148zM105 428h80v-92h-80v92zM344 17q0 -5 3 -12.5t8.5 -15
t12 -13t13.5 -5.5h152q7 0 13.5 5.5t12 13t9 15t3.5 12.5v148q0 6 -3.5 13t-9.5 13t-13 10.5t-13 4.5h-151q-5 0 -11.5 -4.5t-12 -11.5t-9.5 -14t-4 -11v-148zM417 135h80v-92h-80v92zM590 17q0 -5 3 -12.5t8.5 -15t12 -13t13.5 -5.5h152q7 0 13.5 5.5t12 13t9 15t3.5 12.5
v148q0 6 -3.5 13t-9.5 13t-13 10.5t-13 4.5h-151q-5 0 -11.5 -4.5t-12 -11.5t-9.5 -14t-4 -11v-148zM663 135h80v-92h-80v92z" />
    <glyph glyph-name="FL2039h" unicode="&#x2039;" horiz-adv-x="185" 
d="M32 307v-139l121 -92v116l-59 45l59 46v116z" />
    <glyph glyph-name="FL203Ah" unicode="&#x203a;" horiz-adv-x="185" 
d="M152 307v-139l-121 -92v116l59 45l-59 46v116z" />
    <glyph glyph-name="FL20ACh" unicode="&#x20ac;" horiz-adv-x="583" 
d="M32 250h93v-32h-93v-74h93v-55q0 -16 6 -32t16.5 -28.5t24.5 -20.5t31 -8h256q1 0 13.5 12.5t28.5 30.5t30.5 37.5t19.5 34.5h-306v29h83q1 0 15 8t31 19.5t33.5 24.5t21.5 22h-184v32h83q1 0 15 8t31 19.5t33.5 24.5t21.5 23h-184v30h214q1 0 13.5 12.5t28.5 30.5
t30.5 37.5t19.5 34.5h-348q-17 0 -31 -8t-24.5 -21t-16.5 -29t-6 -32v-55h-93v-75z" />
    <glyph glyph-name="FL2122h" unicode="&#x2122;" horiz-adv-x="295" 
d="M73 635h-41v17h100v-17h-41v-100h-18v100zM151 649q4 4 11 4q4 0 14.5 -11t13.5 -22l16 -51l14 40q9 26 17 34.5t21 8.5h5v-117h-13v76l-4 9q-10 -31 -16.5 -48t-10.5 -25.5t-6.5 -10t-3.5 -1.5h-6q-4 0 -5 6l-28 76l-6 -6v-76h-13v114z" />
    </font>
</defs>
</svg>
